{"glyphs":{"0":{"ha":729,"x_min":40,"x_max":663,"o":"m 653 452 q 663 355 663 387 q 648 330 663 345 l 659 318 l 644 302 l 656 289 l 637 269 l 623 227 l 596 203 l 589 184 q 568 160 574 172 l 545 153 l 545 138 l 526 131 l 514 117 q 486 100 509 111 l 478 86 l 463 86 l 453 74 l 437 78 l 414 53 l 374 37 l 345 20 l 319 16 l 306 6 q 256 -1 299 2 l 244 -16 l 208 -8 l 197 -12 l 178 -8 l 167 -11 l 147 -1 l 126 -1 q 94 23 104 19 q 82 33 83 26 l 74 49 l 63 60 q 45 100 58 65 l 49 118 l 40 126 l 47 157 q 41 176 41 166 q 49 193 41 186 q 52 214 52 204 l 50 235 l 69 275 l 74 309 l 86 326 l 96 364 l 107 392 q 116 425 110 412 q 149 464 122 437 l 144 475 l 157 497 l 153 515 l 167 514 l 184 538 q 208 574 205 543 l 225 590 l 233 586 l 244 600 q 253 623 250 607 l 278 623 l 281 636 l 292 636 l 292 653 q 329 671 319 654 l 374 685 l 400 696 l 411 696 l 432 701 l 447 693 q 464 704 458 704 q 476 694 467 704 q 490 669 485 685 l 514 656 l 533 637 q 554 628 536 633 l 575 589 l 596 575 q 623 538 603 547 q 633 500 633 524 l 633 490 l 648 473 l 644 460 l 653 452 m 628 386 l 623 403 l 625 425 l 611 452 l 614 475 l 603 489 q 589 538 600 507 q 551 585 557 550 q 514 607 534 592 l 489 608 q 441 646 466 646 q 425 640 440 640 l 407 642 l 396 634 q 364 625 392 631 l 355 608 l 340 600 l 326 607 l 318 589 l 305 584 q 271 558 300 582 l 253 537 q 222 511 244 526 l 215 496 l 171 440 l 174 422 l 147 399 l 149 380 l 134 370 l 125 330 l 125 329 q 112 312 125 321 q 100 289 100 302 q 96 278 100 282 l 97 260 l 92 244 l 93 227 l 75 215 l 78 204 l 75 191 l 85 184 l 75 171 l 86 160 l 71 153 l 82 131 l 78 114 q 87 94 81 108 q 146 33 117 33 l 147 33 l 171 35 l 186 22 q 218 29 207 29 l 233 26 l 243 33 q 315 53 298 34 l 340 52 l 345 69 l 353 60 l 372 79 l 387 74 l 407 93 q 449 122 440 102 q 464 129 464 122 q 463 134 464 132 l 465 134 q 497 157 480 134 l 536 182 q 549 196 538 195 q 579 241 579 229 l 579 244 l 593 252 q 618 292 599 273 q 608 301 608 294 q 617 319 608 307 q 625 336 625 331 l 625 338 l 621 355 l 628 386 z "},"1":{"ha":682,"x_min":4,"x_max":643,"o":"m 629 25 q 643 11 643 15 q 632 4 643 5 l 572 3 l 521 -8 l 467 3 q 469 -1 469 0 q 465 -3 469 -3 q 457 -7 460 -4 q 419 1 440 1 l 383 -1 l 349 0 l 340 -4 l 293 3 l 278 0 l 275 8 l 236 0 l 218 -1 q 193 -9 208 -1 l 184 -1 l 180 -1 q 171 -7 175 -1 q 164 -12 166 -12 l 163 -12 l 155 -7 l 136 -7 q 125 -11 132 -11 q 96 0 116 -11 q 98 -5 98 -3 q 92 -10 98 -8 l 86 -12 q 70 -11 74 -12 q 64 -5 65 -9 q 58 4 62 -1 l 40 11 l 47 20 q 35 37 37 30 q 58 50 42 45 q 78 54 74 54 q 84 51 81 54 q 96 47 87 47 l 147 54 l 174 62 l 207 60 l 248 49 q 264 46 261 46 q 293 53 275 46 l 289 69 l 293 78 l 278 109 l 281 131 q 277 142 277 136 q 282 147 277 147 q 275 204 275 164 q 290 221 275 211 l 292 233 l 289 257 q 294 275 294 266 q 281 300 294 288 l 278 315 l 289 319 l 282 334 l 293 355 l 285 380 l 296 393 l 304 437 l 304 443 q 307 463 304 452 l 318 471 l 307 489 q 304 497 304 492 l 315 526 l 296 526 q 282 529 288 529 q 265 525 272 529 q 253 522 258 522 q 234 515 248 522 q 220 509 220 509 l 204 509 q 164 493 180 496 l 147 475 l 134 482 l 111 476 q 66 458 85 474 q 44 467 56 465 q 9 481 33 470 l 4 493 q 22 507 10 507 q 35 504 26 507 q 57 493 42 493 q 70 496 62 493 l 78 498 q 91 496 83 498 q 100 494 98 494 q 111 504 104 494 q 140 518 117 513 l 157 522 l 165 522 q 199 534 183 522 q 220 549 214 547 q 228 545 224 545 q 240 559 236 545 q 261 567 261 564 q 256 571 261 568 l 271 571 q 283 595 277 571 l 278 603 l 285 607 l 302 603 q 325 609 309 603 q 338 628 340 615 q 335 646 335 641 q 340 667 335 656 l 378 676 l 415 676 l 432 659 q 435 643 435 644 q 432 636 435 639 l 389 597 q 386 589 386 595 q 400 570 386 579 l 380 558 q 386 545 380 550 l 364 526 q 367 522 367 524 q 361 511 367 520 q 355 492 355 501 q 358 478 355 488 l 352 458 q 348 444 349 450 q 346 427 347 437 q 344 411 345 417 q 335 392 343 404 l 340 380 l 326 353 l 330 329 l 326 309 l 319 307 l 328 285 l 319 260 q 326 239 326 241 q 315 227 326 231 q 329 203 328 214 l 315 195 q 319 183 319 188 q 318 178 319 179 q 322 151 322 163 q 313 126 322 134 q 329 107 317 111 q 323 90 323 94 q 330 78 323 83 q 326 69 326 74 q 343 49 326 61 q 358 37 345 37 l 363 37 l 370 47 l 380 41 l 400 47 l 403 35 l 436 47 l 433 37 l 468 29 q 486 33 476 33 q 510 25 497 33 l 524 25 q 551 30 536 26 q 570 33 566 33 q 589 30 574 33 q 614 25 604 26 l 619 16 l 629 25 z "},"2":{"ha":790,"x_min":29,"x_max":775,"o":"m 775 5 l 771 -3 q 760 -12 766 -5 q 733 -28 753 -18 l 724 -25 l 704 -26 l 704 -35 q 690 -33 699 -33 q 671 -39 678 -33 q 660 -36 665 -36 q 654 -37 656 -36 l 639 -32 l 625 -32 l 607 -21 l 595 -21 l 590 -28 l 574 -14 l 562 -17 q 546 -3 555 -3 l 543 -3 l 529 -5 q 515 9 515 -5 q 498 5 507 5 q 468 9 491 5 q 461 22 462 22 l 449 20 q 431 26 443 20 q 411 35 418 33 q 401 32 409 32 q 379 46 391 32 l 359 47 l 355 46 l 353 46 q 334 60 342 46 l 325 54 l 314 61 l 304 61 l 292 62 q 254 41 281 45 l 250 47 l 239 31 q 217 27 229 31 q 199 22 205 24 q 183 12 192 21 l 160 8 l 160 4 q 155 0 160 0 q 142 8 150 0 q 125 0 134 0 l 94 0 l 46 18 q 31 47 31 35 q 29 68 31 60 l 39 79 l 35 87 q 69 104 50 102 l 86 119 l 100 118 l 139 139 l 146 136 q 191 143 182 143 q 199 139 195 143 l 233 139 l 260 134 q 297 121 279 121 l 315 123 l 325 117 q 350 134 340 134 l 355 132 l 387 146 l 385 151 q 414 163 414 159 l 414 164 l 424 183 l 447 197 l 493 218 q 486 228 486 225 q 497 239 486 235 l 497 248 q 521 254 518 254 q 526 252 524 254 q 554 281 532 267 l 559 309 l 586 313 q 608 336 589 335 l 619 351 l 631 354 q 642 394 635 379 q 648 416 648 409 l 648 421 q 657 428 650 428 l 665 452 l 654 460 q 668 468 668 462 l 664 490 l 664 514 l 642 551 q 621 576 638 566 l 570 607 l 561 624 l 543 616 l 524 631 l 505 631 l 494 647 l 475 642 l 450 647 l 439 646 l 424 650 l 397 646 l 387 652 l 375 646 l 364 652 l 347 646 l 321 647 q 307 637 317 637 q 297 639 301 637 l 272 624 l 256 624 l 252 614 l 232 606 q 221 610 226 610 q 199 589 213 610 l 178 589 l 178 575 l 167 572 q 154 561 163 561 l 155 550 l 132 543 l 132 541 q 117 521 132 532 l 114 510 l 83 507 l 73 518 q 71 524 72 519 l 61 547 l 61 554 q 74 579 61 572 l 78 575 q 89 606 79 604 l 102 595 l 110 614 l 129 614 l 134 625 l 183 653 l 199 647 l 211 663 l 225 665 l 225 669 q 268 684 243 684 q 292 681 283 684 q 351 701 323 701 l 361 701 l 404 697 l 439 699 l 457 694 q 469 690 460 690 l 478 690 q 530 665 504 686 l 543 669 l 554 664 q 582 647 558 650 l 595 631 l 632 614 l 676 566 l 682 547 l 681 529 l 699 524 l 694 513 l 703 498 l 699 476 l 705 454 l 699 439 l 700 416 q 689 391 700 406 q 666 353 677 376 q 642 322 655 330 q 628 313 629 314 l 616 286 l 603 281 l 600 273 l 586 272 q 590 265 590 269 q 588 260 590 263 q 577 251 586 256 q 564 244 568 245 q 555 238 559 243 q 541 224 552 234 q 528 208 530 215 l 505 191 l 498 191 q 475 178 475 191 l 475 174 l 469 175 q 447 157 457 175 q 412 125 443 139 l 401 127 l 397 114 q 386 106 388 112 l 371 93 l 390 93 l 397 81 q 407 86 401 86 q 416 83 412 86 q 437 69 422 69 l 452 71 l 456 61 l 476 65 l 485 50 l 503 50 q 541 29 518 29 q 547 32 547 29 l 547 35 l 603 14 q 616 11 611 8 l 632 14 l 643 5 l 708 -3 l 725 5 l 746 5 q 762 14 746 14 l 770 14 l 775 5 m 264 83 q 212 97 222 97 l 200 97 q 179 104 191 97 q 161 98 170 98 l 155 98 l 139 90 l 135 90 q 98 56 116 90 q 140 33 109 33 l 160 39 l 171 39 l 179 46 l 222 58 l 264 83 z "},"3":{"ha":786,"x_min":14,"x_max":715,"o":"m 715 153 l 701 137 q 696 127 697 134 l 692 111 l 671 100 l 660 100 l 660 89 l 647 86 l 631 65 q 593 52 607 59 q 571 45 578 45 q 525 26 562 28 q 492 13 519 21 q 465 5 466 5 l 449 8 l 387 -9 l 364 -8 l 338 -1 q 309 -8 329 -1 l 281 -12 l 258 -8 l 244 -12 q 220 -4 235 -7 l 203 -12 q 195 -5 199 -12 q 184 3 190 1 q 172 -11 182 -7 q 155 -1 167 -10 q 151 -11 155 -11 q 139 -6 150 -11 q 114 0 129 -1 l 111 -4 l 96 8 l 81 0 l 64 7 q 58 3 62 7 q 52 -1 54 -1 l 49 0 l 49 3 q 34 11 49 9 q 16 21 19 12 q 14 62 14 31 q 32 89 14 89 l 40 89 q 79 98 41 93 l 111 103 q 118 99 113 103 q 123 89 123 95 q 119 82 123 84 q 78 74 115 79 q 60 53 61 72 l 52 47 q 110 32 77 36 q 125 26 117 26 q 144 35 134 26 l 147 26 l 191 35 q 204 14 204 30 q 281 31 231 31 q 307 26 292 31 q 318 37 311 37 q 326 33 320 37 q 338 25 330 27 q 364 43 357 43 l 366 43 q 393 33 373 33 l 424 40 l 449 37 l 473 58 q 494 56 490 56 q 533 71 517 56 q 553 69 540 69 q 562 71 560 69 l 559 85 l 582 103 l 603 100 q 628 118 605 104 q 668 153 651 132 q 673 193 673 189 q 672 203 673 199 q 666 211 670 208 q 657 216 663 214 q 644 220 652 218 q 627 230 636 222 l 611 243 l 570 252 l 541 244 l 530 258 l 515 256 l 490 278 l 478 267 q 457 271 467 271 q 440 267 451 271 q 418 278 429 278 l 405 273 q 375 267 389 269 l 367 275 l 329 279 l 302 292 l 275 290 q 240 313 251 303 l 240 334 l 236 349 l 260 353 q 309 372 277 370 q 340 382 340 374 l 386 380 q 400 400 395 386 q 440 415 433 407 l 471 415 l 475 425 l 484 425 q 511 437 511 425 q 509 447 511 439 q 554 457 511 450 q 565 468 554 461 q 579 485 576 474 q 616 515 616 494 l 615 522 q 618 525 615 525 q 570 571 613 559 l 514 586 l 479 583 l 469 586 q 444 589 456 589 l 408 585 l 392 586 l 370 579 l 345 586 l 330 585 l 319 571 q 292 568 296 570 q 278 558 288 566 l 271 564 l 253 558 l 248 562 l 233 554 q 222 543 228 543 q 208 549 216 543 l 204 549 q 178 533 189 549 l 174 533 q 131 497 148 533 q 107 485 109 497 l 87 493 l 78 509 q 71 521 74 517 q 72 529 72 524 q 69 541 72 536 l 86 551 q 96 557 87 557 l 109 555 l 115 566 l 127 564 l 135 564 q 143 568 143 564 q 142 571 142 570 q 170 581 154 579 q 196 597 186 582 l 215 597 q 244 608 229 608 q 259 605 249 604 q 278 607 269 606 q 308 612 288 608 l 343 623 l 367 618 q 406 628 382 628 l 415 628 q 435 623 427 623 q 437 624 436 624 q 452 614 444 624 l 478 623 l 505 621 l 526 623 l 526 618 l 551 608 q 607 593 553 604 l 621 571 l 635 559 q 647 545 644 551 l 656 525 q 647 509 652 523 q 586 441 625 451 l 578 431 q 549 414 575 427 l 515 407 l 496 392 q 441 370 463 382 q 435 375 438 375 q 427 367 431 375 l 411 367 l 403 355 q 355 338 374 349 l 349 340 q 339 325 339 332 q 349 318 339 318 q 375 307 370 311 l 393 313 l 403 307 l 422 309 q 435 302 426 302 l 441 302 l 464 309 l 485 296 l 500 304 q 511 296 509 302 q 579 282 543 282 q 608 271 588 271 l 614 271 l 637 269 l 659 252 l 673 252 l 693 229 l 700 199 q 715 178 701 193 l 713 167 l 715 153 z "},"4":{"ha":876,"x_min":21,"x_max":764,"o":"m 764 326 q 737 293 762 305 l 733 279 l 737 275 q 711 258 721 258 q 704 261 709 258 q 685 252 692 258 q 668 241 680 241 l 664 241 l 655 237 q 629 233 652 235 l 627 229 l 604 229 l 582 236 l 568 229 l 550 240 l 534 236 l 513 243 l 498 236 l 498 220 l 488 204 l 490 182 l 486 163 l 490 147 q 482 134 482 142 l 482 131 l 475 118 l 482 93 q 472 71 474 85 l 479 52 l 468 22 q 472 14 472 18 q 468 8 472 10 q 467 1 467 5 q 471 -12 467 -4 q 475 -22 475 -20 l 475 -45 l 488 -53 l 501 -82 q 488 -89 494 -89 q 465 -85 479 -89 l 464 -60 l 452 -45 l 452 -24 l 441 -12 l 447 0 l 439 8 l 441 16 l 436 40 l 441 49 l 433 60 l 441 75 l 436 96 l 444 131 l 443 138 l 444 149 l 441 153 q 452 174 441 165 l 447 184 q 449 200 449 190 l 446 222 q 450 229 446 225 l 450 233 q 435 257 450 252 q 376 268 420 263 l 354 271 l 325 271 l 314 278 l 290 271 l 277 282 l 248 281 l 237 289 l 221 289 l 210 293 l 197 282 l 183 285 q 132 267 159 273 l 123 258 l 109 256 l 106 248 l 85 241 q 79 240 83 240 l 57 241 q 50 237 53 241 q 45 233 47 233 l 41 233 l 36 244 l 28 248 l 21 264 q 52 292 29 290 l 57 307 q 86 325 79 324 l 132 329 q 150 345 148 333 l 179 338 l 197 340 l 208 368 l 221 378 l 231 378 l 228 392 l 253 399 q 277 435 261 425 q 286 448 277 440 q 303 466 296 456 q 319 485 311 475 l 326 495 q 346 511 328 500 q 359 538 348 534 q 385 575 366 558 q 395 583 395 577 q 392 593 395 585 q 425 614 420 604 q 412 633 417 618 l 435 647 q 464 696 439 696 l 472 693 q 488 673 479 680 l 486 667 l 488 659 l 479 648 l 482 636 l 465 614 l 464 597 l 450 593 l 436 559 l 436 557 q 414 531 436 551 q 376 489 393 510 q 380 478 380 481 q 370 470 380 475 q 357 460 360 464 q 352 453 353 457 q 342 439 350 448 q 332 426 334 429 q 328 418 331 423 q 302 400 325 414 l 301 389 l 290 382 l 245 343 l 268 329 l 292 329 l 311 319 q 319 326 316 326 l 328 326 q 359 307 343 307 q 390 313 370 307 q 416 318 410 318 q 441 302 427 318 l 446 302 l 463 301 q 475 319 475 301 l 475 338 l 490 355 l 488 370 l 493 382 l 490 403 l 498 407 l 493 427 q 513 460 513 450 q 511 465 513 464 l 507 465 q 518 486 507 469 l 518 521 q 525 534 525 522 q 524 547 525 542 q 529 568 529 558 q 526 583 529 576 q 522 595 522 590 q 525 611 522 602 l 538 653 l 534 692 q 540 701 534 694 q 555 708 546 708 q 587 648 587 682 l 574 633 l 576 589 l 570 571 l 574 562 l 564 547 l 567 526 l 564 525 l 558 503 l 546 471 l 547 447 l 521 334 q 510 307 511 315 q 525 282 516 282 q 533 286 528 282 q 539 289 538 289 q 558 278 549 289 l 587 282 l 612 268 l 644 275 l 648 275 q 664 285 659 275 l 679 290 l 689 283 q 704 298 700 294 q 729 309 708 301 q 751 332 738 323 l 764 326 z "},"5":{"ha":793,"x_min":-1,"x_max":899,"o":"m 899 697 q 876 686 889 691 l 854 685 q 833 681 842 685 l 808 671 l 783 676 l 729 663 q 713 669 721 665 l 694 663 l 664 667 q 660 668 663 668 q 646 659 655 668 l 543 643 l 497 647 l 486 642 l 479 647 l 424 637 l 395 644 l 370 637 l 350 642 l 336 628 l 311 625 l 311 611 l 290 562 l 290 549 l 279 545 q 262 505 264 519 q 258 493 258 501 l 248 486 q 221 449 241 463 q 197 429 220 439 l 208 414 l 216 422 q 248 411 233 411 q 260 425 260 411 l 292 428 q 317 418 307 428 q 347 425 337 425 q 370 418 358 425 l 401 425 l 476 422 l 497 414 q 509 418 501 418 q 520 414 515 418 q 550 410 525 411 q 590 403 575 409 l 629 386 l 647 359 q 675 343 650 355 l 686 296 l 694 285 l 692 267 l 693 248 q 681 197 685 239 l 675 193 q 650 141 656 146 q 635 136 644 136 q 597 78 597 88 q 576 65 586 78 q 547 46 566 52 q 528 33 535 43 q 509 20 520 24 q 478 13 498 17 q 444 -1 458 9 q 401 -11 430 -11 l 386 -9 q 351 -22 364 -9 l 332 -16 l 309 -24 l 279 -20 l 268 -24 q 243 -12 259 -12 l 237 -12 q 218 -7 227 -7 q 195 -11 207 -7 l 172 4 l 157 -1 l 132 20 l 109 20 l 86 40 l 35 60 l 36 74 l 14 100 l 1 155 q -1 165 -1 163 q 1 170 -1 168 q 4 175 4 172 q 1 182 4 176 q 21 191 14 191 q 35 178 35 191 l 32 122 q 46 100 39 109 q 57 86 52 91 q 83 74 61 82 l 97 53 l 115 50 q 150 33 123 49 l 168 33 l 183 22 l 197 25 l 208 16 l 262 12 l 292 14 l 313 9 l 343 20 q 364 14 351 20 l 385 25 l 408 25 l 425 29 q 493 53 453 51 l 490 60 l 493 71 l 521 71 q 542 85 528 80 l 553 93 q 567 109 559 109 l 570 109 q 596 137 590 119 q 610 171 602 155 l 624 170 l 624 174 q 634 193 624 178 q 644 224 644 208 q 643 233 644 229 l 647 236 l 646 258 l 653 271 l 643 285 l 643 307 l 635 325 l 587 351 l 576 363 l 564 363 l 555 367 l 538 364 l 524 374 l 510 367 l 493 380 l 476 375 l 439 382 l 408 382 l 392 386 l 364 378 l 343 386 l 319 378 l 290 378 l 245 370 l 232 375 l 197 364 l 183 370 q 154 345 158 351 l 121 345 l 123 367 l 113 378 l 119 382 l 119 393 l 136 392 l 135 422 l 150 427 q 180 471 180 459 l 180 473 q 194 497 185 475 q 211 520 202 518 q 224 523 220 522 q 230 532 228 525 l 235 549 l 253 591 l 241 600 q 236 591 237 595 l 253 618 q 231 623 245 623 l 221 623 l 215 635 q 199 653 212 642 l 210 669 l 262 681 l 269 673 l 283 686 l 314 682 q 338 692 320 692 l 359 692 l 425 686 l 431 692 l 468 693 l 490 685 l 597 697 l 660 692 q 671 689 663 691 q 686 686 680 686 q 706 690 693 686 l 717 693 l 779 696 l 822 701 q 871 708 867 705 q 899 697 883 702 z "},"6":{"ha":843,"x_min":71,"x_max":781,"o":"m 781 269 q 755 227 777 243 q 749 209 755 216 q 730 186 742 201 l 729 174 q 692 153 692 159 l 676 149 q 647 131 656 134 l 644 122 l 628 121 l 621 111 q 592 95 615 104 l 571 86 l 522 60 q 488 48 508 52 q 464 37 469 44 l 449 45 q 408 22 441 28 l 349 11 q 296 -8 306 -2 l 267 -4 l 258 -12 q 232 -21 244 -15 l 212 -14 l 193 11 l 178 4 l 167 16 l 129 32 l 94 75 q 77 142 77 137 l 75 155 l 78 180 l 71 211 q 82 227 71 220 l 90 253 q 97 275 96 267 q 107 309 97 283 l 110 325 l 125 351 q 147 392 132 382 l 144 400 l 171 437 l 178 464 l 193 475 l 186 485 q 212 513 201 505 q 232 533 222 522 q 248 543 241 543 l 252 542 q 260 559 256 542 l 271 562 l 271 575 l 293 582 l 293 593 l 302 603 q 325 618 315 608 q 338 628 325 622 q 353 637 351 634 q 355 647 355 640 q 397 669 380 669 l 403 669 l 414 684 l 440 692 q 463 707 449 707 l 467 707 q 494 711 484 711 l 514 708 l 538 708 q 568 672 565 678 q 571 663 571 667 q 564 655 571 660 q 554 647 557 650 q 525 623 550 629 q 497 647 511 629 l 469 642 l 457 642 l 441 636 l 418 636 l 390 616 l 374 599 l 345 582 l 325 564 q 302 545 313 557 l 298 545 q 282 526 282 545 q 262 501 277 516 q 248 482 248 486 l 248 481 q 233 467 248 479 q 207 441 219 454 l 207 422 l 197 415 l 196 403 q 192 399 196 401 q 164 362 172 388 q 143 314 155 337 l 146 288 l 136 262 l 125 243 l 125 225 q 111 186 111 204 l 111 180 l 107 171 l 114 131 l 122 121 l 125 97 l 142 86 l 142 74 l 160 53 l 178 69 l 170 89 l 178 97 l 171 114 l 180 125 l 182 134 l 196 142 l 196 149 l 203 178 q 220 204 208 195 l 271 245 l 296 258 q 318 275 298 275 q 330 271 321 275 q 343 290 343 275 l 343 296 l 363 296 l 364 302 q 414 313 377 309 l 425 330 l 447 334 l 485 355 l 533 363 q 545 374 543 364 q 555 378 549 378 l 561 378 l 574 380 l 585 375 l 653 380 l 663 374 l 688 378 l 720 358 q 741 346 732 354 q 756 327 751 338 q 775 306 762 317 l 775 283 l 781 269 m 742 267 l 742 285 l 733 307 l 722 313 l 718 330 l 697 334 l 685 345 l 671 343 l 642 351 l 606 345 q 576 342 589 342 q 559 339 564 341 q 554 330 555 336 l 539 330 q 496 319 509 330 l 475 307 l 446 301 q 431 292 440 300 l 418 292 l 408 282 l 401 282 q 367 258 374 282 l 338 252 q 289 215 321 225 l 272 187 l 252 178 l 222 136 q 208 93 222 112 q 204 58 204 72 q 211 40 204 40 l 228 39 q 252 29 236 37 l 271 33 q 279 32 275 32 q 296 35 282 32 q 323 37 311 37 q 415 60 333 37 q 460 74 429 72 q 479 83 469 80 l 500 89 l 547 107 l 570 113 l 587 127 q 636 155 604 134 l 637 170 l 656 167 l 656 168 q 670 177 656 172 q 689 195 684 182 l 704 204 q 712 220 704 206 q 732 239 720 233 l 742 267 z "},"7":{"ha":895,"x_min":-56,"x_max":918,"o":"m 918 366 l 882 358 l 839 339 l 791 346 l 781 334 l 758 342 l 746 329 l 713 329 l 692 336 q 648 326 659 326 l 568 334 q 555 330 567 334 q 547 318 555 321 q 528 293 539 302 l 521 264 l 503 252 l 501 240 l 490 233 l 476 196 l 461 191 q 444 170 456 174 l 443 154 l 431 144 q 406 114 411 117 l 401 100 l 392 100 q 375 75 385 78 q 349 36 364 36 l 343 37 l 336 29 q 309 -12 332 -1 l 290 -52 l 265 -62 l 260 -74 l 245 -74 l 245 -85 q 231 -109 233 -96 l 210 -118 l 204 -131 l 172 -144 q 150 -178 165 -159 q 131 -191 136 -180 l 110 -196 q 103 -207 108 -207 q 94 -204 100 -207 q 74 -235 89 -219 l 58 -233 l 46 -248 l 28 -253 l 10 -262 q -9 -267 0 -267 l -36 -268 l -56 -257 q -12 -233 -43 -254 l 17 -235 l 24 -222 l 28 -222 q 46 -208 43 -222 q 58 -197 50 -197 q 72 -201 62 -197 q 98 -176 83 -176 q 109 -179 102 -176 q 139 -153 128 -153 q 158 -132 158 -142 l 158 -127 l 195 -102 l 199 -85 l 203 -85 q 216 -76 214 -85 q 231 -46 218 -68 q 296 18 271 -27 q 309 26 304 20 q 320 42 315 32 q 335 64 326 53 q 351 84 345 75 q 357 98 357 94 q 366 122 357 103 q 396 138 387 125 q 393 147 393 142 q 412 178 393 157 l 419 178 l 430 191 q 447 229 435 197 l 473 249 l 482 278 l 490 281 l 498 300 q 513 321 513 318 q 503 329 513 329 q 494 325 500 329 q 478 321 488 321 l 472 321 l 454 330 l 439 325 l 401 329 l 382 325 l 350 334 q 323 340 334 340 q 292 326 306 340 l 281 326 l 265 338 l 248 338 l 239 347 l 245 353 q 248 355 248 353 q 242 363 248 357 q 236 374 236 370 q 257 392 236 383 q 269 380 265 390 l 269 382 q 313 392 269 392 q 332 382 318 392 l 339 382 q 401 374 359 374 l 436 378 l 539 367 l 546 364 l 547 386 l 564 392 q 581 431 570 431 q 587 429 585 431 l 587 433 l 589 457 q 587 468 589 465 l 607 489 l 604 514 l 624 521 l 629 549 q 657 614 646 559 l 668 621 l 657 633 l 621 631 l 612 618 l 595 621 l 587 608 l 558 614 l 528 603 l 521 607 l 503 586 l 482 597 l 458 589 l 441 596 q 387 582 400 591 q 349 590 363 590 q 336 588 345 590 q 325 586 328 586 l 296 586 l 257 585 l 247 591 q 212 596 243 593 q 196 591 204 591 q 170 600 184 591 l 161 596 l 146 603 l 139 602 l 98 608 l 81 603 q 38 617 53 603 q 22 656 22 631 q 24 676 22 670 l 50 671 l 58 681 l 66 663 q 82 669 76 669 q 111 653 90 669 q 151 636 131 636 l 158 636 l 183 642 l 220 631 l 241 636 l 283 628 l 359 628 l 379 625 l 396 633 l 403 623 q 431 636 420 636 q 447 628 437 636 l 468 642 l 503 644 l 558 653 l 590 663 l 604 660 l 612 671 q 640 676 615 676 q 660 685 650 685 l 664 685 l 668 684 q 691 700 677 684 q 710 720 705 717 l 734 729 q 745 732 741 732 q 768 720 755 732 l 779 673 l 751 671 q 705 636 726 641 l 705 600 l 692 589 l 684 551 l 669 545 q 651 510 659 519 q 643 489 643 501 q 646 475 643 486 q 627 460 629 468 l 604 403 l 586 380 l 595 370 l 631 366 l 656 371 q 673 367 666 367 q 689 371 682 367 q 700 364 694 364 q 734 374 715 364 q 782 364 760 372 q 803 371 791 371 q 815 368 811 371 q 844 374 826 372 q 863 382 862 375 l 916 375 l 918 366 z "},"8":{"ha":733,"x_min":85,"x_max":704,"o":"m 704 564 q 681 533 690 536 q 654 499 671 511 q 631 475 638 488 l 621 475 l 618 467 l 579 440 l 554 414 l 521 400 l 441 353 l 429 338 l 411 334 l 404 319 l 392 315 l 392 307 q 363 278 363 302 l 415 240 l 482 184 l 521 160 l 521 153 l 533 136 l 549 125 l 559 103 q 581 61 581 84 l 575 33 l 575 31 q 561 4 575 24 q 533 -16 547 -16 q 521 -12 529 -16 l 510 -22 q 505 -25 509 -24 l 482 -33 l 437 -29 q 410 -36 428 -29 l 403 -26 l 389 -33 l 363 -26 l 340 -35 l 319 -29 l 304 -33 q 253 -22 272 -33 l 243 -24 l 180 -16 l 160 4 l 142 8 l 142 20 l 122 14 l 118 25 l 107 26 l 107 40 q 85 64 85 61 q 89 75 85 66 q 93 93 93 83 q 114 138 113 124 l 121 144 l 122 157 l 138 167 q 160 196 156 191 l 167 193 l 180 207 l 197 208 q 196 215 196 211 q 218 227 196 224 l 211 236 q 229 243 220 243 l 235 243 q 262 261 242 243 q 285 282 264 266 q 275 293 282 290 l 231 315 l 211 334 q 180 364 189 340 l 171 367 l 167 386 l 155 386 q 134 411 150 400 l 111 464 l 96 485 q 86 494 86 490 q 93 500 86 500 q 97 509 94 504 q 100 515 100 513 q 96 530 100 518 q 110 561 106 534 l 125 575 l 127 587 q 142 611 127 593 l 149 611 q 168 637 155 637 l 170 637 l 170 639 q 185 658 170 645 q 211 671 201 671 l 218 669 l 271 713 q 318 725 292 714 l 325 722 l 337 736 q 359 743 338 737 q 403 750 380 749 l 408 745 l 435 753 l 463 750 q 478 747 468 748 l 500 746 l 574 733 q 593 718 586 727 l 614 715 q 637 697 618 703 q 660 681 655 692 q 697 628 686 641 l 696 618 l 704 596 l 697 589 l 704 564 m 663 575 q 671 597 671 587 q 660 620 671 606 q 647 644 650 634 q 618 672 636 654 q 598 691 601 690 q 559 693 595 692 l 547 704 l 541 697 l 503 715 l 478 708 l 467 715 l 457 713 l 452 722 l 441 725 l 432 704 l 471 671 l 467 659 l 475 637 q 450 623 466 623 q 437 625 446 623 l 418 659 l 404 653 l 399 660 l 364 659 l 351 647 l 338 653 l 334 647 q 296 637 313 647 q 220 611 302 629 q 204 596 215 596 q 184 575 186 596 q 171 570 180 572 l 163 541 l 149 533 l 142 505 l 142 489 l 160 471 l 171 414 l 193 403 l 196 392 q 220 358 210 372 l 235 354 q 249 346 243 351 l 264 330 l 293 325 l 329 304 l 343 309 l 349 304 l 349 325 l 393 347 l 400 370 l 425 374 q 444 391 429 379 l 454 399 q 462 407 458 402 q 473 413 467 411 l 488 418 q 504 428 497 421 l 522 447 l 549 452 l 549 460 l 571 467 q 585 482 574 482 l 591 481 q 596 482 595 481 l 597 490 l 608 490 q 616 507 613 490 q 631 525 618 524 q 643 541 643 531 q 642 549 643 546 q 663 572 663 566 l 663 575 m 545 60 l 545 62 q 515 125 545 85 l 490 138 l 473 163 l 429 186 l 403 218 l 355 240 q 321 267 329 267 q 313 258 316 267 q 281 245 309 258 q 243 211 253 233 q 231 204 242 210 l 184 180 l 174 163 l 178 153 l 167 147 q 149 131 152 145 q 137 113 146 117 q 129 104 129 110 q 132 61 129 85 q 162 24 135 37 q 191 11 190 11 l 220 11 l 233 3 l 264 7 l 292 0 l 313 3 l 338 -1 l 380 3 l 399 0 l 449 3 l 452 14 l 467 8 q 479 5 471 5 q 541 40 499 5 l 545 60 z "},"9":{"ha":729,"x_min":-367,"x_max":604,"o":"m 602 319 q 587 260 604 292 l 597 264 q 586 248 597 254 l 586 240 l 581 222 l 583 208 q 570 168 570 190 l 570 163 l 564 160 l 546 107 l 546 93 l 538 93 l 539 78 l 525 65 l 518 40 l 501 26 l 498 4 l 479 -11 l 486 -24 l 471 -39 q 452 -71 464 -46 l 441 -71 l 439 -89 l 425 -100 l 424 -111 l 401 -122 l 351 -191 l 325 -208 l 262 -262 l 248 -268 q 231 -285 241 -271 l 212 -289 l 197 -307 l 147 -330 l 127 -335 l 119 -345 l 92 -350 q 74 -363 86 -351 l 41 -364 q 1 -379 18 -379 l -7 -378 l -24 -379 l -36 -395 l -65 -393 q -89 -399 -71 -393 q -118 -406 -106 -406 l -135 -404 q -155 -408 -147 -404 l -180 -412 l -199 -408 l -222 -410 l -241 -406 q -256 -405 -250 -405 q -286 -389 -261 -404 l -307 -390 l -351 -364 l -366 -340 l -367 -330 q -364 -326 -367 -326 q -363 -328 -364 -328 l -340 -349 l -318 -351 l -301 -367 l -278 -363 l -252 -375 q -203 -386 -211 -375 q -126 -378 -161 -386 q -72 -371 -90 -371 q -58 -374 -71 -371 q 8 -353 -24 -353 l 14 -353 q 41 -345 31 -353 q 77 -330 52 -336 q 102 -319 102 -324 l 102 -318 q 164 -282 149 -310 l 189 -279 l 245 -233 q 283 -204 273 -227 q 315 -186 309 -186 l 317 -186 l 328 -178 l 342 -153 q 368 -111 359 -139 l 387 -89 q 406 -78 390 -85 l 418 -53 l 431 -40 q 444 -22 437 -24 q 452 4 444 -5 q 476 65 476 29 q 507 103 499 87 l 503 121 l 518 126 l 538 195 q 546 222 546 211 l 546 236 l 555 300 l 561 313 l 555 358 l 561 374 l 555 399 l 555 429 l 542 464 q 528 486 542 486 q 503 471 522 486 l 490 435 l 465 414 l 461 393 l 444 386 q 387 355 422 372 l 379 340 l 329 326 l 325 318 l 253 300 l 189 296 l 158 300 l 149 298 q 121 309 136 298 l 119 326 q 81 370 81 340 q 87 399 81 382 l 81 424 l 87 457 l 87 475 l 95 490 q 102 526 98 496 q 123 564 116 541 l 143 579 l 146 596 l 154 597 q 179 637 166 627 q 195 653 190 642 q 224 682 204 657 l 243 682 q 269 713 254 709 q 283 707 281 707 q 292 725 290 707 q 346 750 331 725 l 357 746 l 416 750 l 424 758 l 433 761 l 444 758 l 488 713 l 514 659 l 539 623 l 546 597 l 558 586 l 555 574 q 567 538 565 559 l 576 525 q 572 507 572 515 q 581 486 572 496 q 590 471 589 475 l 587 458 l 597 447 l 591 431 l 595 400 l 599 389 l 597 378 l 602 319 m 498 536 l 493 564 l 497 585 q 488 604 497 591 q 476 621 479 616 q 424 667 471 648 q 395 704 418 704 l 392 704 l 332 686 q 296 663 311 684 l 269 659 l 245 636 l 231 628 l 205 587 l 192 585 l 181 563 q 161 547 179 559 l 157 536 l 158 525 l 140 505 l 135 486 q 119 457 127 476 l 131 447 l 119 407 l 123 392 l 121 378 q 118 371 118 375 q 132 364 118 366 q 126 357 126 362 q 137 342 126 348 q 195 329 149 336 q 212 334 203 334 l 221 334 q 244 336 229 336 q 270 340 259 336 q 294 346 280 345 q 347 364 307 348 l 354 378 l 366 378 l 376 393 l 392 393 q 425 415 418 415 l 428 415 q 447 440 433 440 l 450 440 q 482 475 466 460 l 488 503 l 498 536 z "}," ":{"ha":354,"x_min":0,"x_max":0,"o":""},"!":{"ha":410,"x_min":164,"x_max":258,"o":"m 237 732 l 232 722 q 222 703 231 713 l 232 665 l 225 653 l 231 647 l 228 636 l 232 628 q 220 615 220 626 q 225 589 220 612 l 218 570 l 228 557 q 218 525 219 541 l 212 396 l 220 383 l 212 351 l 220 322 l 212 304 l 220 290 l 218 275 l 220 265 l 212 262 q 218 237 218 250 q 205 225 218 227 q 215 208 215 215 q 203 196 215 196 q 191 225 191 196 l 191 256 q 180 314 185 298 l 187 332 l 180 351 l 187 401 l 175 408 l 180 425 l 178 443 l 178 456 l 183 458 l 175 478 l 178 488 l 178 490 q 186 513 178 499 l 180 525 l 180 545 l 175 547 l 186 558 l 178 581 l 183 602 l 174 614 l 183 625 l 180 646 l 183 660 q 179 671 179 666 q 183 685 179 675 l 175 688 l 175 717 l 164 729 l 165 757 l 180 754 l 200 760 l 231 749 l 237 732 m 258 8 l 241 -5 l 222 0 l 205 -7 l 192 0 l 178 0 l 170 31 l 175 52 l 186 62 l 189 62 q 195 67 191 62 q 201 74 199 71 q 227 65 222 65 l 228 65 q 224 71 228 66 l 227 71 q 243 64 229 71 q 258 31 254 47 q 254 24 254 28 q 258 8 254 18 z "},"\"":{"ha":393,"x_min":97,"x_max":292,"o":"m 176 629 l 171 608 q 160 567 160 585 l 164 547 q 158 530 164 547 q 153 488 153 513 l 155 468 l 147 431 l 138 429 l 125 437 l 127 471 q 125 490 127 476 q 118 509 118 502 l 118 513 q 121 522 121 515 l 119 530 q 121 536 119 535 l 115 545 l 119 549 l 114 559 l 118 572 l 109 583 l 114 595 l 104 604 l 106 616 l 103 629 l 107 639 l 103 647 l 106 653 l 97 664 l 97 682 q 109 703 106 699 l 131 708 q 146 713 142 713 q 172 689 160 713 l 167 664 l 174 650 l 176 629 m 292 664 l 283 653 l 286 647 l 282 639 l 286 629 l 283 616 l 285 604 l 275 595 l 281 583 l 271 572 l 275 559 l 269 549 l 273 545 l 269 536 q 271 532 271 535 q 269 526 271 530 q 268 521 268 523 q 271 513 268 515 l 271 509 q 264 490 271 502 q 261 471 261 476 l 264 437 l 252 429 l 241 431 l 233 468 l 236 488 l 235 517 l 225 547 l 229 567 l 227 590 q 212 629 212 621 q 222 664 212 651 l 216 689 q 244 711 229 711 q 281 703 248 711 q 292 682 292 689 l 292 664 z "},"#":{"ha":859,"x_min":7,"x_max":857,"o":"m 857 441 q 835 433 844 441 l 824 440 q 798 444 819 443 q 783 437 786 437 q 775 443 779 437 l 762 439 l 747 446 l 733 436 l 713 441 l 660 435 l 644 440 q 587 435 610 440 l 580 408 q 573 397 578 403 l 561 380 l 558 329 l 549 319 q 536 282 546 315 l 522 272 l 521 257 l 503 237 l 513 229 l 503 218 q 533 218 523 220 q 558 215 543 215 l 566 216 q 578 211 572 216 l 600 210 l 623 212 l 642 204 l 663 211 q 669 204 667 204 q 687 207 672 204 q 716 207 701 210 q 743 204 731 205 q 760 210 752 210 l 786 207 l 799 191 l 786 191 l 775 182 l 764 189 q 737 193 760 192 q 724 187 728 187 q 715 192 718 187 l 703 187 l 689 196 l 675 186 l 654 192 l 599 183 l 586 189 l 578 191 q 510 179 563 191 q 497 186 505 186 q 476 136 484 161 l 463 125 l 454 92 l 435 45 l 431 14 l 418 -12 l 415 -52 l 393 -86 l 375 -146 l 372 -165 q 366 -186 371 -176 l 351 -211 l 335 -204 l 349 -161 l 347 -135 q 353 -124 347 -134 q 358 -103 358 -115 l 368 -98 l 370 -65 l 376 -43 l 385 0 q 401 9 399 3 q 406 58 404 15 l 424 78 l 425 97 q 429 117 425 109 l 439 142 l 436 155 l 456 182 l 441 180 l 431 184 q 412 187 419 187 l 351 180 l 329 186 l 290 174 l 254 184 l 241 184 q 221 136 229 161 l 207 125 l 199 92 l 179 45 l 174 14 l 163 -12 l 160 -52 l 138 -86 l 119 -146 l 117 -165 q 110 -186 115 -176 l 96 -211 l 79 -204 l 93 -161 l 92 -135 q 97 -124 92 -134 q 103 -103 102 -114 l 113 -98 l 114 -65 l 121 -43 l 129 0 q 146 9 143 3 q 150 58 149 15 l 168 78 l 169 97 q 173 117 170 109 l 183 142 l 180 155 l 201 184 q 147 171 176 184 q 131 182 141 182 l 109 176 l 87 183 l 43 179 l 33 174 q 9 189 20 180 l 9 204 l 7 212 l 14 212 q 66 227 56 227 l 96 220 l 121 222 l 165 216 l 197 222 l 212 220 l 212 225 l 222 243 q 231 273 228 253 l 235 273 q 231 289 231 284 q 237 317 231 296 l 249 322 l 248 350 l 275 358 q 264 378 264 372 q 276 403 264 387 q 290 435 289 420 l 265 436 q 241 432 262 436 q 207 421 221 429 q 191 433 202 433 l 167 428 l 147 435 l 103 431 l 92 425 q 69 440 81 432 l 69 456 l 65 464 l 74 464 q 126 478 115 478 l 155 471 l 180 473 l 225 468 l 258 473 l 282 469 l 309 475 l 314 524 l 347 590 l 347 635 l 371 647 l 378 701 q 394 730 394 728 q 431 757 395 733 l 452 736 l 408 629 l 393 603 l 382 562 l 361 513 l 346 507 l 350 497 l 343 468 l 355 464 l 375 468 l 392 467 q 401 463 396 463 q 406 465 402 463 q 415 468 410 467 q 435 458 429 463 q 456 467 441 467 q 473 461 468 467 l 564 469 l 570 524 l 603 590 l 603 635 l 627 647 l 633 701 q 650 730 649 728 q 686 757 650 733 l 707 736 l 692 692 l 664 629 l 648 603 l 637 562 l 616 513 l 602 507 l 606 497 l 599 468 l 618 465 l 629 468 q 637 463 632 468 l 660 461 l 682 463 l 701 456 l 722 463 q 734 456 724 454 q 765 460 750 460 q 783 457 770 460 q 803 454 795 455 q 819 461 806 457 q 846 458 829 458 l 857 441 m 546 439 l 542 439 l 534 435 q 501 432 528 432 l 475 439 q 441 435 469 439 q 411 431 414 431 l 390 436 l 349 425 l 330 431 l 325 412 q 306 380 322 403 l 302 329 l 294 319 q 281 282 290 315 l 267 272 l 265 257 l 248 237 l 257 229 l 253 225 l 265 228 l 296 212 l 315 218 l 330 215 q 342 212 338 212 q 355 216 347 212 q 375 207 366 215 q 395 215 379 215 q 414 210 408 215 l 467 215 l 468 225 l 478 243 q 486 273 484 253 l 490 273 q 486 292 486 282 q 493 317 486 298 l 504 322 l 503 350 l 530 358 q 518 380 518 373 q 532 404 518 387 q 546 439 545 420 z "},"$":{"ha":903,"x_min":-28,"x_max":822,"o":"m 822 231 l 815 225 l 806 186 q 733 155 760 155 l 728 155 q 709 149 721 155 q 693 143 698 143 l 664 143 l 639 126 l 632 131 l 604 121 q 562 110 578 121 q 546 82 546 98 q 551 55 546 77 q 555 12 555 33 q 551 -27 555 0 q 546 -68 546 -55 q 555 -98 546 -83 l 547 -102 l 553 -125 l 546 -143 l 553 -163 l 550 -178 l 553 -195 l 546 -214 q 555 -252 555 -232 l 555 -267 l 546 -273 l 558 -346 l 543 -353 l 538 -335 l 538 -319 l 533 -222 l 528 -182 l 530 -151 q 532 -132 532 -144 q 526 -114 532 -114 l 524 -115 l 528 -74 l 521 -36 l 533 -7 q 521 9 533 9 q 519 31 519 18 l 521 41 l 521 66 l 522 81 q 518 98 522 92 l 501 104 l 490 94 l 458 94 l 435 86 l 429 77 l 439 66 l 427 52 l 436 35 q 425 8 434 19 l 435 -18 l 425 -81 l 429 -106 l 422 -125 l 432 -143 l 425 -184 l 432 -222 l 425 -244 l 429 -261 q 439 -289 439 -273 l 436 -309 l 447 -328 q 435 -340 447 -340 q 426 -321 428 -340 q 419 -289 425 -302 l 413 -273 q 410 -240 410 -264 l 412 -212 l 412 -170 l 404 -146 l 400 -102 q 407 -85 407 -94 l 404 -71 l 403 -29 l 407 -4 l 400 31 l 400 79 l 380 77 q 359 72 368 72 l 351 74 q 339 70 347 74 q 325 65 331 65 q 306 72 321 65 l 292 65 l 260 69 l 212 58 l 157 66 l 140 65 l 134 72 l 118 69 l 92 72 l 79 66 l 69 79 l 41 79 l 17 94 l 4 92 l -5 104 l -9 104 q -28 131 -28 104 q -12 149 -28 146 l 29 155 l 31 164 l 79 158 l 102 164 q 106 157 106 161 q 92 136 106 150 l 41 129 l 35 119 q 55 106 37 111 q 81 97 73 100 q 110 104 97 104 l 123 104 q 146 97 139 104 l 225 92 q 252 97 238 97 l 260 97 q 302 107 273 107 l 315 107 l 359 109 l 404 119 l 403 147 l 407 289 l 400 296 l 400 319 q 380 330 389 330 l 375 329 q 358 330 366 330 l 343 330 q 318 339 338 330 l 286 330 l 281 336 l 236 353 l 225 364 l 197 371 q 172 396 189 383 l 164 456 q 184 503 164 478 l 186 503 q 192 505 189 503 q 200 511 195 507 q 212 522 204 515 q 227 531 220 529 q 241 534 234 533 l 281 551 l 309 553 l 336 564 l 355 564 l 368 574 l 370 583 l 387 586 l 412 583 l 412 593 l 404 607 q 414 681 410 647 l 404 703 l 419 729 l 414 749 l 414 787 l 408 821 l 408 839 q 418 840 412 840 q 422 836 422 840 q 415 872 415 850 q 439 895 415 895 q 476 868 461 895 l 464 847 l 479 833 q 454 811 454 827 l 454 808 l 457 771 l 447 745 l 454 736 l 452 714 l 458 700 l 458 681 l 447 668 l 452 637 l 439 611 q 461 587 447 587 q 471 590 464 587 l 524 611 l 518 640 l 524 663 l 518 704 l 524 725 l 521 753 l 524 786 l 515 825 l 530 831 l 530 865 l 533 890 l 532 900 l 572 904 l 585 888 l 578 869 l 581 836 l 568 818 l 570 796 l 559 783 l 570 757 q 557 736 557 749 q 572 690 557 730 q 555 650 555 677 q 576 612 555 612 l 629 624 l 681 629 l 707 618 l 724 618 l 750 611 l 786 579 l 782 570 q 739 551 754 551 q 724 553 729 551 q 708 579 708 568 q 692 574 696 577 l 684 586 l 647 581 l 614 583 l 607 574 l 587 583 l 575 581 l 574 581 q 562 554 568 581 q 557 511 555 527 q 559 482 559 495 l 559 472 q 557 450 559 463 q 554 433 554 437 q 562 406 554 420 l 553 382 l 555 361 l 550 334 l 585 325 q 612 329 599 325 q 630 309 627 311 q 637 307 633 307 q 648 317 645 307 l 661 311 l 679 314 l 681 307 l 708 307 l 725 294 l 743 298 l 758 286 l 787 282 l 790 275 l 819 240 l 822 231 m 525 551 q 520 564 526 553 q 503 574 514 574 q 484 564 495 574 q 451 556 455 560 q 447 549 447 553 l 447 543 l 449 509 l 439 458 l 449 393 q 435 358 435 369 l 435 354 q 439 347 435 351 l 458 349 l 482 342 l 501 347 l 521 347 l 521 371 l 524 410 l 521 440 l 524 463 l 518 492 l 524 519 l 521 530 l 525 551 m 412 441 l 403 460 l 410 503 l 407 549 l 401 550 q 382 539 391 550 l 375 542 l 363 534 q 325 526 358 530 l 318 517 l 292 517 q 264 504 279 506 l 257 490 l 244 490 q 203 456 209 466 q 197 428 197 446 q 202 410 197 420 q 209 397 206 399 q 244 393 212 396 l 254 386 l 267 387 l 281 374 l 325 364 l 347 370 l 355 364 q 407 361 374 364 l 404 432 l 412 441 m 525 147 l 525 165 l 515 178 l 518 196 l 514 215 l 521 231 l 525 281 l 518 285 l 521 309 l 498 307 l 490 314 q 473 309 479 312 q 439 319 463 310 l 435 292 l 439 275 l 440 220 l 432 178 l 429 142 q 435 126 429 132 l 458 125 q 489 134 475 130 l 525 147 m 781 232 q 765 258 772 244 l 750 254 l 721 267 l 703 267 l 686 285 l 653 285 l 644 294 l 612 292 l 587 302 l 570 302 l 566 304 q 553 281 553 290 l 558 241 q 550 208 550 232 l 550 197 q 554 157 553 162 q 562 147 556 152 q 607 164 590 164 q 659 179 636 169 q 686 189 682 189 q 693 186 690 189 q 756 203 743 199 q 775 220 770 208 l 781 232 z "},"%":{"ha":954,"x_min":56,"x_max":818,"o":"m 815 916 q 798 872 804 892 l 775 864 l 693 803 l 673 774 q 642 742 665 749 l 636 714 l 624 714 l 616 697 l 604 689 l 602 679 q 579 644 602 675 l 579 628 q 567 611 579 624 q 547 587 555 597 l 550 578 l 532 566 l 532 546 l 509 514 l 509 498 l 465 452 l 464 432 l 435 390 q 425 347 433 382 l 419 346 l 389 294 q 385 281 385 286 q 389 275 385 275 l 367 253 l 363 228 q 328 146 340 191 l 318 142 l 314 115 l 288 49 l 288 32 l 268 12 l 269 -7 l 243 -66 l 243 -89 l 236 -102 q 225 -125 233 -113 l 228 -144 l 224 -155 q 221 -174 221 -167 q 224 -187 221 -179 q 231 -214 231 -199 l 224 -235 l 227 -245 l 220 -254 l 241 -302 l 239 -321 q 256 -355 247 -328 l 278 -374 q 296 -396 282 -390 l 340 -415 l 357 -412 q 370 -422 357 -422 l 376 -428 l 389 -422 q 401 -425 395 -425 l 441 -424 l 457 -427 q 480 -421 471 -427 q 518 -410 490 -415 q 533 -416 527 -416 q 547 -410 538 -416 l 545 -422 l 521 -437 l 475 -437 l 465 -441 l 435 -444 q 386 -454 395 -456 l 307 -433 q 252 -401 276 -414 l 248 -385 l 224 -361 l 221 -346 l 207 -334 q 189 -289 197 -298 l 191 -232 l 186 -205 l 195 -187 l 186 -175 q 207 -86 197 -100 q 216 -45 216 -72 l 216 -36 q 230 -9 222 -30 l 236 9 l 264 69 q 268 85 268 78 l 267 98 l 268 104 l 269 104 q 288 165 277 104 l 309 187 l 304 201 q 336 262 327 238 l 343 264 l 372 323 l 392 370 q 421 406 417 392 l 433 447 q 446 479 445 467 l 473 509 l 486 558 q 522 608 502 564 q 562 676 541 651 q 554 697 562 684 q 570 709 560 698 q 589 724 579 721 q 616 771 593 739 q 619 779 619 777 q 608 793 619 787 l 579 781 q 547 753 559 759 q 530 765 539 761 q 500 760 507 763 q 482 747 486 747 q 477 749 481 747 q 469 751 473 751 q 452 747 469 751 q 429 743 436 742 l 385 751 l 375 746 q 350 733 350 742 q 353 723 350 730 q 386 692 356 716 l 385 679 q 396 661 396 671 q 392 644 396 653 q 399 623 399 632 q 386 564 399 599 l 369 551 q 343 519 361 545 l 328 514 l 318 490 l 278 479 l 265 467 l 153 457 l 126 464 l 90 494 q 60 533 76 517 l 64 555 l 56 566 l 56 583 q 74 628 74 625 l 74 650 q 90 708 84 669 q 113 726 113 716 q 110 736 113 730 q 139 773 132 752 q 152 796 146 794 q 174 822 157 798 l 167 838 l 191 844 q 211 852 203 852 q 216 851 214 852 l 286 822 q 314 783 298 783 l 340 796 l 376 787 l 424 787 l 458 781 l 491 786 q 527 791 524 792 q 555 803 530 790 q 583 815 580 815 l 590 815 q 614 828 612 815 l 627 825 q 671 863 671 839 l 696 872 l 688 882 q 698 888 690 884 q 762 939 735 908 q 775 949 768 949 q 799 942 794 949 l 815 916 m 335 558 q 363 632 363 574 q 347 657 363 650 q 350 669 350 661 q 338 695 350 680 q 316 728 327 710 q 290 748 304 746 q 261 765 276 751 q 216 760 245 760 q 202 767 207 760 q 195 775 198 775 q 167 739 173 775 l 154 733 l 140 701 l 136 681 q 109 628 120 656 l 113 618 l 97 593 l 103 574 l 97 553 l 114 514 q 167 489 144 488 l 211 490 l 236 485 q 261 500 247 485 q 281 519 276 515 l 309 519 q 335 558 317 524 m 817 248 l 815 208 l 818 193 q 814 175 818 183 q 811 165 811 167 q 813 157 811 163 q 815 146 815 151 q 804 123 815 132 q 807 113 807 116 q 802 95 807 104 q 788 75 797 85 q 770 47 779 64 q 747 24 747 29 l 747 22 q 734 9 743 12 q 713 -7 724 6 l 688 -20 q 633 -52 646 -52 l 621 -49 l 590 -57 l 550 -52 l 505 -22 l 493 25 l 493 58 l 488 77 l 493 89 l 490 107 q 504 142 497 124 q 518 189 510 161 q 535 233 526 218 q 557 272 545 248 q 572 302 569 296 q 578 312 575 308 q 597 323 581 316 l 597 346 l 611 347 q 644 364 616 347 l 675 364 l 699 357 q 737 351 710 353 l 741 340 q 761 325 743 336 q 786 301 779 314 l 817 248 m 786 208 l 775 257 l 757 286 l 741 294 q 713 311 733 311 l 696 309 l 684 313 q 653 309 669 313 l 648 292 q 620 289 631 292 q 609 281 610 286 l 604 260 l 595 253 l 590 232 l 562 203 l 557 174 q 544 161 544 163 q 541 142 543 159 q 532 121 539 125 l 532 115 l 533 100 q 528 86 533 92 q 582 -24 531 -24 q 621 -17 595 -24 q 643 -7 640 -7 l 652 -7 l 729 52 q 741 68 731 61 q 750 79 750 76 l 751 79 q 764 95 755 79 l 772 111 l 782 168 l 782 180 l 786 208 z "},"&":{"ha":812,"x_min":0,"x_max":743,"o":"m 743 623 q 733 610 741 615 l 714 615 l 697 615 l 692 640 l 667 642 l 663 669 q 642 686 655 670 l 629 689 l 625 697 l 571 704 l 543 701 l 519 704 l 497 701 l 486 708 l 475 699 l 460 701 q 444 696 456 701 q 403 689 431 692 l 364 669 l 342 655 q 319 650 339 653 l 307 632 l 281 621 q 279 603 281 606 l 264 606 l 264 596 l 244 571 l 253 533 q 249 514 249 523 q 260 490 249 498 l 311 452 l 358 444 q 400 435 374 444 l 412 441 l 425 440 l 440 447 l 450 444 l 479 447 l 489 444 q 514 451 495 444 l 530 457 q 546 444 542 457 l 566 441 l 576 434 q 600 428 581 431 q 566 400 583 400 l 511 400 q 498 390 504 397 l 486 399 l 475 396 l 460 400 l 393 396 l 386 387 l 370 387 l 364 383 l 339 383 l 321 374 l 298 370 l 269 347 l 228 339 l 157 286 q 143 253 145 278 q 129 222 142 227 l 146 170 l 170 151 l 222 143 l 231 134 q 257 140 247 140 q 275 133 264 140 q 296 125 286 125 q 317 134 304 134 l 329 134 l 343 123 l 364 123 l 375 134 l 390 131 l 403 136 l 415 129 q 439 140 420 136 l 457 146 l 458 146 q 467 143 460 146 q 479 140 473 140 q 498 147 490 140 q 546 162 526 157 q 574 178 566 166 l 628 197 q 667 222 663 222 l 663 272 l 679 267 l 694 272 l 700 272 q 714 266 706 272 q 739 218 722 260 l 721 187 l 730 165 l 726 153 l 729 129 l 726 115 l 729 102 l 718 77 q 739 32 718 66 l 726 22 l 729 -9 l 720 -22 l 724 -40 l 720 -64 l 724 -87 q 714 -123 724 -108 q 710 -154 714 -139 q 705 -172 705 -168 q 707 -183 705 -179 q 685 -208 703 -190 l 686 -225 l 642 -281 q 610 -307 623 -298 q 557 -330 567 -323 l 524 -325 l 514 -330 l 497 -325 l 486 -330 l 482 -323 l 463 -329 l 435 -317 l 425 -321 l 410 -313 l 380 -311 l 336 -302 l 314 -304 l 286 -293 l 267 -277 l 192 -257 q 136 -240 171 -242 l 125 -228 l 107 -222 l 104 -212 l 81 -210 l 77 -197 l 40 -183 q 8 -153 19 -159 l 8 -135 l 0 -115 q 49 -90 44 -90 q 64 -100 64 -90 q 22 -135 64 -104 q 41 -153 24 -147 l 47 -165 l 62 -165 l 66 -178 l 89 -187 l 104 -197 l 157 -214 l 164 -228 q 175 -233 165 -233 q 203 -228 177 -233 l 214 -236 l 236 -236 l 253 -250 l 269 -250 l 307 -264 q 314 -267 309 -264 q 322 -269 319 -269 l 330 -267 q 368 -276 351 -267 q 387 -285 385 -285 q 399 -278 394 -285 q 450 -296 436 -284 l 475 -294 l 479 -286 q 509 -296 494 -296 q 533 -286 520 -296 l 558 -286 q 586 -272 570 -275 l 600 -258 q 612 -236 607 -252 l 635 -228 l 635 -214 l 652 -191 l 650 -170 l 667 -147 l 663 -139 q 677 -100 673 -128 q 682 -64 682 -73 l 672 -41 l 679 41 l 676 58 q 675 87 676 84 l 660 119 l 672 146 q 664 160 672 154 q 648 167 656 167 q 635 157 642 167 l 618 155 q 590 131 608 143 l 561 129 l 501 119 l 490 109 l 481 109 q 412 93 443 109 l 400 98 l 383 89 l 378 97 l 329 85 q 281 93 296 86 l 275 89 l 264 97 l 262 92 l 240 109 l 210 102 q 196 109 199 102 q 120 157 146 126 q 93 208 93 189 l 93 225 l 86 235 l 89 243 l 86 264 l 134 309 q 140 317 134 309 q 155 329 145 326 q 163 344 155 335 q 191 353 171 353 l 197 366 l 212 366 l 214 374 l 244 380 q 302 419 271 380 l 269 454 l 253 454 l 228 467 l 225 482 q 212 500 217 483 q 197 526 208 517 q 208 536 205 526 l 197 539 l 197 558 l 196 575 q 204 593 196 576 q 218 610 212 610 l 220 610 l 220 612 q 240 628 220 628 l 250 657 l 294 679 q 338 694 325 694 l 342 694 q 370 710 345 701 l 425 729 l 475 742 l 482 746 l 542 749 q 553 751 549 751 q 567 746 560 751 q 582 741 574 741 q 593 746 587 741 l 609 738 q 627 732 618 733 l 653 730 l 664 714 l 692 701 l 713 674 q 739 657 717 669 l 736 650 l 743 623 z "},"'":{"ha":278,"x_min":97,"x_max":176,"o":"m 176 629 l 171 608 q 160 567 160 585 l 164 547 q 158 530 164 547 q 153 488 153 513 l 155 468 l 147 431 l 138 429 l 125 437 l 127 471 q 125 490 127 476 q 118 509 118 502 l 118 513 q 121 522 121 515 l 119 530 q 121 536 119 535 l 115 545 l 119 549 l 114 559 l 118 572 l 109 583 l 114 595 l 104 604 l 106 616 l 103 629 l 107 639 l 103 647 l 106 653 l 97 664 l 97 682 q 109 703 106 699 l 131 708 q 146 713 142 713 q 172 689 160 713 l 167 664 l 174 650 l 176 629 z "},"(":{"ha":555,"x_min":244,"x_max":525,"o":"m 525 924 q 517 904 525 910 q 500 888 509 897 q 476 867 492 880 q 461 847 475 853 q 422 800 437 833 l 416 803 l 414 778 q 378 729 385 751 q 363 695 372 707 q 355 679 355 683 l 358 671 l 343 647 l 342 623 l 323 587 l 323 570 q 300 429 300 498 q 302 395 300 412 l 296 380 l 301 368 l 296 355 l 301 336 l 296 298 l 309 260 l 329 146 q 338 140 331 140 q 335 121 335 132 q 342 105 335 112 q 350 93 350 98 q 347 86 350 92 l 359 54 l 373 40 q 383 25 380 32 l 390 4 q 397 -9 393 -5 l 403 -16 l 419 -60 l 436 -60 l 436 -65 q 449 -98 436 -84 l 486 -143 l 486 -158 q 439 -187 477 -178 l 427 -183 l 422 -171 l 412 -161 l 378 -111 l 351 -60 l 329 -28 l 334 -16 l 313 29 l 311 41 l 302 47 q 291 83 304 52 q 274 140 277 113 q 264 178 271 166 q 265 205 265 190 q 257 220 265 211 l 253 267 l 253 302 l 248 334 l 253 347 l 245 363 q 249 391 245 368 q 253 419 253 414 l 244 452 l 253 468 l 260 525 l 267 525 l 273 568 l 283 614 l 293 640 l 313 671 q 324 716 319 703 q 333 734 329 729 l 341 747 q 363 761 346 753 q 444 863 380 827 l 447 875 l 464 880 q 493 920 485 904 l 518 930 l 525 929 l 525 924 z "},")":{"ha":555,"x_min":66,"x_max":347,"o":"m 347 292 l 339 275 l 334 220 l 325 220 l 319 176 l 309 131 l 298 104 l 279 74 q 266 23 271 35 q 248 -8 261 12 l 231 -17 q 147 -118 212 -85 l 146 -129 q 98 -174 121 -136 l 74 -186 l 66 -184 l 66 -180 q 78 -157 66 -168 q 115 -122 89 -145 q 134 -100 117 -109 q 170 -56 151 -90 l 175 -57 l 178 -33 q 213 14 204 -9 q 229 50 221 37 q 236 65 236 62 l 235 74 l 250 97 l 252 122 l 269 157 l 269 174 q 293 318 293 258 q 289 350 293 336 l 296 364 l 292 376 l 296 389 l 292 408 l 296 446 l 285 486 l 262 599 q 254 604 260 604 q 258 621 258 614 q 241 650 258 627 l 244 659 l 232 690 l 213 712 q 208 726 212 713 l 203 741 q 196 754 203 751 l 191 760 l 174 804 l 155 804 l 155 810 q 143 843 155 827 l 107 888 l 107 903 q 153 932 116 924 l 165 928 l 170 916 l 180 905 l 214 856 l 240 804 l 262 772 l 260 760 l 279 715 l 281 703 l 289 697 q 300 664 289 688 q 316 609 311 640 q 329 567 320 579 l 326 543 q 336 525 326 532 l 339 478 l 339 441 l 346 411 l 339 397 l 346 386 l 346 382 q 342 354 346 378 q 339 325 338 330 l 347 292 z "},"*":{"ha":739,"x_min":62,"x_max":677,"o":"m 677 476 l 648 482 l 636 490 l 612 497 q 553 521 570 517 l 550 526 l 521 533 l 433 583 l 392 602 q 367 607 386 606 l 359 618 l 340 610 q 338 587 338 596 q 343 553 338 576 l 336 542 l 343 526 l 338 514 q 342 490 342 503 q 340 476 342 481 q 347 457 347 468 l 347 419 l 354 380 q 340 368 354 368 q 333 373 337 368 q 328 380 328 378 l 318 447 l 313 501 l 315 528 l 312 561 q 293 602 309 602 q 281 596 286 602 l 253 574 l 227 558 l 216 542 l 195 525 q 160 489 184 517 q 146 486 147 486 q 135 472 146 485 q 87 425 120 447 q 81 439 81 428 q 106 471 81 453 l 110 485 l 153 511 q 176 526 163 524 q 186 549 182 543 q 203 563 190 554 q 222 577 217 571 q 243 593 228 584 l 243 600 l 269 612 l 275 632 q 249 663 262 659 q 192 654 224 656 l 170 653 q 122 642 160 653 l 100 647 q 74 637 77 637 q 62 647 62 637 q 74 672 62 652 l 93 672 l 106 676 l 135 675 l 142 667 l 167 676 l 182 676 l 207 686 q 225 684 222 684 q 236 692 234 684 l 203 721 l 189 726 l 184 742 l 147 760 l 147 771 l 142 783 l 160 793 l 174 790 q 195 774 175 783 l 225 751 l 273 711 l 286 694 q 310 717 310 699 l 307 732 q 304 760 304 749 l 306 775 q 296 808 306 791 q 311 832 300 821 q 300 867 300 857 q 303 887 300 871 q 315 904 307 904 l 322 903 l 338 903 q 358 864 343 899 l 350 835 l 351 812 l 347 808 l 347 793 l 345 781 l 350 746 l 343 726 l 347 717 l 347 704 l 364 694 l 372 708 l 382 711 l 386 729 q 406 741 389 731 q 431 779 423 751 q 467 790 451 790 l 471 790 q 484 806 471 806 l 486 806 q 498 819 486 819 q 528 808 503 819 q 505 783 528 806 l 468 746 l 452 739 q 400 692 435 730 l 425 692 l 443 697 l 453 692 q 476 696 463 696 q 504 692 490 696 l 521 697 l 568 697 l 576 694 l 585 701 l 612 701 l 629 707 l 653 699 l 654 694 q 636 689 654 689 l 625 689 q 595 686 614 689 l 581 684 l 532 682 l 521 676 l 436 676 l 425 669 q 382 664 421 667 q 375 652 375 659 q 389 629 375 641 l 389 625 l 436 603 l 457 587 l 473 583 q 568 539 537 539 l 574 539 q 630 503 574 527 q 653 489 651 494 q 677 476 671 489 z "},"+":{"ha":1157,"x_min":172,"x_max":985,"o":"m 985 387 l 606 387 l 606 0 l 551 0 l 551 387 l 172 387 l 172 441 l 551 441 l 551 828 l 606 828 l 606 441 l 985 441 l 985 387 z "},",":{"ha":346,"x_min":1,"x_max":231,"o":"m 231 78 l 218 54 l 199 43 l 189 26 l 168 5 l 161 -7 l 139 -22 l 93 -77 l 64 -93 q 32 -134 56 -126 q 14 -170 22 -165 l 1 -171 q 4 -142 3 -149 l 9 -135 q 31 -103 12 -112 q 37 -93 31 -102 q 47 -71 43 -84 l 49 -75 q 54 -66 54 -71 l 54 -62 l 65 -52 l 64 -40 q 81 -24 73 -37 q 104 1 90 -4 l 104 11 l 114 14 q 129 68 114 54 l 139 64 l 136 86 l 142 109 q 174 134 148 134 q 212 115 200 134 l 228 111 l 231 78 z "},"-":{"ha":473,"x_min":56,"x_max":418,"o":"m 418 292 l 403 272 l 376 278 l 319 264 l 275 271 l 269 265 l 245 264 l 225 267 l 196 260 l 186 264 l 143 256 q 123 262 132 262 q 97 253 114 262 l 81 258 l 69 258 l 56 289 l 56 310 l 65 311 l 71 325 l 85 314 l 97 313 l 114 323 q 127 315 121 322 q 140 314 132 314 q 155 322 154 314 l 179 315 l 200 317 q 196 310 196 313 q 201 304 196 304 q 208 307 203 304 l 212 314 l 225 310 l 248 313 q 254 314 250 314 q 268 307 261 314 l 289 302 l 302 309 q 328 301 317 301 q 357 309 341 301 l 371 301 l 400 301 q 418 292 411 301 z "},".":{"ha":346,"x_min":111,"x_max":225,"o":"m 225 53 l 221 49 l 224 33 l 216 29 l 216 18 q 191 -5 209 17 q 154 -12 172 -7 q 147 -6 149 -12 q 140 0 144 0 l 136 0 q 134 5 136 5 q 129 3 132 5 l 126 8 l 121 9 l 122 17 l 117 22 l 121 31 l 111 33 l 111 69 q 128 86 111 77 q 147 104 144 96 l 153 109 q 175 101 166 102 q 194 91 184 100 q 216 75 203 81 l 225 53 z "},"/":{"ha":574,"x_min":-12,"x_max":559,"o":"m 557 796 q 559 777 559 789 q 541 752 559 771 q 509 708 522 732 l 486 668 l 447 616 l 439 591 q 403 541 422 572 q 396 534 402 537 q 387 527 391 530 q 380 517 383 524 l 375 503 l 318 431 l 311 408 l 286 372 l 235 306 l 229 290 l 229 268 l 208 265 l 204 253 l 170 208 l 164 191 l 153 186 l 121 136 l 121 121 l 97 97 l 92 86 q 64 43 67 55 l 43 33 l 47 24 l 31 11 l 35 -3 l 26 -20 q 9 -37 22 -28 q -3 -60 7 -60 q -12 -53 -8 -60 l -3 -28 l 29 24 q 40 50 31 45 q 50 56 50 55 l 74 87 q 86 114 75 112 l 93 110 l 106 153 l 127 167 l 127 179 q 157 227 153 211 l 164 231 q 186 275 176 260 l 186 296 l 200 322 l 212 322 l 220 345 l 241 364 l 241 379 l 260 386 l 262 410 l 275 414 l 296 440 l 297 453 q 309 478 297 458 l 323 491 q 343 521 329 497 q 368 550 364 523 q 382 586 371 577 q 408 618 408 592 q 407 629 408 625 l 439 664 l 435 681 l 449 686 l 449 700 l 461 722 l 461 754 q 478 768 478 762 q 473 775 478 771 l 490 785 l 493 807 l 526 810 q 557 796 540 799 z "},":":{"ha":346,"x_min":111,"x_max":231,"o":"m 231 452 q 184 386 231 429 l 150 386 q 125 400 138 399 l 121 414 l 113 419 l 111 439 q 126 473 111 440 l 136 473 l 142 484 l 142 489 l 157 484 l 168 485 l 167 490 q 183 494 178 494 l 199 490 l 208 471 l 231 452 m 231 41 l 222 20 q 197 4 210 15 q 174 -7 184 -7 l 171 -7 q 157 -12 168 -7 q 131 8 149 -2 q 113 24 113 19 q 115 25 113 25 l 118 57 l 126 66 l 125 78 q 160 109 124 83 q 197 102 174 104 l 212 81 l 222 77 l 222 66 l 229 62 l 227 47 l 231 41 z "},";":{"ha":346,"x_min":1,"x_max":250,"o":"m 250 460 q 244 452 244 456 q 248 437 244 450 q 231 411 248 420 q 197 387 215 401 l 174 390 l 165 383 l 153 396 l 143 395 q 136 410 143 406 q 118 427 118 416 l 125 437 l 131 440 l 123 457 l 123 475 l 131 469 l 134 492 l 153 498 l 153 511 q 172 501 163 501 q 196 507 185 501 q 205 497 201 497 q 210 498 208 497 q 250 460 248 469 m 231 78 l 218 54 l 199 43 l 189 26 l 168 5 l 161 -7 l 139 -22 l 93 -77 l 64 -94 q 55 -117 60 -108 q 44 -128 50 -126 q 32 -134 38 -130 q 14 -170 22 -165 l 1 -171 q 4 -142 3 -149 l 9 -135 q 31 -103 9 -113 q 37 -93 31 -102 q 47 -71 43 -84 l 49 -75 q 54 -66 54 -71 l 54 -62 l 65 -52 l 64 -40 q 84 -14 80 -33 q 104 1 85 -11 l 104 11 l 114 14 q 129 68 114 54 l 139 64 l 136 86 l 141 107 q 151 126 143 119 q 174 134 159 134 q 212 115 200 134 l 228 111 l 231 78 z "},"<":{"ha":1157,"x_min":179,"x_max":978,"o":"m 978 66 l 179 393 l 179 435 l 978 762 l 978 701 l 269 414 l 978 126 l 978 66 z "},"=":{"ha":1157,"x_min":172,"x_max":985,"o":"m 985 510 l 172 510 l 172 564 l 985 564 l 985 510 m 985 264 l 172 264 l 172 318 l 985 318 l 985 264 z "},">":{"ha":1157,"x_min":179,"x_max":978,"o":"m 978 393 l 179 66 l 179 126 l 888 414 l 179 701 l 179 762 l 978 435 l 978 393 z "},"?":{"ha":519,"x_min":69,"x_max":432,"o":"m 432 593 l 422 564 l 431 551 l 422 543 l 425 529 q 402 507 413 519 q 385 487 392 495 q 370 464 378 479 l 366 464 q 330 431 330 435 l 313 419 l 313 412 l 294 408 q 289 396 289 403 q 292 386 289 394 l 267 380 l 267 370 l 253 361 l 254 353 l 228 330 q 203 277 218 305 q 212 220 209 251 l 235 203 q 257 196 252 200 q 261 183 261 192 l 260 175 l 260 170 l 243 172 q 227 178 233 174 l 210 191 l 196 208 q 183 225 183 216 q 186 235 183 227 l 165 240 l 165 244 l 174 269 l 161 285 l 174 286 l 164 298 l 165 323 q 180 334 174 327 q 187 342 185 342 q 208 378 205 357 l 214 378 l 225 399 l 236 403 q 253 421 241 412 q 264 435 264 430 l 264 437 l 277 440 l 292 463 q 319 476 319 467 q 318 479 319 477 q 317 482 317 481 l 336 494 l 336 504 l 353 514 l 355 530 q 383 549 376 535 q 375 597 381 587 l 380 615 q 358 654 378 615 l 346 653 l 339 657 l 336 667 q 307 694 315 686 l 296 686 l 297 693 q 281 707 297 707 l 272 701 l 235 707 l 231 699 q 214 701 217 701 q 191 696 212 701 q 168 692 170 692 l 142 692 l 89 676 q 82 673 84 673 q 69 682 76 673 q 121 707 92 705 q 131 715 131 709 q 129 720 131 718 l 146 724 l 161 742 l 175 742 q 205 755 191 752 l 231 746 l 243 753 q 272 742 260 751 l 275 749 q 294 741 286 741 q 302 742 300 741 l 321 736 q 329 724 323 730 q 338 726 334 726 q 386 675 347 726 q 415 629 409 634 l 418 610 l 432 593 m 264 11 l 260 -1 l 218 -12 l 186 0 l 180 14 l 174 11 l 180 25 l 176 54 l 182 54 l 184 65 q 208 58 207 59 l 214 60 q 253 37 222 58 l 264 11 z "},"@":{"ha":951,"x_min":53,"x_max":918,"o":"m 918 494 l 914 471 l 914 465 q 916 453 914 461 q 918 441 918 445 q 913 408 918 422 l 905 392 l 907 371 q 878 336 882 349 q 872 307 875 322 q 867 285 869 292 l 840 260 q 807 213 835 231 q 760 163 779 195 l 736 167 q 713 143 724 150 q 660 127 702 137 l 650 136 l 631 135 l 627 126 l 619 126 l 612 122 l 607 126 l 602 122 l 578 142 l 581 161 l 574 168 l 578 197 l 578 258 l 585 281 l 578 290 l 586 296 l 582 304 l 585 313 l 590 317 l 590 328 l 595 328 l 597 358 l 604 359 l 600 366 l 585 359 q 570 343 578 348 l 568 334 l 557 328 l 554 314 l 547 309 l 546 302 q 532 286 537 296 l 524 282 l 509 256 l 484 232 l 459 205 q 447 187 452 199 l 416 168 l 383 131 q 357 118 368 127 q 343 134 347 121 q 310 175 310 149 l 317 178 l 313 197 l 313 215 l 309 221 l 314 228 l 318 254 l 329 290 l 329 296 l 332 309 l 330 315 q 334 328 330 317 l 339 329 q 347 346 347 338 q 343 359 347 353 l 347 364 q 342 370 342 364 q 353 375 342 375 q 367 408 353 389 l 359 410 l 375 429 l 375 433 q 397 467 375 456 l 397 484 l 401 486 q 399 494 399 493 q 403 498 399 498 l 406 498 l 407 514 q 411 521 411 515 l 411 525 q 427 543 416 531 q 441 559 438 554 l 446 559 q 454 564 454 559 q 452 568 454 566 q 473 575 474 570 l 490 583 l 534 585 l 534 582 l 575 572 l 579 572 q 587 564 587 572 l 591 566 q 606 559 592 559 l 614 550 l 633 546 l 633 536 q 669 551 648 547 l 668 536 l 672 532 l 669 529 l 675 504 l 665 494 q 652 460 657 468 l 654 447 q 643 425 643 436 q 646 411 643 422 l 642 406 l 643 399 l 639 389 l 640 380 l 633 372 l 633 351 l 631 349 l 633 345 l 631 343 l 631 340 q 628 329 631 337 l 631 323 q 619 301 623 315 l 623 289 l 611 277 q 619 265 614 271 q 606 227 612 254 l 612 225 l 611 220 l 611 215 q 603 195 611 207 l 608 195 l 611 178 l 631 178 l 635 164 q 671 174 656 168 l 681 163 l 693 172 l 701 172 q 728 195 722 172 l 741 195 l 745 205 q 755 203 753 203 q 772 216 768 203 q 795 248 788 220 q 823 278 803 276 q 842 307 827 304 q 839 323 839 317 q 854 354 839 345 q 863 367 860 360 q 865 379 865 374 q 875 407 865 385 l 867 419 l 867 439 q 863 443 863 439 q 875 461 863 449 l 878 498 l 861 513 l 873 543 l 852 559 l 846 615 l 828 612 l 806 652 l 791 654 l 772 681 l 758 675 l 743 686 l 732 686 l 722 697 l 708 700 l 689 720 l 665 718 l 639 737 l 636 730 q 608 733 627 733 q 585 730 593 733 q 555 728 559 728 q 542 731 550 728 q 532 734 534 734 q 519 729 527 734 l 503 717 q 488 715 501 715 q 458 720 473 715 q 440 712 449 716 q 421 704 431 708 l 399 693 q 382 683 385 686 l 375 672 l 351 671 l 340 663 q 309 635 317 659 l 297 636 q 250 596 286 615 l 241 567 l 229 571 q 202 526 205 544 q 179 505 199 507 l 178 497 l 161 490 q 165 471 165 478 q 144 446 165 458 l 144 427 q 138 405 143 415 l 126 378 l 96 294 q 102 278 102 287 q 97 264 102 272 l 104 253 q 98 221 98 241 l 107 183 l 104 155 l 114 138 q 122 103 118 131 l 129 106 q 140 74 140 78 l 139 61 l 149 52 l 175 14 l 195 7 l 200 -3 l 208 -5 q 262 -40 228 -40 l 273 -50 l 290 -47 l 302 -60 l 319 -60 l 339 -75 l 346 -69 l 368 -77 l 380 -72 q 390 -69 386 -69 q 418 -80 395 -69 q 453 -92 441 -92 q 514 -79 467 -92 q 532 -82 519 -82 q 558 -75 546 -82 l 582 -68 l 606 -66 l 632 -50 q 726 -14 682 -42 l 735 -6 q 770 11 739 -3 l 800 4 l 808 4 q 829 -22 829 4 q 823 -33 829 -25 q 806 -43 817 -41 l 802 -47 q 767 -66 787 -49 q 732 -83 747 -83 l 724 -82 q 661 -109 718 -82 q 652 -107 659 -107 q 628 -115 640 -107 l 603 -122 l 561 -129 q 541 -132 547 -132 q 519 -128 532 -132 l 509 -125 l 467 -125 q 439 -117 456 -117 l 421 -119 q 401 -118 410 -119 q 371 -111 392 -118 l 360 -105 q 339 -102 355 -103 q 330 -97 336 -98 q 313 -95 325 -96 q 296 -90 302 -94 l 281 -82 q 267 -83 275 -83 q 242 -73 249 -83 q 229 -62 236 -62 l 221 -65 l 208 -65 l 203 -45 l 171 -31 l 161 -12 l 138 -3 l 131 17 l 126 17 q 96 58 112 33 l 90 86 q 79 103 89 92 l 77 118 l 66 123 l 68 135 l 62 150 l 64 164 q 65 174 65 167 q 58 200 65 184 l 53 227 l 58 268 l 57 286 q 72 326 72 312 l 69 339 l 79 355 l 82 390 l 114 457 l 135 517 l 160 539 l 186 578 l 216 611 q 240 640 224 619 q 266 669 256 660 q 301 689 276 677 l 345 708 q 404 746 393 746 l 421 746 l 432 756 q 446 765 439 762 l 465 771 q 476 762 469 762 q 488 769 479 762 q 510 777 498 777 l 517 777 l 529 770 l 538 786 q 590 772 568 781 l 602 782 q 624 778 616 778 q 636 782 632 778 q 653 772 646 780 q 681 765 669 772 l 705 757 q 750 743 734 753 q 778 727 766 733 q 802 708 790 722 q 819 695 807 698 q 833 690 830 693 q 854 654 836 688 l 872 647 l 876 623 l 888 612 q 899 598 896 606 l 907 578 l 900 566 l 911 545 q 904 530 904 535 l 905 509 l 918 494 m 612 456 q 607 490 611 486 l 595 497 q 564 521 569 521 l 557 519 l 553 525 l 539 525 l 536 529 l 525 526 l 521 529 l 514 529 q 489 522 499 528 l 468 510 q 457 505 465 508 l 456 500 q 410 432 444 495 l 415 429 l 404 419 l 407 411 q 396 380 396 398 l 389 372 l 387 355 q 380 340 381 349 l 376 338 l 375 321 l 371 317 q 364 293 370 310 l 368 282 q 355 272 360 277 l 359 267 l 353 258 l 358 240 l 349 231 l 349 211 l 345 200 l 350 199 l 350 191 l 357 189 l 363 182 l 382 187 q 401 200 388 198 l 401 207 l 415 211 q 421 220 415 215 q 447 245 427 224 l 443 245 q 468 262 460 260 l 476 279 q 496 296 486 281 l 501 296 l 511 309 l 510 315 l 517 317 l 517 319 q 522 329 517 321 q 533 345 522 331 l 538 343 q 547 359 538 352 q 562 375 547 364 l 568 375 l 570 383 q 572 386 572 383 q 570 393 572 387 l 589 411 l 590 421 l 599 424 l 597 435 q 604 449 602 439 l 612 456 z "},"A":{"ha":978,"x_min":-28,"x_max":933,"o":"m 933 343 q 924 329 933 333 l 901 336 l 876 317 l 847 321 q 808 309 829 309 q 787 301 792 309 q 755 309 770 309 q 737 298 741 309 q 747 286 740 292 l 743 272 l 747 225 l 765 199 l 768 174 l 799 129 l 794 109 l 815 89 l 847 35 q 876 -7 872 5 l 901 -20 l 911 -41 l 921 -49 l 903 -62 l 880 -45 l 867 -45 l 848 -31 l 835 -31 l 822 -7 l 808 0 q 772 52 792 33 l 772 65 l 760 77 l 758 98 l 737 121 l 708 191 l 699 203 l 694 237 q 676 269 693 243 l 676 298 l 660 298 l 642 286 l 614 292 l 595 279 l 587 286 l 572 277 l 568 286 q 554 282 565 286 q 532 278 544 278 l 514 279 l 490 279 l 467 264 l 441 269 l 407 267 l 407 260 l 395 267 l 378 257 l 366 267 l 343 267 l 321 257 l 302 277 l 293 269 l 273 277 q 210 205 250 267 l 187 200 q 127 114 132 115 l 115 107 l 77 57 l 69 57 l 36 3 l 0 -20 l -28 -12 l -22 0 l -22 20 l -12 32 l -17 41 l 8 45 l 25 54 q 53 89 47 64 q 86 121 81 96 q 131 183 119 140 l 150 191 l 195 260 l 195 279 q 180 300 185 287 l 207 323 l 207 334 l 239 330 l 257 342 l 261 336 l 279 361 q 273 367 273 362 q 293 383 273 370 l 298 375 q 313 415 300 392 l 309 418 l 325 419 l 330 437 q 347 452 347 439 l 347 468 q 380 521 380 496 l 380 524 l 399 526 l 403 546 l 412 549 l 427 578 l 436 571 l 429 586 q 452 612 450 588 l 461 607 l 461 635 l 471 635 l 471 654 q 486 668 473 657 q 503 699 499 680 l 518 714 l 509 736 q 545 761 528 761 l 547 761 l 555 774 l 565 760 q 577 751 568 755 l 600 739 l 603 704 q 621 676 612 696 l 632 672 l 635 642 l 646 600 l 664 568 l 676 524 l 679 494 l 699 468 l 693 457 l 708 440 l 708 419 l 711 400 q 705 386 711 395 q 754 336 726 336 l 781 342 l 812 342 q 838 338 827 338 q 865 346 855 338 q 878 354 875 354 q 903 342 882 354 l 933 343 m 669 378 q 647 408 661 401 l 654 428 l 636 437 l 631 490 l 614 517 l 611 539 l 602 558 l 602 566 l 597 566 l 595 595 q 587 610 595 600 l 578 625 q 567 635 575 629 q 541 650 558 642 l 525 642 l 515 625 l 482 578 l 474 562 q 441 526 471 555 l 436 504 l 407 489 q 366 428 397 436 l 353 386 l 325 375 l 325 361 l 321 343 q 355 329 345 336 l 372 330 l 400 323 q 412 321 408 321 q 432 323 418 321 q 437 325 433 325 q 448 322 439 325 q 464 319 456 319 l 482 323 l 536 328 l 581 334 q 635 328 623 328 q 667 342 667 328 q 654 366 667 351 l 669 378 z "},"B":{"ha":920,"x_min":-28,"x_max":876,"o":"m 876 225 l 868 203 l 872 191 q 847 151 856 169 l 832 147 l 818 131 l 787 117 q 774 106 781 114 l 758 86 l 725 98 q 694 65 713 99 l 675 74 l 642 62 l 635 65 q 597 43 616 51 q 564 35 579 36 q 547 33 548 34 q 524 14 545 33 l 511 22 l 497 12 l 471 20 q 441 8 457 8 l 408 12 l 396 -7 l 375 3 l 368 3 q 363 1 367 1 q 354 3 359 1 q 346 4 349 4 q 321 -9 337 4 q 307 -14 319 -14 q 277 -9 295 -14 l 257 -32 l 236 -24 l 236 -18 q 231 -7 236 -10 q 218 -12 227 -12 l 212 -12 l 195 31 l 196 52 l 192 81 l 200 107 l 196 138 l 204 164 l 200 186 l 203 205 q 204 216 204 210 q 201 233 204 222 l 195 254 l 191 298 q 156 307 165 300 q 142 321 147 314 q 160 349 146 337 q 178 361 174 361 q 186 355 182 361 l 192 374 l 200 378 l 192 406 l 203 410 l 195 441 l 200 450 l 191 475 l 200 494 l 192 501 l 191 519 q 186 538 191 529 l 175 561 l 180 587 l 170 593 l 172 618 l 164 635 l 153 675 l 131 697 q 109 685 119 696 l 98 692 l 86 685 l 77 694 l 66 685 l 66 692 l 45 697 l 12 676 q -28 720 -28 698 q -21 728 -28 728 q -12 726 -15 728 q 12 751 -2 750 l 32 742 l 41 746 q 102 743 80 746 l 119 739 q 135 743 126 739 l 143 746 l 153 746 l 164 736 q 180 742 168 739 l 212 729 l 298 717 q 315 720 310 720 q 342 714 323 720 l 364 720 q 382 708 368 720 q 440 692 411 692 l 447 692 l 467 697 l 475 686 q 488 690 481 690 q 497 684 494 690 q 506 677 500 677 l 543 675 q 597 650 565 650 l 609 646 q 629 629 614 644 l 653 629 l 657 618 l 685 600 l 690 574 q 668 535 675 543 q 652 521 662 528 q 633 512 643 515 q 610 501 624 510 l 597 504 l 568 482 q 558 485 560 485 q 543 468 547 485 q 530 473 536 473 q 524 468 526 473 l 511 468 l 493 447 l 468 441 q 452 431 461 435 q 431 426 443 427 q 404 419 418 425 l 396 408 l 382 408 l 366 398 q 346 389 355 392 l 319 383 l 313 375 q 288 367 294 371 q 269 361 283 363 q 260 342 260 347 q 264 338 260 338 l 281 338 q 323 336 305 338 l 399 330 l 414 336 l 486 323 l 498 329 q 521 314 516 314 q 525 321 525 314 l 528 321 q 539 317 529 321 q 567 313 550 313 l 578 313 q 616 302 600 302 q 640 309 631 302 q 697 302 660 302 l 713 292 l 729 296 l 774 277 l 790 277 q 825 260 805 262 q 854 238 836 247 q 876 225 873 229 m 632 578 l 607 591 q 587 612 603 593 l 566 612 l 555 618 q 524 632 524 620 l 511 623 l 497 635 l 482 638 q 463 650 475 640 l 449 642 l 431 653 q 414 652 425 652 q 387 654 403 652 l 374 657 l 351 654 l 334 672 l 313 667 l 298 675 l 289 664 l 269 672 l 249 663 l 227 667 l 216 654 l 236 635 l 236 600 l 244 575 l 236 553 l 248 517 l 243 485 l 250 464 l 244 441 l 244 408 l 243 400 q 260 386 243 390 q 284 407 267 404 q 316 415 300 410 q 334 425 332 420 l 353 428 l 355 437 l 386 440 l 392 457 q 408 452 399 452 q 432 464 419 452 l 449 463 q 489 493 461 486 q 525 504 517 500 l 551 514 l 568 514 l 575 529 l 603 533 l 614 546 l 614 553 l 616 553 q 632 578 632 553 m 808 174 q 814 195 814 181 q 813 205 814 201 q 796 232 812 208 l 774 235 l 764 250 l 747 244 l 720 260 l 697 257 l 685 267 l 657 264 q 629 275 642 275 q 610 267 618 275 q 597 277 601 271 l 583 277 l 494 281 l 463 296 q 453 298 460 297 q 440 301 446 299 q 396 285 412 297 l 378 298 l 353 296 l 351 286 l 323 289 q 292 301 309 301 q 245 257 245 301 l 248 243 l 244 222 l 253 204 l 248 186 l 249 174 l 248 147 q 255 133 251 140 q 258 110 258 125 l 248 79 l 254 66 l 249 54 l 257 52 l 260 31 l 277 22 l 328 25 l 350 32 l 382 31 q 396 28 393 28 q 436 46 411 28 l 452 41 l 519 57 l 546 71 l 566 66 l 603 89 l 640 89 q 707 121 670 100 q 717 119 709 119 q 729 121 725 119 l 736 136 l 786 153 l 794 170 l 808 174 z "},"C":{"ha":844,"x_min":78,"x_max":840,"o":"m 840 244 l 815 229 l 821 208 q 786 191 821 191 l 775 161 l 729 131 q 703 97 716 111 q 661 80 682 97 q 632 59 640 64 q 616 49 625 54 q 598 42 608 45 q 573 30 589 39 q 552 20 556 21 q 542 20 549 20 l 533 20 q 467 -12 507 20 l 446 -8 l 429 -14 q 404 -20 411 -20 q 384 -17 395 -20 q 370 -14 373 -14 l 367 -14 q 350 -21 357 -21 q 335 -12 343 -21 l 311 -9 q 297 -14 305 -9 l 278 -7 l 265 -12 l 237 0 l 225 9 q 193 22 220 14 l 186 40 q 150 50 153 49 q 144 66 147 51 q 133 87 141 82 q 121 100 125 93 q 112 121 116 108 q 101 144 107 134 q 88 171 92 157 q 83 196 83 184 l 83 200 l 86 243 q 78 272 78 258 l 86 296 l 86 319 l 94 323 l 97 346 l 114 410 l 126 440 l 132 441 l 135 463 q 144 487 142 465 q 161 524 147 509 q 175 547 175 538 q 170 566 175 558 l 186 571 q 212 600 199 591 l 220 629 l 237 640 l 243 663 q 283 687 272 669 q 310 708 294 705 l 319 717 q 347 729 322 721 l 351 726 l 367 742 l 376 730 l 390 728 q 435 736 411 736 l 463 731 q 473 726 465 730 l 516 710 l 614 648 q 633 619 620 629 l 642 593 q 654 550 654 562 l 653 519 q 650 490 650 505 q 652 488 650 489 q 643 473 652 484 q 629 457 633 463 l 604 452 l 595 458 q 589 465 590 463 l 585 473 q 580 484 582 476 q 576 500 578 492 l 576 521 l 572 545 l 572 578 l 578 603 q 512 658 552 648 q 504 663 504 660 l 504 664 q 498 669 503 667 q 490 676 492 672 l 461 676 l 441 692 q 421 684 421 692 l 408 692 l 395 682 l 376 685 l 363 675 q 346 676 357 676 q 325 672 336 676 l 302 640 l 265 603 l 236 558 l 224 553 l 212 517 l 193 501 l 193 482 l 170 441 l 158 396 l 149 396 l 154 370 l 140 343 l 144 334 l 136 334 l 136 313 l 131 309 l 132 254 l 126 214 q 142 178 142 190 l 154 168 l 154 151 l 164 136 l 158 121 l 184 93 l 186 79 l 229 62 l 225 45 l 282 40 l 300 22 l 329 32 l 345 14 l 376 25 q 395 35 388 35 q 399 31 399 35 l 419 32 l 431 22 l 453 31 l 460 31 q 489 41 481 31 q 518 52 498 52 q 538 49 524 52 q 567 65 541 64 q 602 85 577 77 q 642 98 612 85 l 652 115 q 690 132 659 117 l 705 151 l 729 161 l 803 239 l 828 253 l 840 244 z "},"D":{"ha":867,"x_min":20,"x_max":812,"o":"m 812 272 l 808 262 q 804 247 806 257 l 803 236 l 778 200 l 771 186 l 754 178 q 736 161 746 174 q 685 139 702 152 l 672 139 l 660 136 l 654 125 l 632 125 l 629 119 l 621 121 q 612 113 618 121 q 596 104 605 105 q 585 109 589 109 q 555 98 574 109 l 530 104 l 514 93 q 505 94 511 94 q 486 90 500 94 q 464 86 473 86 l 454 86 q 427 80 447 86 q 393 74 408 74 q 374 77 382 74 l 353 71 l 330 79 l 317 71 l 309 74 l 298 54 l 286 65 l 269 57 l 264 66 q 240 62 259 64 l 236 35 l 220 14 l 214 -1 q 192 -35 212 -7 l 187 -31 l 180 -31 l 183 -7 l 182 28 l 161 41 q 147 49 154 49 l 119 35 l 98 35 l 87 43 l 85 54 l 97 66 l 98 77 l 147 89 q 161 92 153 92 q 170 96 170 92 l 170 97 l 161 125 q 160 132 160 127 q 163 144 160 137 q 165 151 165 151 l 161 218 l 168 235 l 168 267 l 178 289 l 161 319 l 178 355 l 170 450 l 174 482 l 174 511 l 161 543 l 161 593 l 146 618 l 146 632 l 109 636 l 79 624 l 35 621 q 27 641 28 629 q 20 676 25 653 q 56 692 41 692 l 66 690 q 77 699 70 690 q 125 704 97 704 q 158 692 142 692 q 174 694 163 692 q 182 686 178 686 q 205 694 184 686 l 222 686 l 243 692 l 285 682 l 309 667 l 339 672 l 349 654 l 366 650 l 390 635 l 406 632 l 425 623 l 436 624 q 463 612 450 624 q 524 571 488 612 l 536 571 q 581 549 553 555 l 612 524 l 648 490 q 665 482 659 482 q 676 489 667 482 l 682 485 l 686 463 q 741 409 722 432 q 762 375 760 385 q 781 355 764 365 l 781 338 q 793 311 781 323 q 803 288 793 298 q 812 273 812 277 l 812 272 m 761 264 l 757 302 l 701 378 l 692 378 l 676 415 l 660 416 l 642 431 l 636 450 q 585 475 623 463 l 574 494 l 464 561 l 444 559 q 419 568 434 559 q 403 578 412 578 q 393 575 399 578 l 386 591 l 366 590 q 349 594 363 592 q 325 603 336 596 l 319 600 q 307 610 319 610 q 231 632 279 632 q 221 629 227 632 l 225 614 l 218 593 q 215 582 215 589 q 228 559 215 570 l 214 536 q 221 518 214 533 q 228 494 228 504 q 226 483 228 492 q 224 471 224 473 q 231 450 224 467 l 221 447 l 225 418 l 225 364 l 231 355 l 215 330 l 225 321 l 212 286 l 218 254 l 204 222 l 218 196 l 215 168 l 221 153 l 212 132 l 225 98 l 311 109 q 319 112 313 109 q 330 115 325 115 q 355 112 338 115 q 382 109 372 109 q 447 131 415 109 q 481 132 461 132 l 514 131 q 543 142 530 131 q 570 151 557 143 q 587 158 583 158 q 600 153 595 158 q 623 161 614 153 l 647 164 l 650 178 l 660 174 l 675 180 l 685 180 l 697 196 l 707 196 l 760 236 l 761 264 z "},"E":{"ha":832,"x_min":114,"x_max":791,"o":"m 791 714 q 785 699 789 704 l 770 699 l 760 692 l 741 699 l 718 697 q 699 702 702 697 q 689 707 696 707 q 671 699 684 707 q 653 704 662 704 q 626 696 644 704 q 599 689 607 689 q 580 690 592 689 q 561 692 568 692 q 550 684 552 692 q 528 692 539 692 q 488 675 508 692 l 473 682 l 461 675 l 429 685 l 407 672 l 382 672 q 347 664 359 667 q 313 650 334 661 l 300 659 l 275 639 l 250 640 l 232 607 l 239 581 q 225 545 225 577 l 227 533 l 225 504 l 229 498 l 220 490 l 225 482 q 215 444 215 460 q 252 414 215 414 q 269 417 257 414 q 293 417 281 420 q 315 414 305 414 l 336 422 l 358 415 l 372 419 l 386 418 l 407 422 l 419 419 l 422 419 q 447 428 431 419 q 476 423 459 422 q 500 427 492 425 l 518 431 l 549 425 q 557 433 553 425 q 599 427 591 427 l 614 428 l 661 425 l 686 431 q 703 439 688 439 l 734 435 l 747 437 l 765 431 l 783 435 l 779 418 q 743 408 755 408 q 729 411 740 408 q 708 415 718 414 l 672 397 l 642 400 l 624 393 l 611 396 l 589 383 l 574 387 l 518 386 q 500 378 509 386 l 481 383 l 471 374 l 453 379 l 443 370 l 416 382 l 397 370 l 375 375 q 364 376 372 376 q 336 371 354 376 l 319 366 l 269 361 l 258 367 q 216 355 251 361 l 205 329 l 218 257 l 211 248 l 220 225 l 218 200 l 223 193 q 231 153 225 191 l 243 139 l 236 115 l 250 119 l 275 81 q 367 40 328 40 l 392 36 q 421 41 399 36 l 427 49 l 439 49 q 458 49 453 49 q 488 65 463 50 q 510 71 507 65 l 525 75 q 541 82 533 77 l 559 97 q 581 119 568 109 l 599 121 l 633 151 q 684 196 675 163 l 693 191 l 697 212 l 715 214 l 718 235 l 722 235 q 741 218 735 235 l 693 157 l 676 153 q 643 110 652 115 l 608 86 l 586 65 l 576 66 l 559 49 l 496 22 l 481 3 l 458 9 l 452 -1 l 446 0 l 435 -9 l 397 -1 l 351 -22 l 318 -9 l 261 20 q 217 59 237 33 q 178 144 198 85 q 158 208 158 203 l 163 228 l 153 254 l 163 267 l 150 342 q 129 368 132 365 q 126 382 126 371 q 138 413 126 407 q 150 419 150 418 l 150 428 q 163 440 150 437 l 167 460 l 163 468 l 163 507 l 158 524 l 174 566 q 184 603 180 591 l 167 625 l 136 623 l 134 623 q 120 628 126 623 q 114 642 114 634 q 132 675 114 654 q 142 682 139 677 q 170 692 166 692 q 179 685 174 692 q 191 694 183 694 q 211 707 211 694 q 207 717 211 711 l 253 714 l 261 699 q 306 714 283 714 l 315 713 l 345 720 q 372 729 355 720 l 372 720 q 407 730 385 730 l 431 729 l 435 729 l 567 742 l 597 729 l 607 746 q 618 736 610 736 q 631 739 620 736 l 646 730 l 656 739 l 681 729 l 697 733 l 705 726 l 750 730 l 757 726 q 791 714 790 719 z "},"F":{"ha":757,"x_min":64,"x_max":747,"o":"m 676 714 l 713 714 q 734 720 730 720 q 747 707 747 720 q 733 697 747 697 l 728 697 l 708 686 l 684 694 l 648 675 l 633 682 q 611 688 624 688 q 594 685 606 688 q 576 682 583 682 l 574 682 l 557 685 l 528 675 l 515 676 l 510 672 l 446 671 l 429 673 l 424 664 l 401 671 l 387 663 q 358 660 379 660 l 339 664 q 312 661 325 664 q 268 654 300 657 l 256 642 l 248 644 q 243 625 243 638 q 264 561 243 608 l 253 529 l 264 521 l 253 504 q 264 489 264 502 l 257 461 l 253 406 l 256 385 l 306 378 l 343 387 l 355 380 q 387 378 359 378 q 408 387 401 378 l 435 393 l 467 382 q 505 389 500 389 q 528 393 513 389 l 545 387 l 567 393 l 579 386 q 616 389 611 387 q 627 390 621 390 q 639 389 631 390 q 650 387 647 387 q 664 396 658 387 l 699 400 l 713 396 q 722 399 718 399 l 737 393 l 745 393 l 742 386 q 703 370 726 385 l 684 370 l 671 361 l 639 364 l 612 355 q 570 346 581 346 l 547 353 l 542 346 l 500 351 l 484 343 l 458 346 l 439 341 q 407 336 418 336 l 397 336 q 375 329 389 336 l 359 339 l 353 340 q 313 326 345 340 l 286 330 l 275 326 l 256 330 q 239 250 247 330 q 236 208 239 227 q 241 186 244 193 l 227 142 l 235 125 l 225 107 l 229 85 l 224 74 q 225 64 225 71 q 214 5 225 46 q 195 -79 203 -37 l 179 -71 l 170 -71 l 172 -54 l 172 -41 l 179 -35 l 180 -18 q 191 12 180 -9 l 180 20 l 180 35 l 174 41 l 184 62 l 172 66 q 180 91 175 79 q 184 106 184 103 l 184 109 l 179 115 l 180 125 l 176 146 l 184 168 l 180 222 l 191 277 l 184 298 l 184 323 q 174 339 184 334 l 136 323 l 109 339 l 82 335 q 74 334 79 334 q 64 353 64 334 q 71 379 64 371 q 98 387 77 387 q 131 386 117 387 l 172 382 l 182 382 q 204 406 199 382 l 197 424 l 197 489 l 191 490 l 196 566 l 180 607 l 179 635 l 140 653 l 109 632 l 96 650 q 81 663 83 652 q 87 699 87 671 q 123 709 109 699 q 147 720 138 720 l 186 715 q 212 717 190 715 l 281 721 l 328 714 l 375 717 q 387 723 381 720 q 393 726 393 726 q 401 724 395 726 q 408 721 408 721 l 411 721 q 464 729 414 721 l 465 721 q 475 728 470 728 q 490 717 481 728 l 500 721 l 536 725 l 539 725 l 621 714 q 660 720 640 720 q 676 714 668 720 z "},"G":{"ha":1007,"x_min":66,"x_max":933,"o":"m 933 264 l 885 186 q 880 175 880 180 q 899 147 880 172 l 889 142 l 885 93 l 871 57 l 889 41 l 868 31 l 868 14 l 880 3 l 875 -24 l 880 -54 l 875 -74 l 885 -85 l 875 -96 l 880 -129 l 868 -163 l 885 -178 l 880 -214 l 899 -245 q 885 -264 897 -264 q 872 -256 880 -264 q 864 -245 864 -248 l 857 -201 l 840 -196 l 840 -178 l 825 -140 l 825 -118 l 818 -109 l 819 -93 l 810 -89 l 815 -77 l 804 -77 q 810 -69 806 -69 q 818 -74 814 -69 l 808 -52 l 815 -32 l 810 -14 l 819 -1 l 810 3 q 818 26 818 14 l 810 86 l 819 114 l 815 121 q 810 136 810 122 q 799 157 807 147 l 786 147 q 761 127 775 133 q 713 120 746 121 q 667 109 680 120 l 654 97 l 604 86 l 582 74 l 550 74 l 528 62 l 498 65 l 479 52 l 461 57 l 449 45 q 429 47 440 45 q 414 50 418 50 q 390 41 401 50 q 376 47 385 47 q 368 45 371 47 l 363 43 l 355 45 l 334 32 l 313 49 l 296 40 l 252 54 l 243 49 l 227 57 l 192 57 l 175 71 l 146 85 l 93 139 l 86 180 l 71 200 l 81 222 l 69 236 l 77 244 l 66 260 l 71 267 l 89 269 l 89 286 l 102 309 l 104 302 q 122 339 122 321 l 121 346 q 157 396 150 350 l 146 378 q 175 415 160 415 l 178 415 l 172 406 q 184 424 184 412 l 184 428 l 200 431 l 197 425 l 207 428 l 210 447 l 216 441 l 216 452 l 232 452 l 243 460 q 257 485 248 464 l 286 490 q 315 526 315 519 l 336 533 l 343 546 l 370 549 l 392 571 q 435 586 414 574 l 439 593 l 441 590 l 454 600 l 452 603 q 468 611 464 611 q 479 607 471 611 q 509 632 492 632 l 538 632 q 570 654 549 632 l 582 653 l 604 667 l 614 664 q 640 674 623 671 q 657 682 656 677 l 664 686 l 671 685 l 701 686 l 707 697 l 724 694 l 753 699 l 755 704 l 778 694 l 799 694 l 823 673 q 859 657 836 671 q 808 618 852 626 l 765 640 l 753 635 l 729 644 l 713 635 l 689 642 l 648 621 l 632 629 q 582 614 589 618 q 570 603 574 609 q 538 587 550 587 q 525 590 533 587 q 414 539 430 536 l 410 526 l 399 526 l 385 507 l 366 504 q 320 470 349 483 q 286 452 292 456 l 252 418 l 229 400 l 207 370 l 163 334 l 163 302 l 155 296 l 131 232 l 131 208 q 144 180 131 191 q 157 155 157 169 q 155 147 157 150 l 172 129 l 210 109 l 249 97 l 296 98 l 351 87 l 359 89 l 371 86 l 452 93 q 550 109 487 106 l 547 114 l 614 121 l 614 125 l 689 143 q 743 161 703 157 q 799 170 782 165 l 796 180 l 804 180 l 804 186 l 825 192 l 819 205 l 835 222 l 835 248 q 825 254 826 252 q 829 277 829 264 q 825 301 829 289 l 868 302 l 880 292 l 893 292 l 914 267 l 933 264 z "},"H":{"ha":1019,"x_min":121,"x_max":1063,"o":"m 1028 463 l 1000 437 l 978 440 l 958 425 l 943 435 l 889 419 l 879 400 l 857 418 l 825 375 l 836 375 q 818 334 834 352 l 821 334 q 827 323 827 334 q 818 264 827 288 l 825 257 q 821 240 825 245 q 817 229 817 235 q 822 203 817 221 l 814 196 l 815 129 l 803 54 l 806 54 l 800 32 l 806 22 l 803 0 l 808 -12 q 812 -39 812 -25 q 803 -53 812 -45 l 804 -60 q 791 -85 804 -74 l 790 -71 q 771 -31 771 -41 l 771 22 l 765 40 l 775 49 l 765 54 l 761 77 l 761 97 l 765 98 l 761 114 l 765 168 l 764 218 l 774 254 l 765 267 l 771 279 l 771 366 l 775 410 l 749 400 l 742 408 l 730 400 l 717 406 q 680 396 694 394 q 660 399 665 399 q 642 396 650 399 l 587 378 l 524 386 l 517 383 q 489 390 498 390 q 466 384 481 390 q 444 378 450 378 l 422 383 l 414 364 l 390 382 l 355 374 l 342 382 l 330 371 l 314 373 q 289 383 306 374 l 288 374 l 277 378 q 231 372 250 378 q 211 330 211 366 l 211 279 l 205 243 l 211 218 l 199 192 l 211 168 l 201 107 l 208 85 l 205 49 l 215 25 l 211 14 l 214 -9 l 208 -12 q 183 14 184 -9 l 180 79 q 153 119 153 112 q 174 142 153 135 l 164 151 l 165 174 l 160 191 l 153 301 l 153 336 l 147 355 l 123 370 l 121 410 l 153 431 q 167 500 167 472 q 164 521 167 507 l 176 515 l 170 529 l 165 581 l 174 612 l 165 667 l 165 697 l 172 733 l 197 749 q 229 730 212 735 l 231 708 l 241 694 q 232 656 232 661 q 239 642 232 645 q 240 628 240 637 q 225 521 240 606 l 235 498 l 225 485 q 218 431 224 465 l 248 431 l 262 425 l 298 431 l 321 428 l 351 431 l 378 418 l 378 421 q 386 431 378 431 q 399 425 391 431 l 422 425 l 476 428 q 497 425 491 428 l 507 437 l 517 431 q 555 425 548 427 q 568 429 564 429 l 574 428 l 725 444 l 786 440 l 774 460 l 781 468 l 774 498 l 781 521 l 771 581 l 781 603 l 753 685 q 750 697 750 693 q 759 714 750 707 q 771 721 768 721 l 781 721 l 775 746 l 796 746 l 803 730 l 828 736 l 828 714 l 844 720 l 844 694 l 835 676 l 847 640 l 847 623 l 854 603 l 844 575 l 847 553 l 839 441 l 872 447 l 903 449 l 954 463 l 978 460 l 996 463 l 1028 463 m 1063 463 l 1040 447 q 1031 457 1031 449 q 1047 468 1031 468 q 1063 463 1057 468 z "},"I":{"ha":364,"x_min":127,"x_max":236,"o":"m 236 699 l 231 697 l 222 676 l 231 672 l 227 642 q 222 628 222 635 l 227 610 l 227 593 l 220 586 l 227 578 l 216 553 l 220 529 l 197 485 l 203 482 q 200 465 200 475 l 203 444 l 203 441 l 187 435 l 203 400 l 193 400 l 197 387 l 187 370 l 200 346 l 197 336 l 191 336 q 186 328 186 336 q 203 301 186 312 q 188 262 189 295 l 186 248 l 193 225 l 186 208 l 187 157 l 180 121 l 195 114 q 188 93 192 100 q 184 81 184 87 q 199 52 184 69 l 189 49 l 207 31 l 200 20 l 220 14 q 204 -20 216 -6 q 192 -1 192 -16 l 174 22 l 163 25 l 168 49 l 146 74 l 155 86 l 142 107 l 146 136 q 140 150 143 144 l 135 161 l 146 178 l 140 196 l 146 208 l 127 222 l 142 243 l 140 336 l 150 408 l 146 479 l 153 498 l 146 504 l 150 521 l 150 546 l 155 555 l 146 558 l 153 590 q 134 600 137 590 l 153 600 l 155 623 l 146 625 l 153 642 q 164 661 164 651 q 155 682 164 671 l 164 685 l 164 697 l 178 697 l 186 717 l 197 721 q 236 699 231 721 z "},"J":{"ha":364,"x_min":-542,"x_max":231,"o":"m 231 437 l 221 428 l 224 399 l 220 364 l 225 323 l 221 313 l 224 289 l 204 269 l 211 260 l 201 257 l 212 250 l 211 228 l 212 212 l 199 203 l 208 183 q 195 139 195 167 l 199 109 l 199 74 l 208 74 l 191 65 l 191 45 l 189 25 l 189 0 l 172 -22 l 179 -32 l 170 -41 q 167 -74 167 -58 l 157 -86 l 158 -98 l 150 -103 l 150 -115 l 140 -129 l 131 -131 q 135 -143 131 -137 l 125 -143 l 125 -168 l 106 -179 l 103 -192 l 74 -244 l 16 -286 l 7 -290 l 7 -286 l -29 -313 l -43 -311 l -53 -321 l -65 -321 l -75 -329 l -119 -323 l -167 -343 l -208 -330 l -240 -335 l -256 -330 l -273 -346 l -285 -329 l -306 -330 l -345 -318 l -379 -329 l -386 -302 l -440 -309 l -456 -290 l -484 -289 l -486 -278 l -503 -281 l -519 -272 l -534 -272 q -542 -258 -542 -269 q -524 -250 -542 -250 q -473 -263 -505 -250 l -443 -277 l -435 -277 q -389 -283 -412 -277 q -358 -290 -366 -290 l -347 -290 l -336 -301 l -293 -294 l -273 -301 l -273 -309 l -252 -301 l -212 -311 l -212 -302 l -207 -301 q -153 -298 -180 -301 l -129 -296 l -79 -296 l -68 -290 l -62 -278 l -43 -278 l -35 -267 l -25 -267 l -11 -257 q 7 -245 -1 -254 l 16 -250 l 18 -235 l 37 -218 l 43 -196 l 64 -184 l 74 -143 l 77 -143 q 87 -139 84 -143 q 92 -113 91 -135 l 106 -103 l 96 -85 l 109 -71 l 106 -54 q 117 -45 111 -45 q 127 -52 123 -45 l 122 -33 l 131 3 l 131 32 l 140 32 l 144 79 l 144 86 l 149 86 q 154 89 154 86 l 144 115 l 154 119 l 154 139 l 150 143 l 158 168 l 154 192 l 164 302 l 172 330 l 164 378 l 176 400 l 164 419 l 172 457 l 157 517 l 157 581 l 144 618 l 144 642 l 135 644 l 147 717 q 182 746 153 746 q 191 742 189 746 l 197 728 q 211 714 201 721 l 201 697 l 212 675 l 211 644 l 221 640 l 221 625 l 225 607 l 212 590 l 225 586 l 221 555 l 225 482 l 221 452 l 231 437 z "},"K":{"ha":1015,"x_min":127,"x_max":1017,"o":"m 1017 142 l 1007 125 l 970 74 q 918 37 942 52 q 839 9 894 23 l 827 14 l 807 8 l 785 12 l 760 8 l 753 14 l 737 9 l 720 14 l 696 14 l 677 32 l 646 40 l 633 54 l 621 52 l 602 72 q 590 79 597 77 l 570 85 l 550 107 l 510 107 l 500 125 l 486 125 l 481 136 l 461 143 l 458 170 l 441 157 l 431 170 l 406 187 l 389 205 q 365 225 382 214 q 336 248 348 237 q 309 268 325 260 q 275 292 296 292 l 268 292 l 265 302 l 245 298 l 243 311 l 233 309 l 212 313 l 197 296 l 204 248 l 189 244 l 201 205 q 184 143 201 183 q 201 121 199 137 q 191 85 191 101 l 191 53 l 180 31 l 178 11 q 142 -65 175 -12 l 127 -54 l 134 -35 l 135 -20 q 143 -1 136 -12 l 138 12 l 150 20 q 136 32 136 20 q 135 35 135 33 q 150 52 135 42 l 142 62 l 153 77 l 158 74 q 147 114 155 98 l 158 139 l 150 136 q 144 155 144 145 q 153 183 144 161 q 149 224 149 205 q 145 245 149 243 q 142 254 142 248 l 150 264 l 142 292 l 154 309 l 147 321 l 147 353 l 142 387 l 158 406 q 150 428 150 410 l 151 440 q 150 452 151 449 l 154 468 l 147 472 l 147 485 q 155 493 155 487 l 153 507 l 153 572 l 154 581 q 158 610 158 586 q 147 647 147 627 q 158 694 147 669 q 178 699 167 699 q 204 692 189 699 l 224 665 l 220 632 l 229 621 l 224 607 l 229 590 l 211 561 l 221 515 l 211 482 l 214 436 l 201 415 l 212 406 l 231 373 q 253 366 232 370 q 290 355 273 361 l 298 361 l 313 355 l 325 364 l 347 361 l 354 355 q 404 383 389 383 q 429 378 416 383 l 429 387 l 441 387 q 481 408 460 408 l 486 408 l 494 418 l 494 419 q 501 422 494 422 l 514 422 l 559 441 q 578 468 572 465 q 589 471 585 471 q 596 468 593 471 l 599 485 l 608 485 l 611 494 l 629 498 l 642 521 l 656 521 q 665 541 662 521 q 686 561 669 560 q 705 581 696 576 l 705 590 l 725 593 q 747 635 733 631 q 761 660 757 648 q 794 703 764 671 l 794 711 q 808 732 794 732 q 839 708 824 732 l 831 707 l 831 692 q 807 663 825 681 l 804 644 l 791 640 l 779 597 l 764 579 q 749 557 752 559 q 739 551 746 555 q 718 538 731 548 q 725 517 721 524 q 684 494 693 517 l 668 490 l 668 479 l 652 472 l 624 441 l 586 421 l 559 401 l 534 396 l 513 382 l 475 374 q 404 334 426 340 l 364 319 l 336 315 l 375 286 l 382 277 l 397 277 l 411 254 l 444 225 l 485 201 l 490 186 l 528 174 l 559 151 l 602 129 l 627 106 l 653 98 l 690 71 l 742 54 l 782 49 l 848 57 l 875 57 q 893 65 886 57 q 905 74 900 74 q 911 72 907 74 q 920 69 916 69 l 922 69 q 940 86 927 86 l 945 86 l 947 102 q 981 132 964 122 l 982 143 q 1007 157 998 147 l 1014 153 l 1017 142 z "},"L":{"ha":852,"x_min":125,"x_max":875,"o":"m 846 121 l 859 121 q 875 113 875 121 q 848 98 875 98 q 840 93 847 98 q 822 86 832 87 l 772 79 l 741 79 l 727 71 q 711 64 720 65 l 688 62 l 676 52 l 611 49 l 574 31 q 536 16 545 28 q 500 22 519 16 l 471 12 l 437 11 l 407 0 l 334 0 l 288 12 l 258 9 l 248 20 l 221 22 l 179 65 q 142 149 152 94 q 125 200 138 170 l 136 248 l 131 296 l 140 302 l 142 370 l 149 389 q 157 435 153 399 l 167 441 l 158 457 l 158 536 q 174 575 174 564 l 172 623 l 195 650 l 174 664 l 182 689 l 197 697 l 189 720 l 207 726 l 211 739 l 221 742 l 236 739 l 253 700 q 231 672 231 682 q 229 669 231 671 q 237 664 229 667 q 245 657 244 661 l 231 612 l 231 561 l 216 515 l 212 471 l 191 374 l 197 364 l 192 351 q 185 318 189 345 q 180 289 180 292 l 184 248 l 179 232 l 191 170 l 189 164 l 211 114 l 211 98 l 281 54 l 335 49 l 335 45 l 386 47 l 439 57 l 478 57 l 478 52 l 493 65 l 567 66 l 585 78 l 636 81 l 660 87 l 747 93 l 785 104 q 811 102 795 102 q 827 111 827 102 l 827 114 q 846 121 839 114 z "},"M":{"ha":1185,"x_min":56,"x_max":1114,"o":"m 1114 -22 q 1093 -32 1110 -26 l 1064 -12 l 1026 35 l 1015 62 q 1004 107 1011 89 q 989 183 989 125 q 992 197 989 193 q 999 243 995 202 l 985 272 l 989 286 l 985 313 l 986 343 l 977 353 l 985 374 l 977 386 l 985 399 l 975 428 l 975 472 l 964 498 q 962 529 963 516 q 936 558 961 542 l 918 536 l 903 529 l 856 464 l 815 415 l 802 386 l 762 342 l 710 302 l 705 279 l 677 269 l 673 250 l 642 235 l 631 208 l 608 200 l 576 143 q 554 109 557 143 q 545 107 549 107 q 522 143 539 119 l 525 161 l 515 174 l 525 186 l 516 196 q 505 225 513 200 l 486 243 q 472 259 481 245 q 458 279 463 273 q 446 313 453 286 l 431 330 l 404 383 l 376 415 l 367 435 l 340 464 l 313 507 q 275 543 289 543 q 257 540 266 543 q 248 536 249 536 l 245 536 l 245 519 q 233 450 245 473 l 204 396 l 211 361 l 201 336 l 174 243 l 163 212 l 158 192 l 140 147 l 118 109 l 121 78 l 97 21 q 110 3 97 9 q 74 -31 83 -31 q 63 -20 71 -31 q 56 5 56 -9 q 61 23 56 8 q 71 58 66 37 q 82 87 75 78 q 90 97 90 96 l 90 131 q 118 174 90 160 l 118 196 l 126 228 q 125 236 125 231 q 132 264 125 243 q 142 289 142 275 l 142 319 l 154 342 l 179 425 l 172 463 l 184 472 l 189 489 l 191 549 q 197 602 197 586 q 179 653 197 616 l 191 676 l 184 686 q 191 699 191 689 q 216 708 211 699 l 229 707 l 245 694 l 245 682 l 261 672 l 265 640 l 278 629 l 283 610 l 290 610 q 288 600 288 604 q 310 586 288 588 q 329 571 319 582 l 332 553 l 347 536 l 357 504 l 419 437 l 431 400 l 452 383 l 471 329 l 518 244 q 554 200 533 219 l 557 218 l 582 218 l 597 253 l 627 273 q 652 301 634 284 l 652 313 q 683 331 667 323 q 699 342 699 340 q 697 343 699 343 q 705 366 697 353 l 720 366 l 732 383 q 739 376 736 376 q 741 380 741 376 q 737 406 741 382 q 791 447 768 447 l 791 464 q 815 485 791 478 l 823 482 l 827 490 l 856 536 l 859 546 l 868 546 q 899 597 888 568 q 920 604 907 604 q 926 600 924 604 l 936 621 l 930 663 l 922 682 q 942 726 937 704 q 964 721 957 724 q 982 714 967 716 l 985 692 q 1009 670 1008 672 q 1010 661 1010 668 l 1008 650 l 1008 612 l 1017 600 l 1008 593 l 1017 590 l 1014 575 l 1019 568 l 1023 539 l 1031 533 l 1017 514 l 1023 511 l 1019 482 l 1029 457 l 1026 425 l 1039 375 q 1046 334 1042 360 q 1029 309 1038 317 l 1038 292 q 1043 285 1043 288 q 1038 272 1043 281 q 1031 254 1033 262 l 1042 244 l 1038 168 l 1051 121 l 1051 65 l 1061 54 q 1075 26 1069 34 q 1096 2 1080 19 q 1114 -22 1112 -14 z "},"N":{"ha":1051,"x_min":153,"x_max":940,"o":"m 940 586 l 922 558 l 925 536 l 932 539 q 922 507 932 530 l 914 489 l 914 418 l 900 386 l 903 366 l 890 302 l 896 286 l 885 236 l 888 214 l 878 178 l 888 143 l 865 109 l 871 89 l 859 65 l 865 52 l 871 -14 l 880 -35 q 865 -52 870 -41 l 852 -49 l 846 20 l 836 22 q 834 47 835 35 q 833 72 834 60 l 833 99 q 829 121 833 114 l 821 139 l 794 143 l 779 161 l 772 153 l 760 168 l 737 161 l 710 183 l 696 180 l 668 186 l 652 203 l 642 200 l 557 254 l 547 267 l 518 279 l 500 302 l 484 311 l 461 334 l 399 361 l 354 418 l 335 419 l 325 435 q 281 472 306 443 l 288 472 q 265 504 275 484 l 256 507 l 253 507 q 234 498 238 507 q 224 457 229 488 l 211 386 l 224 343 l 204 272 q 212 225 212 229 l 212 220 q 203 193 212 203 q 195 178 195 182 q 212 168 195 174 l 204 139 l 204 104 l 197 66 l 204 52 l 197 41 q 179 -24 195 0 l 170 -24 q 153 3 153 -24 l 153 8 l 170 62 l 163 85 l 172 114 l 163 125 l 174 147 l 158 168 q 161 195 161 184 q 158 225 161 205 l 164 222 l 170 236 l 158 257 l 170 289 l 163 330 l 172 375 l 164 406 l 174 472 l 172 524 l 179 571 l 172 586 l 174 653 l 189 657 q 171 689 171 675 q 179 704 171 697 l 204 699 l 211 708 q 224 686 224 698 q 216 667 224 678 l 236 667 l 239 635 l 256 621 l 258 600 l 281 586 l 288 557 q 302 533 292 541 l 349 500 l 349 497 q 363 472 349 486 l 395 450 l 429 410 l 538 319 l 550 319 q 569 297 565 307 q 576 286 573 287 l 621 272 l 656 243 l 676 236 l 715 214 l 753 203 q 811 168 787 168 l 832 174 l 836 174 l 839 212 l 859 254 l 848 264 l 852 329 l 868 353 l 866 368 q 852 396 865 375 l 868 450 l 861 501 l 875 600 l 859 618 l 878 675 l 871 682 l 880 694 l 878 704 l 899 714 l 903 704 l 922 708 q 918 682 918 694 q 925 658 918 669 q 932 644 932 648 l 922 618 l 940 586 z "},"O":{"ha":968,"x_min":78,"x_max":913,"o":"m 913 374 l 900 343 l 896 301 l 884 289 l 869 244 q 865 231 867 235 q 857 224 863 227 l 842 218 l 760 153 l 741 143 q 713 121 732 139 l 713 129 l 656 85 l 631 74 l 571 41 q 546 47 558 47 q 531 41 536 47 q 521 32 526 34 l 509 35 l 486 14 l 475 20 l 469 12 l 446 12 l 433 0 l 392 3 l 325 -9 q 313 -8 321 -8 l 292 -11 l 268 -7 l 262 -1 l 204 8 l 176 22 l 164 22 l 164 49 l 144 41 l 135 55 q 121 66 129 62 l 100 77 q 87 147 89 107 l 81 157 l 78 212 l 97 272 l 94 301 l 107 313 l 97 336 l 121 355 l 121 375 l 129 393 l 129 408 l 139 425 l 135 431 l 142 435 l 171 501 l 225 587 q 243 602 237 591 q 272 629 248 612 l 269 642 l 286 642 l 282 650 q 325 675 298 666 l 335 686 l 334 686 q 360 690 334 687 l 424 699 l 464 693 l 494 694 l 530 694 q 550 692 545 692 q 579 704 569 692 q 595 697 586 697 q 602 699 599 697 q 615 685 602 685 q 646 676 621 679 l 656 667 l 676 664 l 703 664 l 741 644 l 732 644 l 758 626 q 771 607 762 623 l 791 597 l 802 581 l 825 571 l 871 494 q 888 456 876 487 l 906 406 q 913 383 913 389 l 913 374 m 868 410 l 856 441 l 857 452 q 854 467 857 458 q 825 490 850 475 l 815 517 l 807 521 l 803 536 l 764 578 l 729 607 l 718 603 l 668 635 q 639 642 661 639 q 606 653 617 646 q 602 652 606 652 q 581 654 599 652 l 574 650 l 553 657 l 539 650 q 514 656 521 656 q 502 653 510 656 q 490 650 494 650 q 481 653 484 650 q 458 636 467 646 q 431 618 450 626 l 411 623 l 392 610 l 370 612 l 361 609 q 354 604 357 607 q 346 597 351 601 q 333 588 340 593 q 318 576 326 583 q 299 564 309 570 q 281 536 294 561 l 282 517 l 257 506 q 240 489 253 504 q 215 452 230 466 l 215 435 q 196 418 199 428 l 183 378 l 160 363 q 145 264 155 278 q 132 240 136 251 q 126 215 128 229 q 117 178 125 202 l 125 161 l 129 136 l 142 119 q 146 109 144 115 l 149 93 q 214 51 175 63 q 260 40 254 39 l 304 52 l 314 41 l 336 41 l 336 32 l 358 32 l 364 49 l 386 52 l 441 45 q 458 58 449 58 l 464 57 q 509 77 494 77 l 514 77 l 542 94 q 571 98 547 97 l 589 114 q 646 121 639 115 q 660 132 654 126 q 686 143 665 138 l 696 170 l 700 168 l 703 178 q 729 196 719 182 l 742 192 l 749 205 l 771 222 l 808 264 l 831 272 l 842 296 l 860 309 l 856 334 l 865 355 l 860 396 l 868 410 z "},"P":{"ha":764,"x_min":8,"x_max":755,"o":"m 755 490 l 747 473 q 735 456 743 464 l 714 435 l 714 425 q 690 410 699 422 q 675 399 682 399 q 615 366 663 376 q 566 342 598 342 l 558 342 l 558 334 l 530 334 l 514 321 l 498 319 q 489 309 498 309 l 476 298 l 444 298 l 425 281 l 368 269 l 361 264 l 329 267 q 317 243 328 262 q 277 250 311 248 l 264 243 l 244 236 q 214 222 230 227 l 205 196 l 220 170 l 212 136 l 222 98 l 214 93 l 225 77 l 225 49 l 231 35 l 231 9 l 262 12 q 269 -3 269 6 q 240 -24 269 -24 l 232 -24 l 210 -32 l 191 3 l 165 57 l 165 114 l 151 142 l 161 153 l 155 180 l 158 200 l 149 212 l 92 222 l 77 244 l 146 250 l 139 254 q 147 257 142 257 q 157 254 155 257 l 157 286 l 165 302 l 170 386 l 178 396 l 175 460 l 180 494 l 183 571 l 192 593 l 203 600 l 200 621 q 216 635 200 635 q 264 603 264 635 q 253 572 264 594 q 241 539 241 550 q 257 501 241 527 l 244 489 l 243 452 l 225 435 l 231 406 l 220 374 l 225 343 l 220 319 l 222 301 l 212 286 q 232 260 214 263 l 267 281 l 296 281 q 343 300 315 300 l 353 309 q 372 306 359 306 q 428 329 400 306 l 450 330 l 468 346 l 486 346 l 490 353 l 564 374 q 583 383 583 376 q 590 396 589 389 q 606 395 597 395 q 629 419 625 395 q 653 428 651 422 q 664 437 655 434 l 672 431 l 679 452 l 689 460 l 694 490 q 664 546 683 522 l 650 549 l 625 571 l 574 593 q 468 635 524 630 l 468 625 l 444 642 l 412 640 l 393 653 l 371 653 l 351 664 l 332 664 q 309 675 317 664 l 254 682 q 212 667 239 677 l 180 686 l 161 675 l 146 685 l 117 676 l 117 672 l 104 672 l 77 657 l 58 654 q 31 642 49 653 q 8 692 12 665 l 22 711 l 22 721 q 47 729 26 727 q 85 739 68 730 q 104 736 100 736 q 117 742 111 736 l 129 736 q 143 739 140 739 q 155 730 151 739 l 222 730 l 262 729 l 309 721 q 320 713 312 716 q 329 707 329 710 l 339 717 l 345 717 q 359 711 359 717 q 358 707 359 708 l 378 707 q 440 694 415 696 l 444 686 l 482 686 l 507 669 q 536 664 511 667 l 543 653 l 550 653 q 600 625 586 653 l 618 635 l 618 618 q 653 597 631 614 l 669 597 l 682 578 l 726 549 l 726 533 l 755 490 z "},"Q":{"ha":991,"x_min":78,"x_max":1121,"o":"m 1114 54 q 1118 47 1114 51 q 1121 41 1121 43 q 1111 22 1121 32 l 1094 16 q 1067 -1 1086 14 l 1057 3 l 1007 -12 l 991 -32 l 982 -31 l 981 -35 l 968 -32 l 956 -41 l 940 -41 l 873 -66 q 854 -57 871 -57 l 827 -66 l 807 -57 l 790 -66 l 768 -64 l 758 -74 l 733 -54 l 725 -62 l 701 -49 l 679 -45 q 631 -14 659 -28 l 614 14 l 595 14 l 583 28 q 562 41 578 35 q 552 66 555 63 q 536 71 549 69 l 505 52 l 490 52 l 471 32 l 453 35 l 435 22 l 416 25 l 392 12 l 372 12 l 343 -7 l 319 3 l 297 -7 l 271 3 l 257 -1 l 214 9 l 191 9 l 176 25 l 160 22 l 154 31 l 147 52 l 136 62 l 100 107 l 86 119 l 92 139 l 78 161 l 83 196 l 81 254 l 92 279 q 107 302 107 283 q 105 323 107 314 q 103 335 103 332 q 122 355 103 350 l 115 361 l 125 364 l 125 387 q 150 447 150 402 l 147 450 l 160 460 l 160 452 l 168 457 l 174 482 l 208 526 l 203 526 l 214 543 q 220 534 218 534 q 221 543 221 534 q 220 553 221 547 q 218 564 218 560 q 232 571 218 571 q 241 570 237 571 q 279 603 264 602 l 277 614 l 286 618 l 288 612 l 297 640 l 310 642 l 400 682 l 390 667 l 403 676 l 471 682 q 479 673 473 673 q 496 676 486 673 l 572 699 l 642 707 q 768 692 736 699 q 803 672 800 686 l 810 672 q 842 654 836 672 l 848 653 l 848 644 q 875 608 855 629 q 905 571 895 588 q 914 526 914 555 l 914 490 q 905 410 907 444 q 878 385 880 390 q 873 368 875 380 q 871 351 872 356 l 857 346 l 851 323 l 835 319 l 839 313 q 821 295 832 309 q 807 279 809 281 l 790 248 l 780 239 q 768 222 775 236 l 728 203 l 705 170 l 692 164 l 684 154 q 627 129 681 150 q 607 98 613 100 l 607 77 l 652 32 l 652 22 l 660 11 l 684 20 l 713 -1 l 765 -20 l 844 -24 l 857 -14 l 864 -22 l 925 -9 l 946 -9 l 956 0 l 1054 25 l 1059 22 l 1059 32 q 1080 49 1080 32 l 1114 54 m 861 399 l 861 408 q 880 490 880 446 q 854 577 880 528 q 798 625 829 626 l 755 657 l 669 672 l 642 663 l 627 664 q 615 667 621 667 q 604 664 612 667 l 600 672 l 578 663 l 555 667 l 529 656 q 511 642 524 654 q 476 634 490 642 q 458 621 463 626 l 441 623 l 422 618 l 407 621 l 390 600 l 380 602 q 343 571 362 602 q 340 576 343 576 q 323 563 339 576 l 309 553 l 279 507 l 264 460 l 253 460 l 241 482 l 235 482 q 197 431 197 465 l 197 419 l 176 399 l 176 387 q 147 329 161 371 q 142 296 145 304 l 125 257 l 127 200 l 115 180 l 125 168 l 136 119 l 170 85 l 170 74 q 190 65 181 65 l 199 65 l 249 41 q 257 52 252 49 q 279 40 270 40 l 382 40 l 382 45 l 397 52 q 441 57 404 54 l 453 71 q 456 65 453 65 q 464 74 460 65 q 505 89 503 75 q 521 104 521 93 l 521 107 l 528 107 l 497 164 l 479 186 l 475 208 l 435 302 q 431 355 431 315 q 458 374 452 357 q 486 351 485 359 l 501 279 l 514 260 l 524 222 l 555 180 l 555 175 q 575 136 555 136 q 595 142 581 136 l 597 147 l 608 147 l 623 154 l 631 174 l 660 180 l 661 186 q 670 194 669 188 q 676 200 671 200 q 684 196 681 200 q 690 207 690 201 q 689 214 690 211 l 703 214 l 713 235 l 724 235 l 743 248 q 758 272 755 250 l 775 279 q 781 298 779 295 q 793 305 783 300 q 803 317 803 309 l 803 319 q 817 339 815 326 q 823 353 818 353 l 829 351 l 827 355 l 831 355 q 842 374 842 355 q 848 386 848 377 l 861 399 z "},"R":{"ha":1023,"x_min":31,"x_max":1072,"o":"m 1067 93 q 1072 74 1072 78 q 1060 58 1072 68 q 1031 35 1047 48 l 1015 40 l 997 12 q 954 0 975 11 l 914 9 l 892 0 l 885 -12 q 860 3 865 3 q 857 -1 857 3 l 850 0 l 838 -12 l 825 3 l 815 -1 q 793 8 804 8 l 749 8 l 736 22 l 721 20 l 699 32 l 685 25 l 675 41 l 654 41 l 642 57 l 625 57 q 617 67 623 57 q 597 85 610 77 l 555 107 q 498 168 519 125 l 482 168 l 460 196 l 419 228 l 374 281 l 361 285 l 340 307 q 311 319 336 311 q 294 314 302 314 q 281 319 288 314 l 281 318 q 278 317 281 317 l 264 317 l 250 336 q 260 364 258 345 l 277 370 l 277 378 l 294 382 q 311 389 303 389 q 323 385 317 389 q 330 382 329 382 q 335 386 332 382 q 393 361 341 361 q 464 370 439 361 l 464 374 l 568 378 q 644 396 604 396 l 653 393 l 676 401 l 682 410 l 699 408 l 720 416 l 734 416 q 749 419 746 416 q 751 429 751 421 l 751 435 q 768 440 768 437 q 821 486 821 454 q 806 517 821 502 l 760 561 l 749 561 q 708 581 717 581 l 694 581 l 667 593 l 650 593 l 632 607 l 600 607 l 587 612 l 511 618 l 498 625 l 490 621 l 475 625 l 460 621 l 419 625 l 378 618 l 355 625 l 330 623 l 309 625 l 292 618 l 279 623 l 254 607 l 235 610 q 214 575 225 589 l 222 555 l 218 475 l 228 406 q 212 346 213 357 l 203 168 l 214 66 l 205 12 l 205 -1 q 179 -12 205 -12 l 174 -12 l 180 41 l 174 62 l 161 119 l 170 125 q 153 153 153 146 q 168 180 153 165 l 157 203 l 155 203 q 153 204 153 203 q 170 243 153 212 q 160 269 160 253 l 164 292 l 164 302 q 174 332 174 320 q 164 364 174 345 l 174 387 l 170 408 l 178 415 q 174 429 174 421 q 183 463 174 439 l 170 460 l 161 497 l 168 524 l 161 581 l 168 587 q 135 610 146 610 l 131 610 l 121 600 l 89 603 l 68 576 q 41 590 54 588 q 31 612 31 604 q 34 626 31 619 q 44 637 37 632 l 62 650 l 104 654 l 161 657 l 174 667 l 174 671 q 205 692 174 692 l 222 692 q 248 663 230 663 q 277 675 252 663 l 311 667 l 366 675 l 437 667 l 539 664 l 590 654 l 629 654 l 644 642 q 653 650 646 650 q 667 642 659 650 q 672 625 667 632 l 686 623 l 686 640 l 742 618 l 761 603 l 764 607 q 800 597 776 600 l 810 586 l 822 583 q 856 532 844 549 q 868 501 868 515 q 847 457 868 476 q 800 410 825 438 l 786 409 l 775 408 q 751 399 771 408 l 746 387 l 707 387 l 696 378 q 683 372 693 375 l 663 366 q 600 336 627 366 l 578 351 l 558 342 q 547 346 552 346 q 526 334 539 346 l 507 342 l 489 334 l 482 342 l 457 328 l 424 332 q 403 329 414 332 l 416 310 l 450 281 l 460 264 l 514 222 l 526 200 l 535 190 q 553 153 539 186 l 590 151 l 632 109 l 654 98 l 685 79 l 714 71 l 755 54 l 771 57 l 778 52 l 781 54 l 786 45 l 806 49 l 810 35 l 825 45 l 842 40 l 889 45 l 908 40 l 975 52 l 1025 65 l 1028 57 l 1038 74 l 1059 74 l 1067 93 z "},"S":{"ha":1000,"x_min":0,"x_max":921,"o":"m 840 286 l 851 269 l 899 232 q 920 168 920 214 l 921 147 q 904 113 921 136 q 863 79 887 90 q 846 71 859 71 l 842 71 q 793 52 823 52 q 768 32 784 40 l 739 35 l 714 12 l 703 20 l 685 14 q 653 8 655 12 l 610 12 q 568 0 581 0 l 530 3 l 504 -9 l 489 -7 q 481 -3 485 -3 q 469 -9 474 -3 l 425 -9 l 412 -1 l 403 -9 l 336 -7 l 304 -1 q 282 -8 290 -8 q 243 9 267 -8 l 220 0 l 212 8 l 197 8 q 149 17 172 8 q 119 25 125 25 q 111 22 117 25 l 62 57 l 32 65 q 0 129 0 105 q 9 168 0 137 l 20 167 q 36 183 33 167 l 57 186 l 47 191 l 62 192 q 79 205 74 205 q 94 180 94 205 q 62 161 76 176 q 52 150 62 156 q 36 139 41 143 l 40 131 l 40 107 q 82 71 63 94 l 99 68 q 126 54 107 66 l 151 57 l 149 65 l 186 62 l 178 57 l 208 52 l 212 45 l 277 45 l 277 40 q 296 47 286 47 q 309 44 301 47 q 339 40 317 41 l 342 32 l 361 31 l 382 31 l 396 25 l 390 31 q 421 39 409 39 q 435 32 428 39 q 464 40 447 40 q 497 35 479 40 q 517 41 506 41 q 538 35 527 41 l 587 49 l 597 62 l 640 57 l 675 65 l 669 66 q 717 71 672 69 q 724 75 721 75 l 733 74 l 768 89 l 775 86 l 775 93 l 799 93 l 799 96 q 821 109 799 109 l 831 109 l 836 114 l 832 119 q 848 131 843 131 q 864 142 864 131 q 882 178 882 168 q 775 254 882 210 l 714 279 q 647 296 690 279 q 600 311 628 311 q 574 309 583 311 l 566 319 l 546 311 l 530 329 l 509 323 l 469 343 l 444 343 l 428 355 l 406 355 l 396 370 l 393 363 l 378 363 l 358 386 q 272 410 292 387 l 257 406 l 248 428 l 225 452 q 197 507 207 496 l 203 549 l 225 578 q 244 603 238 583 q 277 618 265 616 q 285 612 280 612 l 298 632 l 304 623 l 307 632 l 358 650 l 343 653 l 357 652 q 386 667 380 652 q 457 676 418 667 l 450 682 q 463 685 454 685 q 476 682 473 685 l 472 686 l 484 685 q 501 697 497 685 l 509 697 l 525 699 q 529 697 529 699 l 529 692 q 547 699 538 699 l 555 699 l 637 707 l 642 699 l 642 708 l 660 720 q 688 705 667 705 l 694 705 q 739 699 728 705 l 729 697 q 805 681 755 697 q 854 629 854 665 q 819 597 854 603 l 814 610 l 768 625 l 749 625 l 733 644 l 704 640 l 694 650 l 682 635 l 663 650 l 621 644 l 574 657 l 561 650 q 509 642 517 648 q 498 643 506 643 q 479 632 488 643 l 447 629 l 361 597 l 339 603 l 307 578 l 289 578 l 275 558 l 240 533 q 235 528 235 530 l 235 526 q 243 489 241 504 l 257 482 l 264 468 l 285 463 l 300 452 q 339 435 307 447 l 342 428 l 374 428 l 415 400 l 432 406 q 465 389 448 401 q 489 378 482 378 q 504 383 495 378 l 504 374 l 551 370 l 566 361 l 566 366 l 575 366 l 596 351 q 647 343 633 351 q 668 345 655 345 q 699 332 686 345 q 718 319 712 319 l 721 319 l 736 323 l 746 319 l 765 319 l 803 292 l 840 286 z "},"T":{"ha":821,"x_min":24,"x_max":909,"o":"m 909 672 l 903 657 l 885 654 l 843 654 l 823 650 l 807 654 l 721 647 l 692 654 q 640 640 656 640 l 599 640 l 574 650 q 564 640 574 643 q 527 635 545 640 q 493 629 509 629 l 465 640 l 441 629 l 439 621 l 427 621 l 419 607 l 414 517 l 419 504 l 416 489 l 418 449 l 414 408 l 414 396 q 410 383 414 387 q 404 361 406 378 l 415 343 l 412 321 l 403 314 q 411 293 403 306 l 403 279 l 403 264 l 392 248 l 399 208 l 396 151 l 386 115 q 389 107 389 110 q 386 98 389 103 q 386 88 384 93 q 387 79 387 83 q 380 61 387 75 q 376 44 374 47 q 380 22 376 43 q 374 -5 374 4 q 376 -36 374 -15 q 362 -34 368 -36 q 354 -32 355 -32 q 343 8 343 -32 l 346 29 q 343 62 346 41 q 340 94 340 84 l 349 192 q 338 212 338 210 q 345 225 338 220 q 339 237 339 232 q 347 245 339 241 q 342 264 342 259 q 347 284 342 271 q 351 298 351 296 l 350 321 q 363 351 350 325 q 351 370 351 351 q 359 406 351 401 l 359 463 l 351 490 l 359 549 l 351 590 l 359 623 q 340 642 354 642 q 328 635 333 642 l 308 633 q 286 625 297 632 l 269 627 l 253 625 l 253 621 l 241 621 q 204 629 218 621 l 201 621 l 172 629 l 92 632 l 60 623 q 24 664 24 654 q 29 686 24 667 l 52 686 l 150 667 l 174 675 l 239 672 l 300 667 l 340 682 l 351 682 l 363 714 l 382 708 l 386 694 l 395 699 q 427 675 406 684 l 449 682 q 488 664 471 682 l 496 675 l 547 685 l 579 682 q 604 676 593 676 l 611 676 q 632 681 624 681 l 652 677 q 660 682 658 677 l 688 686 l 720 679 q 739 676 726 672 q 755 681 751 681 l 781 676 l 850 677 l 880 672 l 909 672 z "},"U":{"ha":990,"x_min":136,"x_max":1018,"o":"m 1018 -12 l 1014 -45 l 978 -57 l 974 -71 l 954 -64 l 930 -79 l 916 -81 q 869 -66 882 -81 q 854 -52 857 -52 l 847 -57 q 800 -9 818 -41 l 806 -7 l 778 25 l 768 62 l 751 89 l 742 125 l 729 151 l 708 279 l 707 334 q 694 374 697 354 q 689 375 693 375 q 682 374 683 375 l 653 334 l 625 313 q 600 279 625 305 l 587 271 q 558 243 581 267 q 543 225 558 229 l 526 205 l 504 196 l 485 170 l 378 86 l 330 57 l 313 43 q 295 33 302 35 l 272 25 l 269 9 l 264 8 l 267 3 l 235 3 l 225 -1 l 232 -7 l 203 -9 q 174 20 181 16 l 174 45 l 161 57 l 147 142 l 143 153 l 139 208 l 147 236 l 143 257 l 147 279 l 142 351 l 136 364 q 149 376 140 370 q 157 393 157 382 l 147 406 l 153 435 l 142 457 l 142 472 l 153 490 l 147 517 l 157 558 l 151 612 l 157 644 l 151 650 l 161 650 q 168 667 161 667 l 172 667 q 168 672 172 668 q 218 625 210 665 l 208 610 l 192 526 q 189 503 189 510 q 203 460 189 490 q 184 328 184 372 q 185 309 184 315 q 196 289 186 302 q 191 228 191 270 l 180 212 l 196 200 l 183 191 q 179 171 179 180 q 186 139 179 154 q 198 101 194 124 q 212 66 202 77 l 235 66 l 267 65 l 269 74 q 279 77 278 77 q 286 74 283 77 l 286 75 q 296 85 286 82 l 298 104 l 323 98 l 334 119 l 355 129 q 371 142 360 142 q 383 139 375 142 l 386 153 q 425 172 412 170 l 425 183 l 440 186 l 447 193 q 463 197 459 193 q 472 222 467 201 l 511 243 l 517 260 l 526 257 l 536 281 l 561 292 l 566 301 l 581 313 l 581 330 l 593 336 l 607 355 l 629 366 l 632 378 l 640 378 l 635 383 q 659 399 644 399 l 663 399 l 663 415 l 672 419 l 703 479 q 714 517 707 494 l 720 549 l 728 566 q 736 597 732 574 l 738 622 q 746 653 739 635 l 760 664 l 781 653 q 810 625 791 640 l 803 612 l 806 587 q 786 571 806 571 l 781 566 l 781 553 l 771 536 l 771 511 l 761 485 l 764 450 q 750 427 750 431 q 758 411 750 418 q 768 399 766 404 l 760 396 l 751 378 l 760 355 l 755 313 l 768 292 l 764 292 q 757 283 754 292 q 764 232 764 258 q 774 215 774 222 q 768 208 774 212 l 778 178 q 812 66 787 133 l 828 45 q 847 14 836 24 l 886 -24 l 937 -35 l 943 -24 l 957 -31 q 974 -20 966 -21 q 993 -9 980 -9 l 1018 -12 z "},"V":{"ha":878,"x_min":52,"x_max":834,"o":"m 821 665 q 832 651 830 663 q 833 635 834 638 l 829 614 l 815 596 l 806 567 l 791 553 l 775 525 q 761 486 763 511 q 743 457 757 467 q 728 436 729 447 q 719 416 727 425 q 703 400 711 408 q 691 386 695 393 q 686 378 686 378 l 653 342 l 633 296 l 607 264 l 590 235 l 579 225 l 564 203 l 515 142 l 493 104 l 464 81 q 447 41 463 67 l 452 -7 q 441 -28 446 -24 q 428 -32 437 -32 q 411 -17 417 -32 q 396 13 405 -3 q 383 35 387 28 l 370 69 q 340 119 346 103 l 325 164 l 310 191 l 309 218 l 286 273 l 253 336 l 216 393 l 201 440 l 180 452 l 163 490 l 150 501 l 127 538 q 114 562 121 549 q 100 575 106 575 l 98 575 q 53 619 77 587 l 52 635 q 61 664 52 644 l 74 668 q 103 663 95 668 q 118 653 106 653 l 135 619 l 150 606 q 177 562 172 572 q 201 536 182 553 l 207 517 l 220 505 l 221 489 l 245 447 l 248 435 l 265 406 q 286 367 283 389 q 302 332 289 346 l 311 311 l 319 281 l 343 243 l 340 225 l 351 208 l 368 157 q 414 87 381 115 q 427 98 420 87 q 452 126 433 109 l 468 139 l 488 163 q 504 179 496 170 q 517 201 511 189 q 528 217 524 214 q 538 233 532 221 q 542 232 538 232 q 549 237 545 232 q 561 259 553 242 q 573 282 568 277 l 586 296 l 595 319 l 608 336 l 624 361 q 659 399 645 380 q 667 407 663 401 q 675 428 671 413 q 684 450 680 444 q 689 460 689 456 q 688 463 689 463 q 696 474 689 467 q 703 486 703 481 l 701 490 l 710 498 l 715 521 l 715 532 l 726 543 l 734 566 q 746 586 746 576 l 746 590 l 751 618 l 759 632 q 764 660 762 639 q 787 681 787 673 l 799 676 q 807 677 801 677 q 821 665 817 677 z "},"W":{"ha":1328,"x_min":77,"x_max":1324,"o":"m 1324 690 l 1308 664 q 1317 648 1317 654 q 1316 643 1317 646 q 1311 634 1314 640 q 1304 609 1308 628 q 1293 572 1299 590 q 1283 546 1287 555 q 1275 532 1278 536 q 1272 526 1272 527 l 1258 493 l 1242 464 l 1242 460 l 1185 383 l 1177 353 l 1149 321 l 1131 279 l 1111 272 l 1103 254 q 1080 222 1084 241 l 1072 203 l 1059 191 l 1050 174 l 1015 125 l 1010 109 q 1001 92 1007 98 l 986 74 l 986 49 l 974 25 l 983 -32 q 956 -45 975 -40 q 943 -49 951 -49 l 925 -40 l 907 12 l 876 65 l 875 104 l 847 129 l 832 164 q 817 197 823 176 l 808 225 q 793 257 803 243 l 783 271 q 777 288 778 279 l 774 311 l 760 321 l 749 375 l 726 425 l 729 435 q 703 500 703 474 l 703 507 q 682 479 693 503 l 667 465 q 621 431 654 459 l 621 429 q 607 410 621 418 q 587 399 593 402 q 571 393 578 399 q 551 373 563 388 q 532 352 538 357 l 517 338 l 485 296 l 452 243 q 426 223 431 227 q 410 196 421 219 q 403 175 406 176 l 387 170 l 387 153 l 375 147 l 366 119 q 351 87 355 105 q 340 74 340 82 l 343 66 l 343 62 q 351 41 343 50 l 342 40 l 347 26 q 334 8 344 14 l 336 -1 l 336 -8 q 319 -31 336 -31 q 301 -22 307 -31 l 264 32 l 257 52 l 218 121 l 203 178 l 178 228 l 174 260 l 157 292 l 143 343 l 143 361 l 109 475 l 114 493 l 106 501 q 104 507 106 503 q 99 518 102 511 q 93 533 96 526 l 93 558 l 86 618 l 77 632 l 85 654 q 93 676 93 665 l 93 682 q 109 704 97 704 q 138 688 125 704 q 151 647 151 672 l 151 642 l 147 632 l 153 625 l 147 603 l 147 581 l 164 463 l 163 450 l 178 419 l 192 330 l 200 313 l 212 254 l 222 250 l 222 232 l 229 218 q 235 183 232 212 l 243 180 l 250 143 l 260 139 q 290 97 277 98 q 309 136 305 132 l 319 136 l 343 165 l 349 182 q 366 205 351 191 l 366 218 q 395 241 366 223 l 400 267 l 431 298 l 440 321 l 460 329 q 488 364 461 361 l 492 376 q 511 383 511 376 l 511 387 l 521 400 q 538 416 527 414 q 566 447 566 431 l 566 450 l 581 452 q 597 489 593 465 l 607 489 l 621 514 l 632 514 q 650 526 640 514 l 650 553 l 662 569 q 667 585 665 574 l 672 614 q 696 636 696 629 q 694 640 696 639 l 717 640 q 749 612 738 615 l 751 593 l 747 557 l 751 514 l 786 428 l 783 408 l 792 393 q 800 361 796 386 l 812 353 l 828 275 l 839 252 q 848 216 844 241 l 865 201 l 889 142 q 939 62 932 62 l 939 64 q 937 68 939 65 l 943 109 l 961 121 l 964 136 q 990 154 968 142 l 1003 180 l 1006 194 q 1023 220 1007 200 q 1040 244 1040 226 l 1040 250 l 1060 254 l 1076 286 l 1111 323 l 1141 379 l 1162 410 l 1179 447 l 1198 467 q 1219 507 1208 478 l 1240 561 l 1232 571 l 1246 600 l 1242 612 l 1253 618 l 1253 629 l 1254 642 l 1242 654 q 1254 694 1243 677 l 1250 704 l 1260 704 q 1278 729 1265 729 q 1295 721 1286 729 l 1324 690 z "},"X":{"ha":876,"x_min":-24,"x_max":851,"o":"m 804 86 q 851 43 851 59 q 830 14 851 25 q 794 3 808 3 l 766 12 l 745 8 l 743 8 q 731 14 741 8 q 708 20 722 20 l 705 20 q 654 52 669 20 q 650 50 653 50 q 623 58 644 50 l 607 79 q 564 114 576 98 l 478 218 l 449 264 l 443 289 l 428 302 l 416 302 q 385 257 401 287 l 372 254 l 319 208 l 290 186 l 273 153 l 176 74 l 158 45 l 127 33 q 109 14 122 31 l 92 12 l 60 -24 l 43 -31 q 11 -49 20 -47 q -16 -77 -7 -77 q -24 -66 -24 -77 l -3 -49 q 16 -22 1 -46 q 33 0 31 -20 q 86 49 74 14 l 97 54 l 106 52 l 127 77 q 135 83 129 78 q 147 95 141 89 q 156 107 153 102 q 186 127 160 113 l 204 147 q 225 174 218 154 l 241 178 l 281 222 l 281 232 l 297 243 l 309 267 l 322 269 l 340 296 l 363 302 l 364 321 l 385 336 l 385 343 q 340 431 385 384 q 319 457 327 442 l 309 479 l 286 498 l 236 553 q 204 595 225 571 q 135 638 157 617 q 114 685 114 660 l 114 699 l 142 710 l 170 707 l 189 685 l 212 685 l 212 675 l 233 664 l 241 640 l 264 632 l 275 610 l 297 600 l 297 575 l 345 526 l 354 498 l 364 498 l 380 475 l 397 435 l 410 425 q 428 400 416 419 q 467 439 447 425 q 486 456 486 453 q 485 458 486 457 l 497 467 l 497 479 q 535 514 529 509 q 542 525 542 520 l 557 546 q 579 581 571 572 l 608 614 l 616 632 q 634 660 633 648 q 636 674 635 671 q 651 697 636 677 q 675 725 667 717 l 696 729 q 710 716 703 729 q 718 686 718 704 q 705 660 718 682 q 687 626 691 637 q 665 593 682 614 q 642 571 652 585 q 628 555 628 566 q 614 521 615 537 q 599 504 603 516 q 569 476 578 494 q 557 453 560 458 q 538 435 542 446 l 525 415 l 503 393 l 490 374 q 469 357 471 361 q 467 349 467 354 q 471 336 467 342 l 482 319 q 500 279 488 311 l 506 275 q 515 264 510 272 q 530 243 521 257 l 562 203 l 567 180 l 607 147 l 636 115 l 664 104 l 693 74 l 705 74 l 747 57 q 765 56 754 56 q 792 65 785 56 q 803 74 799 74 l 804 74 l 804 86 z "},"Y":{"ha":916,"x_min":41,"x_max":907,"o":"m 907 736 l 896 726 l 896 704 q 863 687 873 700 q 843 672 854 674 q 831 657 841 657 l 796 627 l 782 603 l 770 603 q 747 571 756 578 q 720 555 725 562 l 690 521 l 669 505 q 639 490 659 497 l 625 464 l 606 452 q 576 425 597 447 l 562 389 l 514 329 q 482 272 493 298 l 490 257 l 482 235 l 489 208 l 479 178 l 485 142 l 494 131 q 478 85 478 108 q 472 54 478 65 q 476 8 477 16 l 467 -57 l 468 -89 l 463 -103 l 472 -153 l 460 -174 l 468 -200 l 460 -214 q 473 -254 477 -242 q 463 -289 463 -285 l 471 -326 l 457 -361 l 472 -383 l 468 -433 q 450 -463 466 -458 l 441 -415 l 431 -374 l 428 -335 l 418 -329 l 425 -313 l 418 -289 l 425 -245 l 415 -200 l 419 -161 l 418 -153 l 419 -122 l 414 -57 l 419 -26 l 415 9 l 425 74 l 412 97 l 418 125 q 408 180 418 158 q 419 216 419 201 q 399 300 419 227 q 370 334 381 313 q 350 346 359 335 l 309 396 l 288 408 l 269 441 l 216 494 l 207 514 l 180 547 l 147 575 l 147 590 l 131 602 q 117 618 121 610 l 104 640 q 82 654 101 647 q 41 726 41 676 l 43 739 l 56 739 q 68 749 57 749 q 103 742 80 749 l 110 720 l 136 708 l 158 672 l 189 650 l 191 621 q 211 607 191 610 l 225 585 l 245 568 l 313 468 l 310 457 l 325 452 l 345 425 l 414 358 q 430 339 421 352 q 441 326 438 326 q 454 338 442 326 q 484 383 465 350 q 493 408 488 408 l 503 408 q 509 416 509 408 l 509 421 q 528 444 509 429 l 526 449 q 557 475 526 461 l 570 494 l 570 497 q 602 514 570 512 q 612 526 612 519 q 611 533 612 531 q 641 547 633 537 l 664 574 q 695 616 677 600 q 717 632 713 632 l 720 632 l 732 649 q 757 671 737 657 l 762 692 q 775 689 766 689 q 787 710 787 689 l 787 711 q 808 721 787 717 l 804 729 l 821 736 l 836 736 l 844 760 l 878 755 l 888 760 l 896 742 l 907 736 z "},"Z":{"ha":1223,"x_min":25,"x_max":1128,"o":"m 1031 52 l 1046 64 l 1067 107 l 1074 153 l 1082 164 q 1108 191 1096 191 q 1122 185 1116 191 q 1128 176 1128 179 l 1125 146 l 1111 102 l 1089 47 q 1075 23 1080 39 q 1067 3 1069 7 l 1053 -1 l 1046 -17 q 1013 -41 1019 -23 l 996 -31 l 981 -35 l 970 -26 l 964 -41 l 956 -35 l 939 -45 q 916 -35 926 -35 q 895 -40 905 -35 q 867 -33 894 -33 l 825 -35 l 787 -17 l 774 -17 l 770 -26 l 751 -12 l 736 -22 l 715 -7 l 653 -1 l 627 9 l 612 3 l 567 16 l 567 17 q 559 21 567 21 q 522 14 550 21 l 513 22 l 478 20 l 458 32 l 395 40 l 375 40 l 318 54 l 313 52 l 309 57 l 288 52 l 269 57 l 258 45 l 245 51 q 211 57 239 54 l 204 62 l 189 57 l 180 65 l 170 57 l 158 62 l 142 45 l 103 40 l 68 9 l 56 14 l 41 14 q 25 41 39 24 l 25 58 l 31 71 q 58 90 56 81 l 97 104 q 150 142 137 142 q 176 157 162 154 l 180 170 l 191 170 q 210 192 200 176 q 221 208 220 207 l 231 208 l 233 222 q 264 235 256 222 q 283 248 272 248 l 286 248 q 292 264 292 249 q 310 269 301 264 l 330 296 q 346 307 335 301 l 372 319 l 375 342 q 408 366 401 366 l 416 366 l 446 403 l 458 405 q 482 421 463 406 l 488 435 l 503 440 l 503 450 q 514 456 508 456 q 520 454 516 456 q 526 452 524 452 q 532 458 530 452 q 550 479 532 473 l 550 489 l 559 485 l 567 501 l 579 504 l 604 542 l 633 561 l 642 586 q 673 618 650 589 l 684 618 l 693 635 l 697 635 l 693 642 l 707 647 l 705 663 l 707 676 l 665 676 l 656 686 q 629 667 648 669 l 619 676 l 589 672 l 576 676 l 567 675 l 545 675 l 534 682 l 513 663 l 503 675 l 496 676 l 478 675 q 450 673 469 673 q 408 676 423 673 l 376 664 l 367 672 l 351 664 l 329 675 l 319 672 q 311 663 315 663 q 304 667 309 663 q 297 672 300 671 l 288 665 l 278 675 l 258 676 l 248 664 l 221 675 l 201 667 l 197 667 q 172 720 174 667 l 191 729 q 224 728 202 728 l 269 730 l 282 725 l 315 733 l 386 725 l 401 733 l 431 732 q 429 729 429 730 q 433 727 429 728 q 439 721 437 725 l 450 729 q 475 724 463 724 q 493 733 488 724 q 581 728 522 728 l 600 732 l 611 726 q 650 729 637 729 l 672 728 l 701 732 l 739 728 l 775 733 l 782 733 l 798 732 q 803 734 802 732 q 823 746 814 746 q 828 751 825 751 q 843 749 832 751 q 864 707 860 732 l 859 697 l 827 687 q 811 675 821 685 l 789 672 q 782 660 782 663 q 789 653 782 655 l 772 644 l 746 618 l 718 597 l 710 586 q 675 539 682 553 l 653 536 l 643 513 l 621 498 l 621 490 l 614 490 q 602 475 612 479 q 582 460 582 471 l 582 457 l 574 452 l 574 441 q 538 417 543 426 q 531 404 534 408 q 513 396 528 400 l 505 378 q 468 346 479 368 l 446 346 q 414 315 424 339 q 403 291 405 292 l 372 281 l 372 269 l 354 257 l 322 243 l 286 192 l 236 161 l 224 139 q 204 125 206 131 q 201 117 201 119 q 211 107 201 107 l 231 107 l 286 109 l 350 104 q 372 90 359 90 q 386 93 376 90 q 418 86 405 86 l 424 86 l 441 97 q 452 77 447 91 l 464 77 q 496 79 486 79 q 547 62 528 79 l 564 65 l 590 57 l 599 62 l 611 52 l 621 57 q 665 52 641 54 q 697 41 688 50 l 708 36 l 803 35 l 836 25 l 897 22 l 917 14 l 981 20 q 1031 52 1027 37 z "},"[":{"ha":555,"x_min":155,"x_max":568,"o":"m 568 -113 q 529 -123 551 -123 q 482 -109 504 -123 l 457 -115 l 444 -111 l 419 -119 q 387 -109 408 -119 q 368 -121 386 -121 l 346 -121 q 338 -118 340 -118 q 321 -125 330 -118 l 319 -125 q 275 -144 286 -127 l 262 -163 q 214 -140 229 -151 q 168 -154 178 -154 q 155 -143 157 -154 l 200 -118 l 197 -86 q 208 -56 208 -74 q 200 -20 208 -22 l 218 8 l 212 32 l 218 40 l 218 62 l 210 66 l 225 97 l 220 123 l 228 142 l 228 165 l 232 180 l 228 208 l 231 220 l 228 248 l 233 271 q 236 298 235 282 q 243 335 243 303 q 240 366 243 344 q 237 374 237 368 q 244 399 237 379 q 254 437 252 420 l 264 511 l 254 542 l 262 596 l 257 635 l 257 647 l 267 660 l 252 714 q 259 723 256 715 q 262 733 262 732 l 257 751 l 257 803 l 248 814 l 253 818 l 248 831 l 250 838 l 235 838 l 228 847 l 214 838 l 164 850 l 178 869 q 203 867 197 867 q 236 882 227 867 l 250 880 l 254 869 l 267 869 l 275 864 l 298 875 l 313 869 l 321 875 q 374 885 359 875 l 390 880 l 408 895 l 419 889 l 432 895 l 454 895 l 479 899 l 486 892 l 485 884 q 494 863 485 875 l 472 859 q 454 847 468 859 l 440 847 q 418 840 432 847 q 393 836 399 836 l 374 840 l 370 840 q 348 838 354 840 q 335 836 342 836 q 313 842 322 836 l 289 831 l 267 838 l 275 810 l 275 791 q 294 722 294 743 l 294 717 l 289 708 l 294 704 l 296 657 l 301 623 l 296 599 l 301 558 l 296 542 l 301 504 l 294 485 l 298 467 l 292 460 l 296 441 l 289 387 l 292 346 q 286 335 286 340 q 292 321 286 332 q 281 267 281 281 l 281 262 l 285 225 l 281 210 q 278 183 278 195 l 278 175 q 272 150 272 164 l 272 98 l 268 75 l 268 35 l 275 8 l 275 -36 q 292 -103 275 -103 q 312 -96 301 -100 q 332 -92 323 -93 l 352 -91 q 372 -87 364 -90 l 393 -79 l 406 -83 l 440 -79 l 452 -71 l 457 -79 l 504 -81 q 525 -71 514 -71 q 547 -78 536 -71 q 558 -93 558 -86 l 558 -103 l 568 -113 z "},"\\":{"ha":574,"x_min":-1,"x_max":571,"o":"m 571 -52 l 561 -57 q 547 -35 547 -52 q 524 0 536 -28 l 526 14 l 511 25 l 514 35 l 494 46 l 486 62 l 467 87 q 437 122 459 101 l 437 139 l 406 189 l 393 193 l 387 211 l 353 256 l 349 268 l 329 269 l 329 292 l 323 309 l 248 411 l 240 433 l 183 504 q 170 530 182 521 q 155 542 157 538 l 136 574 l 119 595 l 111 619 l 72 669 l 50 710 q 18 757 35 737 q -1 779 -1 769 l -1 783 q 1 799 -1 785 q 31 812 19 802 l 65 808 l 66 786 l 85 777 q 81 771 81 774 q 97 757 81 765 l 97 725 l 109 703 l 109 688 l 123 684 l 119 667 l 151 632 q 150 619 150 628 q 175 589 150 594 q 187 564 187 576 q 215 522 187 526 l 228 500 l 242 487 q 260 461 249 481 l 262 448 q 282 415 262 441 l 296 412 l 298 389 l 317 382 l 317 367 l 339 347 l 346 325 l 358 325 l 371 297 l 371 278 l 393 233 l 401 229 q 431 180 406 214 l 431 170 l 452 155 l 464 113 l 472 117 q 484 90 481 107 l 509 58 q 520 51 517 54 q 526 41 524 48 l 529 25 l 561 -25 l 571 -52 z "},"]":{"ha":555,"x_min":-12,"x_max":400,"o":"m 400 879 l 355 854 l 358 822 q 346 785 346 808 l 347 768 q 355 755 347 762 l 338 728 l 343 703 l 338 696 l 338 673 l 346 669 l 330 639 l 336 612 l 328 595 l 328 570 l 323 555 l 328 528 l 325 515 l 328 489 l 323 468 q 319 436 319 446 q 313 390 313 432 q 315 370 313 386 q 319 359 319 363 q 312 340 319 357 q 301 297 304 323 l 292 225 l 301 195 l 293 140 l 298 102 l 298 87 l 289 75 l 304 21 q 293 3 297 20 l 298 -16 l 298 -68 l 309 -78 l 302 -82 l 309 -94 l 306 -102 l 321 -102 l 328 -113 l 342 -102 l 392 -114 l 378 -135 q 350 -132 357 -132 q 319 -146 329 -132 l 306 -144 l 301 -135 l 289 -135 l 281 -129 l 257 -139 l 243 -135 l 235 -139 q 182 -149 199 -139 l 165 -144 l 147 -158 l 136 -153 l 123 -158 l 102 -158 l 77 -163 l 69 -155 q 71 -147 71 -153 q 61 -126 71 -136 l 78 -123 q 102 -111 86 -122 l 115 -113 q 138 -104 123 -113 q 165 -100 152 -100 q 182 -104 176 -100 l 187 -104 q 208 -102 201 -104 q 222 -100 215 -100 q 243 -107 231 -100 l 267 -94 l 289 -102 l 281 -74 l 281 -56 l 269 -28 l 264 -3 q 260 11 260 5 l 261 18 l 267 26 l 261 31 l 260 79 l 254 114 l 260 136 l 254 176 l 260 195 l 254 231 l 261 252 l 257 269 l 264 275 l 260 293 l 267 347 l 264 390 q 269 401 269 395 q 264 414 269 408 q 275 469 275 454 l 275 473 l 271 511 l 275 530 q 278 549 277 539 q 281 567 278 559 q 283 585 283 574 l 283 636 l 288 660 l 288 701 l 281 728 l 281 772 q 264 839 281 839 l 243 832 q 222 829 232 829 l 201 827 q 163 815 192 827 l 150 819 l 115 815 l 104 807 l 98 815 l 52 817 q 31 807 41 807 q 8 814 18 807 q -1 829 -1 822 l -1 839 l -12 848 q 26 859 5 859 q 74 844 51 859 l 98 851 l 111 847 l 136 856 q 168 844 148 856 q 187 857 168 857 l 214 857 l 223 859 q 252 863 238 861 q 274 873 267 866 q 293 899 282 881 q 342 876 326 886 q 387 889 373 889 q 400 879 399 889 z "},"^":{"ha":1389,"x_min":279,"x_max":1107,"o":"m 1107 608 l 1050 608 l 693 924 l 334 608 l 279 608 l 642 991 l 745 991 l 1107 608 z "},"_":{"ha":555,"x_min":0,"x_max":555,"o":"m 555 -201 l 0 -201 l 0 -147 l 555 -147 l 555 -201 z "},"`":{"ha":694,"x_min":172,"x_max":425,"o":"m 425 689 l 415 672 l 397 677 l 385 692 l 372 692 l 370 704 l 359 703 q 344 718 349 717 q 317 722 339 720 l 306 741 l 297 743 l 294 760 q 269 779 277 763 q 241 815 242 789 l 231 815 l 216 831 l 211 831 q 200 846 208 831 q 182 871 193 861 l 172 868 l 172 876 q 186 901 177 881 q 214 920 208 909 q 237 909 224 913 l 248 890 l 275 856 l 289 825 l 300 814 q 314 786 304 810 l 334 777 l 343 760 l 363 749 l 368 741 q 390 720 377 736 q 415 689 414 711 l 425 689 z "},"a":{"ha":688,"x_min":66,"x_max":566,"o":"m 566 12 l 546 3 l 542 -9 q 521 -17 530 -12 l 514 -12 l 504 -17 l 482 9 l 482 40 l 472 49 l 475 92 l 467 180 l 472 210 l 463 225 l 475 232 l 467 244 l 469 257 l 476 262 l 475 279 l 482 279 l 482 307 l 485 321 q 472 334 479 322 l 450 323 q 432 301 441 307 l 431 286 l 415 279 l 412 260 l 403 253 l 403 243 q 383 218 389 233 l 374 212 l 353 175 l 319 142 l 309 123 l 279 93 l 272 77 l 232 49 l 187 -4 l 172 -8 q 151 -22 165 -9 l 147 -22 q 129 0 136 -22 q 74 58 77 20 l 85 65 q 74 119 75 92 l 66 125 l 71 132 q 75 146 74 136 q 79 174 77 156 l 89 225 q 87 235 87 228 q 92 250 87 242 q 89 265 89 260 q 92 279 89 271 l 97 281 q 109 307 109 296 q 104 318 109 314 q 100 323 100 322 q 107 330 100 328 q 97 339 97 332 q 111 346 97 346 l 111 349 q 120 376 111 363 q 129 393 128 389 l 119 396 l 138 425 l 138 432 q 157 482 138 461 l 155 507 l 161 511 q 157 525 157 517 q 165 529 157 529 l 165 551 q 172 558 172 553 q 171 566 172 563 q 190 588 175 572 q 210 615 205 604 l 214 615 q 229 623 229 615 q 225 629 229 625 q 254 640 253 629 l 279 653 l 351 647 l 351 642 l 410 629 l 415 629 q 428 618 428 629 l 435 621 q 450 608 438 608 l 457 610 l 469 597 l 498 590 l 498 578 q 549 600 518 591 l 549 578 l 542 578 l 555 571 l 553 568 l 564 533 l 551 519 l 546 496 q 533 468 543 485 l 542 450 q 534 439 541 448 q 528 408 528 431 q 532 401 532 406 l 529 390 l 530 380 l 526 366 l 529 353 l 521 343 l 524 313 l 519 309 l 524 302 l 519 298 q 521 293 521 297 q 517 281 521 287 l 521 272 l 514 260 q 509 240 509 256 l 514 222 l 501 205 q 514 187 508 191 q 497 134 504 173 l 509 131 l 507 123 q 509 114 509 121 q 498 86 509 103 l 507 86 l 511 65 l 539 62 l 549 45 q 545 40 545 42 q 558 26 545 35 l 557 26 q 554 25 554 26 q 566 12 554 22 m 494 511 l 486 536 l 464 543 l 425 578 q 411 583 416 583 q 400 581 408 583 l 393 587 l 371 587 l 364 596 l 349 590 l 342 596 l 330 593 l 309 596 q 260 581 293 596 l 262 575 l 250 571 l 248 566 l 232 564 l 232 555 q 200 511 218 547 q 175 440 189 469 l 186 435 l 168 419 l 174 408 q 161 366 161 390 l 161 358 l 151 343 l 151 319 q 139 294 140 307 l 134 289 l 134 264 l 129 257 q 123 220 129 243 l 131 203 q 111 186 122 199 l 117 175 l 109 164 l 119 136 l 107 119 l 109 86 l 104 71 l 111 66 l 114 57 q 134 41 125 52 l 165 49 q 196 71 174 69 l 193 81 q 215 86 214 86 q 218 94 216 87 q 231 109 220 102 l 233 109 q 237 114 237 109 l 262 143 l 257 143 l 272 157 q 294 170 279 164 l 304 196 q 334 225 330 207 l 342 225 l 355 243 l 353 254 l 366 257 q 363 264 363 262 q 372 279 363 266 q 387 301 382 292 l 393 298 q 408 323 395 315 q 419 341 411 334 q 431 347 427 347 l 440 347 l 441 364 q 444 370 444 367 q 440 378 444 374 q 460 403 452 398 l 463 418 l 472 425 l 469 437 q 479 463 477 450 l 492 475 l 494 511 z "},"b":{"ha":646,"x_min":100,"x_max":557,"o":"m 557 210 l 547 197 l 550 164 l 521 123 l 521 107 l 503 86 l 510 74 q 481 31 496 61 l 453 14 q 435 1 446 3 q 414 -4 424 -1 l 411 -12 l 407 -7 l 395 -12 l 386 -7 q 367 -14 378 -7 l 370 -20 l 350 -17 l 345 -24 l 335 -17 l 310 -31 l 297 -17 l 269 -20 l 246 -13 q 211 8 221 -6 l 195 14 l 186 40 q 167 54 184 50 l 154 49 l 135 57 l 114 104 l 118 115 l 110 131 l 110 157 l 104 168 l 110 191 l 100 203 l 104 218 l 104 262 l 110 277 l 113 366 l 118 400 l 113 406 l 122 437 l 118 457 l 118 476 l 125 486 q 118 530 122 526 l 131 575 l 122 623 l 131 628 l 125 644 l 125 669 l 122 711 l 126 724 l 121 749 l 126 751 q 119 760 119 755 q 123 767 119 762 q 126 779 126 773 l 126 783 l 121 796 q 123 814 123 807 q 113 844 123 829 q 121 854 113 854 l 113 875 l 118 892 l 107 920 l 122 921 l 121 933 l 131 939 q 140 914 136 932 l 154 903 l 144 895 l 163 872 l 154 860 l 144 857 q 155 844 155 846 q 150 838 155 840 l 157 828 l 150 822 l 163 812 q 157 799 157 807 l 170 771 l 164 755 l 170 751 l 163 749 q 170 734 170 739 q 158 720 170 728 l 172 717 q 168 688 169 700 q 157 660 166 675 q 167 635 167 656 l 163 618 l 167 606 l 154 549 l 167 530 l 154 507 l 158 486 l 154 472 l 163 460 l 150 447 l 154 437 l 153 425 l 154 418 l 150 406 l 157 393 l 150 383 l 157 370 l 150 364 q 154 347 154 353 q 144 330 154 338 l 153 323 l 150 302 l 150 248 q 163 236 161 236 q 172 257 172 236 l 172 262 q 186 279 178 267 q 195 292 195 290 l 195 301 l 201 309 q 212 347 203 336 l 211 374 l 220 375 l 221 383 l 225 380 l 229 400 l 239 419 l 239 428 l 248 444 l 245 457 l 258 475 l 268 479 l 268 489 q 281 511 279 495 l 296 529 l 302 526 l 302 533 l 310 539 q 328 574 311 551 q 322 581 322 577 q 329 586 322 585 l 332 593 q 357 607 338 594 l 364 628 l 372 628 l 370 635 q 408 644 382 644 l 397 647 l 411 654 l 416 654 l 411 660 l 419 663 l 416 667 l 431 667 l 429 663 l 464 657 l 471 644 q 478 607 475 637 l 490 606 l 493 586 l 505 575 l 505 558 l 510 551 l 509 539 l 525 530 l 528 504 l 528 498 q 545 457 528 484 q 534 440 540 444 q 547 432 541 432 q 557 435 553 432 q 545 412 557 418 l 553 355 q 557 349 557 353 l 554 336 l 553 262 l 557 250 l 553 228 l 557 210 m 525 311 l 521 342 l 521 366 l 510 437 l 497 489 l 478 536 l 446 590 q 435 606 443 597 l 414 600 l 404 603 l 395 590 l 376 586 l 376 568 q 366 564 376 566 q 350 543 355 562 q 328 519 333 528 q 313 498 323 509 l 306 498 l 297 467 l 286 450 l 268 406 q 260 371 268 385 q 241 339 252 357 l 243 317 l 224 289 l 212 243 l 199 232 q 200 229 200 231 q 199 225 200 227 q 201 203 201 218 q 195 170 201 183 l 184 165 l 191 143 l 179 139 l 180 125 l 176 114 q 164 98 164 106 q 172 92 164 92 q 167 82 167 86 q 172 74 167 79 l 201 86 l 221 85 q 224 81 221 81 l 225 81 q 243 69 241 81 l 245 77 l 248 65 q 268 58 262 62 l 268 40 q 290 22 277 36 l 338 22 l 376 32 l 379 40 l 387 35 l 399 43 q 429 54 404 47 l 427 62 l 439 62 l 439 69 l 443 69 q 457 86 452 69 q 464 104 462 102 l 503 147 l 503 165 l 518 197 l 518 236 l 522 277 l 521 296 l 525 311 z "},"c":{"ha":572,"x_min":66,"x_max":530,"o":"m 530 221 l 509 197 q 506 178 508 186 q 501 163 505 170 q 491 151 497 157 q 477 127 488 147 q 461 101 470 113 q 442 79 452 89 q 418 62 431 70 q 385 37 399 52 l 373 35 q 347 18 368 35 l 332 17 l 300 -7 l 289 0 l 260 -14 l 232 -7 l 224 -17 l 207 -14 l 191 -17 l 186 -12 l 167 -9 q 147 0 155 -7 l 125 18 l 104 49 q 90 86 90 64 l 90 92 l 75 115 l 75 136 l 69 144 l 72 172 l 66 195 l 75 216 l 69 227 l 83 249 l 79 278 l 83 290 q 96 318 85 307 l 97 350 l 107 358 l 103 367 l 113 380 q 142 468 117 406 l 165 492 l 172 509 l 183 528 q 197 558 186 544 q 225 570 212 558 q 267 593 224 593 q 293 586 273 593 q 319 564 313 579 q 340 549 340 564 l 380 547 l 382 534 l 390 525 l 389 509 l 399 496 l 397 478 l 400 468 l 397 440 l 404 431 l 404 416 l 408 387 l 380 372 l 351 407 l 349 452 l 343 468 l 343 485 l 327 505 q 296 529 319 514 l 277 521 l 260 521 q 230 509 244 519 q 199 469 216 500 q 170 431 181 438 l 168 411 l 157 401 l 157 374 l 143 355 l 138 336 q 126 304 130 321 q 119 285 123 286 l 121 262 l 109 233 l 111 212 l 106 211 l 104 158 l 102 157 l 104 144 l 98 139 l 119 115 q 126 93 122 111 l 122 89 l 136 69 l 147 65 l 149 52 l 222 35 q 240 45 232 45 q 254 41 243 45 q 273 50 267 50 l 283 49 q 293 55 284 49 q 319 61 302 60 q 349 85 331 85 q 359 83 355 85 q 395 110 395 98 q 424 125 402 125 l 429 125 q 484 193 486 188 q 507 232 499 207 l 519 240 l 521 258 q 530 221 530 251 z "},"d":{"ha":760,"x_min":66,"x_max":660,"o":"m 660 65 q 623 -7 645 12 q 600 8 606 -1 l 575 47 l 566 69 l 547 134 l 547 196 l 543 250 l 547 281 l 543 307 l 543 346 l 530 364 l 525 353 l 514 351 l 493 302 l 468 267 l 457 267 l 454 252 q 446 234 452 244 q 432 210 440 224 l 395 168 l 366 125 l 334 92 q 309 57 323 73 l 290 42 q 267 14 281 35 l 243 5 q 227 -9 239 4 l 210 -13 q 182 -26 203 -14 l 170 -24 l 165 -32 l 150 -31 l 106 3 q 90 43 95 18 q 74 69 84 68 l 66 66 l 81 89 l 74 111 l 79 129 l 77 155 l 86 197 l 86 236 l 96 250 l 96 285 q 106 317 106 304 l 111 321 l 111 346 l 123 368 l 125 387 q 138 415 134 400 l 144 457 q 160 482 146 471 l 161 497 q 170 515 163 504 q 178 536 178 527 q 212 566 198 557 l 210 571 q 220 578 218 573 q 228 576 222 576 q 236 578 233 576 l 229 581 l 289 597 q 313 600 302 599 q 323 604 323 600 l 323 606 l 346 607 l 358 600 l 366 603 q 376 596 368 596 q 382 597 379 596 l 404 596 l 404 590 l 410 593 l 431 575 l 452 581 l 464 558 l 486 540 q 498 519 490 536 l 521 507 q 538 496 532 496 q 543 501 542 496 l 553 549 l 564 574 l 559 610 l 566 675 l 559 692 q 570 721 570 704 l 564 733 l 568 771 l 564 810 l 570 818 l 564 822 q 571 833 571 829 q 568 842 571 836 q 572 861 572 852 q 568 882 572 871 l 575 882 q 572 895 572 887 q 586 911 572 903 l 581 914 l 587 916 q 597 904 595 916 q 610 886 608 902 l 603 886 l 604 864 l 603 851 l 595 851 l 610 835 l 604 815 l 614 793 l 607 783 q 614 758 614 767 q 610 742 614 750 l 621 733 q 614 725 614 729 q 625 714 614 718 l 625 710 q 614 694 625 701 l 614 682 q 603 566 614 648 q 604 555 604 563 q 597 529 604 545 l 603 517 l 595 485 l 591 451 q 582 428 590 444 l 586 412 l 578 387 l 586 368 l 575 325 l 582 292 l 578 272 l 581 254 l 572 250 q 586 227 586 228 q 578 218 586 220 l 581 210 l 578 205 l 587 196 l 581 174 l 590 143 l 586 134 l 590 123 l 582 98 l 589 92 l 600 92 l 610 79 l 629 85 l 636 74 l 660 65 m 528 444 l 519 447 l 505 460 l 494 467 q 483 485 491 468 q 464 511 475 501 q 452 519 456 514 l 452 529 l 431 533 l 410 545 q 394 551 404 549 q 366 558 383 554 l 323 553 l 311 546 l 298 555 l 277 549 l 249 549 l 244 536 l 236 533 q 241 519 236 522 q 207 489 234 507 l 197 464 l 184 457 l 172 419 l 168 378 l 155 366 l 155 342 q 140 319 140 328 l 143 286 l 121 243 l 115 212 l 114 165 l 118 155 l 109 136 l 115 125 l 104 102 q 123 52 116 80 l 136 45 l 134 36 l 147 36 q 164 26 161 26 q 171 33 165 26 q 192 40 176 40 l 192 35 q 203 47 201 41 q 214 57 214 47 l 227 62 l 232 58 l 236 74 l 264 85 l 267 97 l 286 109 l 286 115 l 301 131 l 306 129 q 311 139 311 129 l 321 139 l 321 147 l 343 157 l 338 178 l 353 187 l 343 197 q 351 196 346 196 q 368 203 359 196 l 370 208 l 385 210 l 400 250 l 414 264 l 419 289 l 436 294 q 467 336 455 327 l 467 355 l 479 361 l 514 431 l 528 444 z "},"e":{"ha":498,"x_min":61,"x_max":454,"o":"m 444 125 q 454 102 454 109 q 442 79 454 96 q 422 41 429 61 l 412 40 l 397 11 l 380 8 l 343 -17 l 336 -32 l 325 -31 l 313 -45 l 293 -45 l 289 -52 l 279 -50 q 253 -64 264 -50 l 244 -57 q 221 -64 230 -64 q 196 -57 205 -64 q 178 -58 189 -58 l 170 -52 q 119 -31 132 -50 l 119 -14 l 97 -1 l 92 13 q 77 31 89 20 l 77 41 l 61 107 l 64 154 l 69 180 l 69 210 l 77 235 l 74 253 q 83 268 81 259 q 92 289 85 277 q 86 323 89 301 l 98 334 l 86 347 q 96 367 96 363 l 89 408 q 93 437 89 423 q 111 425 101 425 q 138 431 117 425 q 136 440 136 435 q 147 457 136 450 q 178 521 158 491 q 191 549 191 531 l 197 549 l 204 562 l 212 566 q 227 586 215 574 q 264 618 242 591 q 275 616 267 616 q 286 632 277 616 q 311 640 310 640 q 323 632 317 640 l 336 635 l 343 629 l 351 629 q 379 607 359 607 l 383 607 q 392 593 385 597 l 386 590 q 410 536 410 578 l 406 521 l 410 482 l 403 476 l 387 435 l 359 400 l 358 380 q 277 325 309 340 q 268 317 274 317 q 257 319 265 317 l 227 298 l 208 298 l 182 286 l 170 293 q 142 298 165 296 q 121 248 121 279 l 111 236 q 104 200 109 210 l 97 196 l 104 146 l 97 139 l 98 123 l 97 104 q 100 79 97 100 q 111 54 104 58 q 124 31 108 45 q 160 12 141 18 l 160 4 l 196 -1 l 248 -4 l 282 0 q 313 18 303 15 l 323 35 l 336 35 l 338 41 q 371 55 368 52 q 374 62 374 59 q 386 71 378 71 l 390 79 q 428 119 420 84 q 444 125 435 125 m 330 441 q 349 458 336 442 l 353 475 q 372 511 370 503 q 375 530 375 519 q 366 571 375 542 l 338 581 q 323 578 327 578 l 315 581 q 301 568 305 581 q 264 558 289 568 l 260 549 q 254 550 257 550 q 251 549 252 550 q 248 547 249 549 q 245 544 246 546 q 242 540 243 543 q 240 534 241 537 q 238 528 239 531 q 230 516 237 525 l 220 504 l 200 467 l 190 458 q 182 440 185 454 q 146 375 180 427 l 155 370 l 160 358 l 183 351 q 225 370 203 365 l 229 378 q 240 375 237 375 q 253 383 247 375 l 269 386 l 279 403 l 289 403 l 296 418 q 330 435 314 418 l 330 441 z "},"f":{"ha":547,"x_min":-7,"x_max":640,"o":"m 640 848 q 632 831 640 839 l 627 836 l 614 828 l 603 854 q 581 903 590 892 q 567 914 572 914 l 557 907 q 518 920 541 918 l 503 908 q 481 914 492 914 l 447 909 q 441 892 441 901 q 436 886 438 886 q 433 889 435 886 q 429 892 431 892 q 374 808 419 892 q 363 761 368 772 l 355 760 q 336 708 348 731 l 347 681 l 330 673 q 317 627 326 638 l 318 604 l 298 553 l 301 526 q 292 497 301 517 q 285 471 285 489 q 307 447 285 447 l 315 447 q 336 456 326 456 l 342 456 q 363 458 349 456 q 378 459 365 460 q 401 457 391 457 l 412 457 q 429 463 427 463 q 458 453 435 463 l 489 460 q 496 457 490 460 q 510 454 503 454 q 528 457 521 454 q 541 447 535 447 q 558 454 552 454 q 562 447 562 454 q 559 431 562 444 l 521 418 l 479 427 q 446 414 470 418 q 428 425 435 425 q 400 408 423 425 q 375 412 394 408 l 371 406 l 350 396 l 335 404 l 325 403 l 314 403 q 300 393 309 401 q 281 383 292 384 l 265 366 l 269 347 l 264 325 l 269 302 l 254 269 l 258 211 l 250 189 l 254 170 l 241 136 l 249 106 l 249 104 q 244 86 249 102 q 239 49 239 71 l 237 12 q 248 -17 237 -7 l 241 -35 l 250 -66 l 244 -87 l 260 -163 l 264 -245 l 286 -277 l 277 -283 l 272 -304 q 289 -346 289 -327 l 289 -353 q 293 -376 293 -368 q 277 -396 293 -394 l 269 -380 l 258 -374 l 257 -358 l 229 -278 l 229 -257 l 220 -245 l 228 -232 l 221 -201 l 227 -178 q 223 -168 227 -177 q 220 -144 220 -158 q 220 -129 220 -130 l 210 -57 l 215 -54 l 208 -20 l 211 5 l 204 18 l 210 28 l 208 102 l 214 109 l 214 165 l 220 178 l 216 225 l 220 239 l 232 332 q 236 349 233 338 q 239 366 239 360 q 227 393 239 366 l 204 383 l 183 390 l 170 382 l 154 392 l 150 386 l 127 382 l 104 387 l 65 380 l 45 385 l 39 380 q 7 394 16 389 q -7 421 -1 400 l 0 441 q 12 450 2 450 q 37 444 18 450 l 41 435 l 86 440 l 142 436 l 180 446 l 208 444 q 235 435 227 444 q 252 446 235 439 l 248 458 l 254 486 l 256 512 q 265 546 257 525 l 260 581 q 265 589 260 583 q 269 606 269 596 l 269 612 l 282 625 l 289 671 l 297 682 l 293 703 q 309 736 304 722 q 307 743 307 739 q 313 764 307 749 q 320 786 318 779 q 329 803 323 793 q 335 821 335 814 l 334 828 l 334 832 q 345 848 334 842 l 340 856 q 353 869 340 861 q 376 916 368 892 q 399 947 388 917 l 419 954 l 437 954 l 447 966 l 472 958 q 509 970 494 970 l 536 964 q 554 958 552 958 q 574 964 560 958 q 586 943 579 960 l 607 929 q 636 884 618 901 l 640 852 l 640 848 z "},"g":{"ha":804,"x_min":64,"x_max":684,"o":"m 684 174 l 672 121 l 675 109 l 669 102 q 677 72 677 87 l 675 58 l 676 31 q 670 -35 676 5 q 663 -89 664 -75 l 661 -109 q 646 -147 660 -118 l 653 -147 l 650 -168 l 642 -178 q 632 -201 637 -183 q 621 -232 627 -220 q 603 -261 614 -244 q 580 -288 593 -277 q 543 -319 567 -298 l 522 -329 q 497 -343 506 -342 l 490 -351 q 440 -361 441 -361 l 437 -361 l 435 -366 q 390 -374 416 -374 l 340 -374 l 304 -366 l 282 -370 l 272 -361 l 232 -355 l 216 -340 q 180 -318 208 -334 q 136 -273 144 -303 l 142 -267 l 136 -241 q 149 -235 141 -235 q 157 -229 153 -229 q 173 -232 159 -229 q 205 -236 186 -235 l 204 -250 q 224 -258 212 -250 q 221 -270 224 -264 l 218 -277 q 231 -294 218 -292 q 233 -304 231 -303 q 243 -307 235 -304 l 301 -326 l 317 -323 l 319 -329 l 350 -329 q 374 -334 361 -329 q 447 -318 387 -323 q 469 -307 459 -316 q 500 -296 495 -304 l 504 -296 q 517 -293 511 -296 q 528 -285 524 -290 l 575 -236 l 602 -196 l 603 -178 l 618 -155 l 621 -135 l 628 -118 l 636 -77 l 647 -36 l 646 -7 l 646 4 q 656 54 646 35 l 647 85 l 647 157 l 637 183 l 637 225 l 625 254 l 628 301 l 611 353 q 602 357 607 357 q 583 343 593 357 l 586 329 l 567 321 l 557 294 l 539 277 l 514 236 l 481 212 l 441 168 q 409 140 424 152 q 379 116 395 127 q 361 101 364 105 l 355 91 q 336 77 351 86 l 314 66 l 302 54 q 272 35 296 47 q 254 25 267 25 l 250 25 q 189 1 222 1 q 170 3 176 1 l 158 -4 q 129 3 151 0 q 72 86 77 54 l 64 140 l 66 175 l 82 228 l 81 244 l 86 267 q 99 302 92 291 q 107 336 106 314 l 109 358 l 136 412 q 144 422 138 415 q 168 458 151 429 l 183 475 q 206 507 194 500 q 224 539 218 514 q 252 551 231 547 q 282 578 274 555 l 292 575 l 317 593 q 342 608 330 608 q 353 606 345 608 l 393 621 l 419 615 l 437 615 l 452 606 l 460 606 q 487 576 463 599 q 513 549 510 554 q 504 517 512 530 l 482 517 l 464 546 q 435 564 439 556 l 428 561 q 399 570 409 570 q 351 551 376 570 l 342 553 l 339 543 l 326 543 l 309 539 q 285 519 301 519 q 258 497 269 503 l 250 479 l 237 476 l 236 467 l 224 467 l 201 428 l 183 415 l 175 390 l 156 361 q 151 329 153 355 l 136 313 l 121 250 l 107 235 l 109 210 l 92 153 l 97 134 l 94 107 q 105 86 100 102 q 119 66 110 71 l 123 53 q 142 45 138 49 q 161 49 152 49 l 175 46 q 192 49 178 46 q 258 66 201 60 q 275 86 265 74 q 293 104 284 98 q 316 119 302 109 q 336 131 330 129 q 361 157 361 137 q 399 186 395 170 l 410 189 q 424 200 414 191 q 456 240 435 210 l 464 235 l 469 248 l 485 253 q 484 260 484 255 q 492 277 484 269 q 502 278 497 277 q 508 286 506 280 l 513 296 l 539 330 l 545 330 l 549 358 q 586 447 557 363 l 596 450 l 589 472 l 584 494 q 575 515 581 507 l 561 539 l 570 561 l 564 586 q 579 600 570 600 q 587 598 583 600 q 602 575 590 596 l 615 568 l 614 543 l 620 525 q 623 511 623 517 q 629 491 624 505 q 633 472 633 478 q 629 467 633 467 q 647 431 635 447 l 643 403 q 659 378 659 382 q 650 361 659 370 l 653 343 l 663 339 l 659 321 l 664 285 q 671 254 671 269 q 669 252 671 254 q 665 220 665 244 l 675 212 l 684 174 z "},"h":{"ha":713,"x_min":89,"x_max":604,"o":"m 603 8 q 604 -9 604 1 q 574 -41 604 -41 q 546 -7 553 -41 l 536 36 l 536 49 q 538 72 538 58 q 524 109 538 88 l 533 131 l 528 164 l 533 180 l 533 203 l 536 222 l 530 244 l 536 257 l 536 309 l 538 375 l 528 419 l 533 437 l 521 490 l 521 507 l 498 517 l 473 494 q 460 485 468 489 l 436 475 l 397 419 l 382 415 l 347 358 l 347 351 l 338 351 l 334 339 l 319 325 q 306 298 311 316 l 292 250 l 271 223 q 261 200 267 218 l 248 187 l 241 151 l 212 123 l 210 85 l 204 85 l 195 58 l 172 18 q 140 -22 146 -12 l 134 -20 l 125 -20 l 121 -12 l 109 35 l 106 111 l 102 134 l 106 161 l 104 210 l 111 212 l 121 330 l 125 353 l 123 370 l 131 374 l 127 383 l 134 432 l 140 452 l 136 472 l 140 482 l 136 490 l 140 536 l 134 543 l 138 553 l 136 606 l 127 629 l 136 629 l 136 642 l 123 699 l 123 726 l 118 739 l 111 783 q 89 840 103 814 l 104 863 l 102 867 q 118 850 118 867 l 138 832 l 143 816 q 160 793 146 808 l 157 781 l 165 755 l 157 743 l 170 733 l 168 697 l 170 628 l 178 593 l 172 578 l 174 551 l 168 529 l 172 494 l 163 460 l 168 450 l 165 366 l 168 353 l 163 346 l 157 294 l 150 279 l 155 262 l 153 254 l 150 208 l 136 168 q 151 144 151 151 l 140 125 q 147 92 147 111 l 160 102 l 165 119 l 187 164 l 197 196 q 220 225 220 203 q 240 258 224 227 l 246 276 q 260 298 249 285 l 261 317 l 257 321 l 267 329 l 269 325 l 292 353 q 302 370 302 358 l 302 375 q 321 400 321 378 l 325 403 l 325 410 l 336 412 l 338 431 l 347 431 l 346 441 l 355 441 l 355 450 q 367 457 365 457 q 368 454 368 457 l 368 452 l 370 464 l 374 464 q 390 490 390 464 l 407 504 l 410 498 q 422 526 420 510 l 432 530 l 436 542 l 447 543 q 463 550 453 549 q 473 553 472 552 l 471 558 q 505 574 499 574 q 528 555 514 574 q 538 543 538 554 l 550 533 q 572 486 550 524 l 572 378 l 570 321 l 575 307 l 575 205 l 572 187 l 572 153 l 575 123 l 570 89 q 578 47 575 83 l 591 31 l 591 14 l 603 8 z "},"i":{"ha":422,"x_min":58,"x_max":403,"o":"m 265 882 q 241 859 260 869 l 241 850 l 229 836 q 218 828 223 828 q 211 831 216 828 l 174 786 l 164 771 l 131 761 l 114 736 l 98 729 q 68 703 92 726 l 60 708 l 58 725 l 90 739 q 107 778 97 773 q 118 783 118 782 l 118 789 l 125 793 l 127 791 l 131 802 l 136 802 l 131 814 l 153 814 l 153 833 l 163 836 l 170 847 l 180 851 l 191 869 q 199 878 196 869 l 207 878 l 208 892 q 225 920 222 904 q 265 882 258 909 m 403 183 l 400 170 l 387 160 l 382 143 l 363 138 q 343 103 354 111 l 326 97 l 311 81 q 288 56 306 78 l 278 56 q 248 40 269 42 q 231 18 233 22 q 204 8 220 12 q 184 4 189 5 l 179 -4 l 157 -4 l 144 -14 l 110 12 l 90 57 l 87 129 l 83 143 l 97 257 l 106 264 l 102 335 q 105 359 102 348 q 113 390 109 370 l 118 393 q 109 432 118 412 l 114 450 l 114 476 l 121 485 q 116 507 119 494 q 113 521 113 519 q 118 532 113 532 q 121 530 119 530 q 111 558 111 552 q 121 568 111 568 q 130 565 123 568 q 140 561 136 561 q 147 564 142 561 q 157 575 147 575 q 166 572 165 575 q 170 546 167 569 l 184 539 l 172 524 l 158 435 l 170 412 q 157 386 170 397 l 153 368 l 157 353 l 140 296 l 142 289 l 135 243 l 135 210 l 125 187 l 127 168 l 125 136 q 136 74 125 98 l 135 66 l 147 58 l 161 62 l 178 56 l 197 65 q 221 75 205 71 l 231 85 l 233 81 l 241 92 l 256 96 q 290 114 271 109 q 310 125 295 123 l 318 138 l 334 139 l 330 154 l 336 154 l 339 161 l 368 176 l 371 193 l 397 192 q 403 183 400 189 z "},"j":{"ha":354,"x_min":-285,"x_max":236,"o":"m 236 981 l 216 970 l 211 958 q 196 946 200 956 q 184 930 191 936 l 179 933 l 142 885 l 122 872 l 118 860 l 113 860 q 92 822 111 841 l 87 869 l 106 907 l 127 926 q 163 997 155 996 l 158 1000 l 170 1000 l 174 1018 l 180 1015 l 184 1022 l 189 1022 l 197 1025 l 197 1019 q 213 1017 209 1019 q 216 1006 216 1015 q 224 1010 220 1010 q 233 1006 229 1010 l 236 981 m 201 -4 l 197 -4 l 191 -64 l 191 -121 l 195 -131 l 191 -174 l 197 -208 l 191 -225 l 195 -241 q 186 -294 189 -256 q 175 -346 184 -332 q 164 -374 166 -361 q 132 -424 156 -404 l 135 -429 l 132 -429 q 113 -450 115 -429 l 106 -447 q 83 -468 90 -454 l 65 -472 l 58 -479 l 52 -476 l 37 -485 l 14 -479 l 8 -486 l 3 -486 l 1 -479 l -7 -489 l -11 -482 l -21 -482 q -56 -467 -45 -466 l -62 -460 q -92 -454 -72 -457 l -100 -444 l -114 -437 l -158 -410 l -170 -393 q -204 -368 -197 -377 q -216 -340 -211 -359 l -231 -331 q -242 -319 -239 -325 l -252 -301 l -261 -298 l -275 -264 l -285 -258 l -285 -241 l -275 -244 l -245 -285 l -245 -290 l -235 -298 q -221 -317 -229 -301 l -207 -323 l -207 -339 l -191 -346 q -164 -366 -189 -351 l -167 -370 q -142 -378 -162 -370 l -135 -390 l -110 -401 l -113 -410 l -90 -412 l -90 -419 l -79 -419 l -69 -429 l -56 -428 l -46 -433 q -41 -432 -45 -432 q -33 -440 -37 -432 q -28 -439 -31 -439 q -25 -441 -25 -439 l -12 -444 q 37 -437 5 -444 l 35 -433 q 56 -422 53 -422 l 69 -422 l 74 -412 l 83 -406 l 92 -406 l 97 -385 l 113 -370 l 121 -370 q 118 -358 118 -363 l 118 -353 l 125 -355 l 121 -346 l 125 -339 l 129 -340 q 136 -323 130 -338 l 131 -323 l 142 -294 l 135 -278 l 153 -228 l 153 -196 l 157 -191 l 144 -178 q 160 -131 160 -138 q 147 -121 160 -125 l 154 -111 l 153 -96 l 158 -79 l 150 -71 q 163 -35 150 -51 l 150 -1 l 158 18 l 147 45 l 158 54 l 158 62 l 150 77 l 150 89 q 155 93 155 89 q 154 98 155 97 l 158 119 l 147 155 q 144 170 144 164 q 154 197 144 184 l 153 208 l 154 254 l 140 301 l 147 323 l 140 355 l 147 366 l 135 441 l 135 501 l 140 504 l 127 530 l 131 549 l 125 553 l 131 558 l 132 568 l 142 571 q 154 597 142 597 q 164 586 164 597 l 174 590 q 185 572 174 575 q 197 564 197 568 l 197 551 l 191 553 l 191 542 l 189 521 l 191 497 l 189 489 l 195 472 l 186 440 l 191 415 l 186 374 l 191 317 l 186 286 l 199 275 q 186 248 186 256 l 197 164 l 197 147 l 189 92 q 201 65 202 75 l 199 9 l 201 -4 z "},"k":{"ha":840,"x_min":104,"x_max":829,"o":"m 829 92 l 822 77 q 811 31 822 45 q 794 8 794 16 q 782 -17 790 -1 l 770 -27 q 758 -46 764 -32 l 713 -71 q 664 -79 690 -77 l 643 -69 l 627 -69 l 612 -58 l 597 -57 l 547 -31 l 436 71 l 408 114 l 386 134 q 364 164 382 143 q 338 195 353 174 q 300 225 323 216 l 273 278 q 283 321 274 285 l 310 302 l 325 286 q 367 257 332 279 l 385 257 l 392 250 q 406 252 397 252 q 421 248 413 252 q 460 264 436 258 q 498 275 484 270 l 505 289 l 536 289 q 545 299 537 295 q 553 302 552 302 l 557 302 q 586 336 578 302 q 611 351 607 347 l 620 359 q 639 390 625 364 l 642 390 q 669 441 655 390 l 676 441 l 679 452 l 676 475 l 679 498 q 639 533 679 514 q 621 546 633 546 l 616 546 l 608 553 q 548 559 579 555 q 511 564 517 564 q 456 543 488 564 q 419 539 438 543 l 421 536 q 406 532 413 535 q 391 526 398 530 q 375 516 384 522 q 358 508 366 511 l 340 501 l 292 461 l 243 408 l 243 399 l 220 353 l 208 322 q 186 265 186 286 q 192 248 186 256 q 184 232 192 235 q 175 203 175 218 l 176 191 q 172 170 176 180 q 157 146 159 154 l 163 121 l 157 92 l 160 71 q 150 28 150 52 l 150 20 q 153 9 153 12 q 127 -14 153 -7 q 110 13 115 -10 l 104 31 l 109 54 l 104 109 l 109 121 l 109 174 l 110 192 l 110 208 q 113 273 110 245 q 115 301 115 300 l 115 323 l 118 336 l 118 375 l 122 390 l 118 410 l 122 457 l 122 514 l 118 533 l 125 546 l 122 561 l 118 640 l 109 686 l 109 697 l 115 749 l 110 771 l 109 806 q 106 832 106 825 q 138 860 106 860 l 142 850 l 150 854 l 147 832 l 154 793 l 144 751 l 147 697 l 154 675 l 150 653 l 153 615 l 147 586 l 154 558 l 150 549 l 157 529 l 153 494 l 147 396 q 150 375 150 380 l 147 355 l 150 329 q 144 302 150 314 q 164 289 155 292 l 180 323 l 179 330 q 206 398 179 338 q 264 494 233 458 q 273 501 273 496 q 271 507 273 504 q 309 533 304 527 q 319 542 315 538 q 331 550 324 546 q 342 554 338 553 q 352 559 347 555 q 366 569 357 564 q 395 581 375 574 q 452 603 406 597 l 505 610 l 603 603 l 618 594 q 642 587 625 590 q 696 538 693 538 q 692 546 696 540 l 711 501 l 708 490 q 718 468 718 479 q 703 437 718 457 l 703 425 l 688 378 l 667 347 l 657 346 q 646 328 656 339 q 635 311 636 317 q 607 296 620 311 q 591 281 594 292 q 559 260 572 277 q 564 261 562 260 l 566 261 q 436 214 566 256 q 415 221 422 221 q 404 205 404 221 l 404 203 l 403 196 l 414 183 l 418 163 q 441 139 421 149 l 465 92 l 501 69 l 503 62 l 518 54 l 524 40 l 532 41 l 574 0 l 625 -21 l 657 -31 l 684 -28 l 696 -22 q 738 -5 718 -18 q 760 9 758 7 l 785 57 l 795 70 q 807 97 800 77 q 818 100 815 100 q 829 92 825 100 z "},"l":{"ha":422,"x_min":81,"x_max":395,"o":"m 386 170 q 395 157 395 163 q 386 138 395 140 q 353 111 370 111 q 307 65 353 105 q 289 57 294 62 q 271 40 285 53 q 245 24 252 39 l 232 20 l 227 22 l 222 11 l 218 11 q 189 3 208 11 q 165 -7 170 -5 l 151 -12 l 142 -12 l 134 0 l 121 11 q 100 47 113 32 l 96 81 l 97 97 l 90 106 l 92 146 l 90 180 l 92 197 q 96 208 96 203 q 86 233 96 218 q 92 297 92 291 q 81 322 92 309 l 92 328 l 96 380 l 93 403 l 103 428 l 96 456 q 107 492 107 471 l 107 538 l 111 549 l 110 616 l 114 684 q 107 736 104 708 l 111 778 l 107 793 l 114 856 q 130 863 121 859 q 140 867 138 867 q 146 864 142 867 l 153 842 l 167 829 l 157 815 l 157 810 q 161 793 157 802 q 151 770 160 770 l 155 762 q 163 704 157 720 l 151 668 l 160 656 q 144 603 144 629 q 157 586 144 589 l 147 559 q 153 543 153 547 q 147 525 153 536 l 150 509 l 143 464 l 142 443 q 131 399 142 433 l 138 370 l 134 317 l 126 311 l 135 294 l 129 268 l 123 227 l 129 216 l 123 212 q 132 179 132 201 q 126 163 132 175 l 132 147 l 129 126 l 135 111 l 132 100 l 147 54 l 164 47 q 196 60 189 60 l 204 58 l 223 75 q 240 82 227 78 q 264 96 247 94 l 271 103 l 281 102 l 283 109 l 297 113 l 310 122 l 323 126 q 337 138 325 127 q 358 155 349 150 q 367 165 358 161 q 372 163 369 163 q 386 170 377 163 z "},"m":{"ha":1196,"x_min":103,"x_max":1173,"o":"m 1173 118 l 1165 107 l 1156 104 q 1146 83 1156 91 q 1137 72 1137 76 l 1137 69 l 1133 66 q 1119 50 1129 57 q 1105 43 1108 43 l 1093 45 l 1092 31 q 1079 20 1080 20 q 1061 22 1078 20 q 1031 14 1046 14 q 985 20 1020 14 q 975 26 980 26 q 964 22 970 26 q 942 41 960 32 l 945 52 q 929 79 929 58 l 930 92 l 914 104 l 905 146 l 893 168 l 893 178 l 884 222 l 885 240 l 875 289 l 873 310 l 876 353 l 871 407 l 852 387 l 823 336 l 811 307 q 777 262 784 288 q 762 232 762 262 q 748 213 754 223 q 738 196 742 202 q 734 189 734 190 l 734 186 q 705 139 711 165 q 692 118 702 136 q 656 71 682 100 q 635 45 643 65 q 620 30 629 33 q 611 16 611 27 l 611 9 q 570 -4 600 9 q 553 12 557 -3 l 550 32 l 542 49 l 542 65 l 530 111 q 532 121 532 115 q 525 139 532 127 l 530 186 l 525 196 l 530 218 l 528 231 l 528 240 l 522 253 l 532 273 l 525 317 l 528 329 l 532 380 l 522 412 l 525 437 l 518 457 q 502 499 505 489 q 493 509 499 509 q 488 510 492 510 q 453 490 483 510 l 433 464 l 416 447 l 379 396 l 376 380 l 354 355 l 345 329 q 331 305 336 321 q 320 287 326 289 q 302 277 313 285 l 301 252 q 289 230 295 243 q 274 209 283 217 q 261 180 265 201 q 245 161 245 180 q 231 147 241 147 q 225 127 225 134 l 225 123 q 208 106 208 109 q 212 97 208 102 q 188 71 197 90 q 174 49 179 53 l 174 43 q 168 29 174 33 q 150 12 163 25 q 127 -1 136 -1 q 113 31 117 -1 q 114 39 114 33 q 104 57 114 50 l 104 77 q 110 98 104 87 l 103 129 l 104 151 l 103 175 l 103 180 q 110 203 103 195 l 113 214 q 111 235 113 219 q 109 253 109 250 l 109 275 q 121 297 113 289 l 110 311 q 113 321 115 316 q 111 329 111 326 q 118 346 111 334 q 127 370 125 357 l 118 396 l 122 410 l 114 457 l 118 476 l 110 514 l 113 539 l 103 561 q 131 593 117 593 l 136 590 l 140 571 q 158 549 158 567 l 155 519 q 167 509 155 511 q 154 479 154 489 l 154 475 l 161 404 l 158 351 l 153 336 l 158 319 l 154 313 l 160 302 q 150 285 150 295 l 153 273 q 144 257 153 263 l 150 218 l 144 204 q 141 179 138 189 q 143 164 143 169 q 140 153 143 155 q 147 138 147 139 q 140 123 147 132 l 154 114 l 180 149 l 186 168 q 198 180 193 172 q 205 197 203 188 q 221 225 207 205 q 230 232 224 225 q 244 252 235 239 q 264 277 252 264 q 270 291 266 283 q 279 302 275 298 q 290 330 283 307 l 306 358 l 308 368 q 321 387 310 374 l 347 414 q 363 438 352 414 q 389 476 375 463 q 404 498 404 489 q 416 511 416 500 q 433 530 431 517 l 437 529 q 453 555 444 529 q 482 574 473 574 q 515 566 483 574 q 518 557 518 560 q 515 549 518 554 l 525 546 q 545 511 525 539 l 545 489 l 557 475 l 557 457 q 572 403 572 424 l 567 380 l 572 361 l 559 346 l 567 302 q 562 269 562 288 l 567 232 l 564 220 l 567 205 l 562 200 q 572 125 572 156 l 570 114 l 564 109 q 574 77 574 94 l 597 69 l 661 147 q 674 171 665 151 q 689 201 682 190 q 700 221 696 201 q 715 244 703 241 q 718 259 715 254 q 742 277 721 263 l 742 279 q 768 319 742 298 q 786 358 774 340 q 810 388 805 377 l 825 415 q 838 447 833 431 q 875 501 860 455 q 896 530 890 505 l 918 541 l 937 530 l 930 524 l 940 514 q 929 504 929 510 q 936 494 929 498 l 926 476 l 918 412 q 928 403 924 409 q 917 355 917 387 l 918 330 l 916 321 l 920 302 q 915 297 918 300 q 911 289 911 293 q 916 277 911 285 q 924 258 924 274 q 920 250 924 254 q 922 243 922 247 q 918 235 922 241 q 931 178 918 208 q 942 129 937 165 l 960 119 l 966 89 q 986 71 982 81 l 1003 64 l 1023 60 q 1039 57 1034 57 q 1059 62 1046 57 q 1078 72 1071 66 q 1104 85 1086 77 q 1125 118 1116 100 l 1143 126 l 1152 140 l 1171 139 q 1173 118 1171 120 z "},"n":{"ha":865,"x_min":103,"x_max":872,"o":"m 869 211 q 852 189 872 200 l 854 184 q 836 156 854 178 q 818 122 818 134 l 803 118 q 778 85 802 90 q 771 77 776 77 l 768 77 q 753 65 766 65 l 745 49 l 725 45 l 709 34 q 700 31 705 32 l 669 25 l 659 26 l 648 25 l 644 31 l 632 32 l 616 52 l 610 52 q 604 66 604 57 q 582 104 582 91 l 582 115 l 572 134 l 572 142 l 579 146 l 574 165 l 564 191 l 566 228 l 551 250 l 551 285 q 532 408 532 386 l 532 414 q 529 429 529 425 q 530 437 529 435 q 514 476 515 461 l 507 482 l 478 452 l 464 432 l 415 374 l 396 339 q 380 306 386 317 q 353 275 374 296 l 357 262 l 347 236 l 336 235 l 336 222 l 329 222 l 302 191 q 285 164 301 168 q 274 138 279 155 q 258 121 269 121 l 253 115 q 229 81 240 93 q 197 54 218 69 q 180 26 193 31 l 179 20 q 172 2 178 10 q 139 -14 166 -7 q 123 9 129 -12 q 107 36 118 31 l 103 45 l 114 62 l 113 79 l 119 86 l 113 98 l 114 115 l 103 146 l 113 164 l 107 183 q 117 240 117 202 l 117 248 q 109 264 117 251 q 119 281 119 273 l 117 302 l 125 355 l 119 366 l 121 387 l 114 400 l 119 444 l 117 460 l 121 485 l 117 521 l 126 539 q 154 529 151 532 q 157 516 156 526 q 158 485 158 507 l 170 467 l 165 440 l 171 383 l 161 353 l 165 317 l 165 300 l 153 279 l 161 250 q 151 212 157 244 l 158 196 q 147 142 146 159 l 149 92 l 153 85 l 170 93 l 183 93 l 191 123 q 210 139 206 128 q 231 155 212 155 q 240 176 233 171 q 253 196 245 176 q 275 225 267 210 l 275 244 l 277 244 q 289 254 282 244 q 307 264 296 264 q 319 289 312 281 l 339 313 l 357 351 q 354 366 354 362 q 358 370 354 370 q 386 406 386 388 l 386 422 q 407 437 407 431 q 405 445 407 440 q 403 452 403 450 q 408 458 403 458 q 419 454 413 458 q 450 492 429 492 q 463 489 454 492 q 475 521 463 509 q 507 542 477 530 l 514 553 l 519 553 q 539 533 531 537 l 542 524 l 549 521 l 551 494 l 570 484 l 564 460 l 574 416 l 574 376 l 583 329 l 587 279 l 602 233 l 604 187 q 611 174 605 186 q 621 143 618 162 l 627 139 l 627 118 l 639 104 l 636 94 l 646 89 l 646 82 q 668 74 659 74 q 689 79 680 74 q 696 77 694 77 q 708 87 702 77 q 728 98 728 90 l 728 102 q 755 115 730 106 q 770 129 762 123 l 768 132 q 773 140 770 136 q 787 152 777 144 q 800 167 796 160 l 807 182 q 833 221 816 194 l 852 231 l 865 231 l 869 211 z "},"o":{"ha":567,"x_min":61,"x_max":505,"o":"m 505 330 l 496 301 l 501 289 l 496 256 q 486 235 496 250 l 486 218 l 476 191 l 468 178 q 454 143 464 174 l 444 139 l 439 121 l 424 111 l 412 86 l 392 77 l 390 58 l 372 52 q 356 30 359 35 q 337 20 352 25 q 318 12 323 16 q 279 -12 315 -9 q 260 -22 271 -22 q 249 -20 256 -22 q 214 -40 230 -37 l 203 -57 l 184 -46 l 180 -54 l 160 -46 l 111 -41 q 75 8 99 -17 l 81 26 l 61 77 l 69 93 l 61 131 l 69 153 q 67 171 69 156 q 65 189 65 185 q 79 212 65 203 l 79 220 q 87 250 79 235 l 96 250 q 106 277 106 262 l 102 286 l 106 307 l 106 321 q 118 351 118 336 l 114 374 q 118 390 114 384 q 139 411 139 401 q 134 425 139 418 l 147 449 q 156 458 150 454 q 163 463 161 461 l 160 476 q 182 498 182 478 q 178 524 182 511 q 239 571 224 524 l 248 571 q 261 581 257 581 q 273 577 262 581 q 306 574 283 574 l 328 583 l 328 574 q 363 558 342 572 l 382 558 q 395 545 389 545 l 397 546 q 429 511 413 522 l 436 494 l 449 489 l 471 457 l 493 393 l 493 380 l 505 330 m 461 292 q 469 309 469 302 q 465 318 469 313 q 460 325 460 323 l 468 325 q 458 339 466 333 l 461 343 l 452 366 l 454 396 l 441 418 q 427 432 427 427 l 427 436 q 421 443 427 441 q 416 449 416 445 l 416 450 q 422 468 416 452 l 414 475 l 400 476 l 395 486 l 400 494 l 382 504 l 368 517 l 329 533 l 313 536 q 273 514 273 536 l 275 468 l 248 467 l 204 440 l 200 425 l 184 415 l 178 375 l 164 366 q 160 346 160 363 q 163 321 160 330 l 146 311 q 140 285 140 309 q 127 264 140 274 l 127 250 l 115 231 l 115 218 l 111 210 l 114 191 l 96 146 l 102 131 l 102 98 l 96 75 l 97 41 l 117 15 q 142 0 121 9 l 146 -7 l 155 -4 l 164 -7 l 180 0 l 214 -1 l 229 3 l 233 12 l 248 11 q 269 25 269 11 l 289 20 l 293 31 l 306 32 l 313 47 q 329 66 328 59 l 351 66 l 358 81 l 382 102 l 391 115 q 403 126 396 122 l 422 136 q 435 175 426 155 l 432 187 l 452 196 l 449 203 q 464 222 457 214 l 457 222 q 463 235 463 230 q 460 245 463 239 q 458 253 458 251 q 463 272 458 262 q 467 285 467 282 q 461 292 467 290 z "},"p":{"ha":624,"x_min":-41,"x_max":546,"o":"m 546 143 l 533 125 l 542 119 q 524 98 534 106 l 521 81 l 504 79 l 499 69 q 476 52 497 65 l 467 54 q 428 41 458 45 l 419 47 l 418 36 l 386 52 q 371 41 383 52 l 366 47 l 323 52 l 298 47 l 286 58 l 257 54 l 243 66 q 221 60 229 60 q 200 66 212 60 q 193 52 193 60 q 196 39 193 50 q 199 22 199 28 q 192 -4 199 14 l 197 -22 l 186 -36 q 191 -90 191 -65 l 186 -129 l 191 -178 l 178 -196 l 186 -222 l 178 -254 l 191 -258 l 191 -273 q 180 -288 180 -275 q 183 -301 180 -290 l 187 -302 q 175 -329 175 -321 l 172 -439 q 161 -463 172 -463 q 142 -460 158 -463 l 143 -433 l 136 -375 l 147 -353 l 151 -311 l 143 -264 q 154 -249 154 -256 q 146 -218 154 -245 l 155 -200 l 146 -170 l 155 -146 l 151 -121 l 164 -113 q 144 -90 144 -108 q 155 -40 144 -81 l 147 -24 l 153 -1 l 147 4 l 153 12 l 147 62 l 155 129 l 146 143 l 165 153 l 155 155 l 147 170 l 139 174 l 146 178 l 147 174 l 151 180 l 146 186 l 161 183 l 155 192 l 161 191 l 161 197 q 151 207 151 202 q 155 225 151 216 l 151 240 q 143 248 143 242 q 150 250 143 250 l 153 250 l 153 254 l 161 254 l 151 267 l 155 285 l 155 301 l 157 311 l 151 334 l 157 358 l 151 378 l 157 403 l 151 412 l 153 435 l 151 450 l 153 472 q 143 504 145 479 l 131 504 l 119 511 l 98 494 l 98 498 l 89 494 l 69 494 l 65 486 l 49 485 l 36 472 l 20 475 l 8 454 l -9 463 l -14 452 q -41 482 -41 467 q -34 491 -41 486 q -26 500 -26 495 q -31 514 -26 503 q 18 526 -5 526 l 22 524 l 35 536 q 72 555 40 542 l 77 551 l 89 566 l 119 564 l 142 571 l 146 568 l 151 597 l 164 597 q 197 561 177 570 l 203 571 l 212 564 l 220 568 q 259 557 243 566 q 290 545 276 547 q 313 533 304 542 l 321 539 l 323 529 l 342 519 l 343 524 l 355 519 l 366 506 q 380 493 371 498 l 403 479 l 406 472 l 422 467 l 422 463 q 441 437 439 454 l 457 428 l 468 403 l 475 403 l 475 390 l 483 382 q 490 358 486 378 l 501 355 q 519 319 503 330 l 519 301 l 530 286 l 529 269 q 536 254 529 269 q 543 222 543 239 l 536 220 l 539 208 l 539 197 l 546 196 l 536 168 l 546 143 m 509 186 l 507 197 l 509 205 l 501 231 l 507 244 l 498 262 l 497 279 l 485 302 l 479 321 l 454 366 l 440 378 l 431 408 l 412 415 l 393 441 l 393 447 l 378 452 l 364 450 l 346 475 l 336 472 l 329 485 l 309 489 l 292 489 l 289 494 l 279 489 l 272 497 l 262 494 l 257 504 l 244 501 l 200 509 q 187 490 187 503 q 190 483 187 488 q 192 460 192 479 l 187 431 l 197 400 l 208 390 l 197 366 l 200 342 l 192 292 l 197 281 l 191 264 l 203 248 l 196 243 l 197 225 l 208 218 l 197 205 l 205 192 l 192 174 l 197 146 l 196 123 l 203 98 l 254 102 l 257 93 q 267 104 266 104 q 281 89 267 104 q 291 92 285 90 q 300 94 298 94 q 323 89 307 94 q 334 97 328 97 q 339 92 337 97 l 361 92 l 378 89 l 399 97 l 400 92 q 460 107 450 98 l 464 107 q 475 119 475 107 l 485 115 l 486 131 l 498 134 l 501 147 l 497 161 l 507 170 l 504 178 l 509 186 z "},"q":{"ha":808,"x_min":66,"x_max":808,"o":"m 808 -401 q 791 -419 792 -414 q 770 -410 790 -416 l 753 -422 l 743 -415 l 715 -415 l 713 -407 l 703 -412 q 667 -378 671 -389 l 657 -375 l 648 -351 l 639 -346 l 636 -325 l 621 -309 l 607 -257 l 610 -250 l 603 -235 q 610 -221 610 -224 q 604 -210 610 -218 l 597 -191 l 595 -147 l 587 -113 l 591 -96 l 587 -85 q 591 -52 592 -65 l 587 -31 l 595 -1 l 590 12 l 591 57 l 591 104 l 595 119 l 590 131 l 597 236 l 591 285 q 585 298 589 296 q 570 279 575 290 l 562 279 l 555 262 l 536 253 l 528 235 q 514 216 522 232 q 493 197 507 201 l 493 192 l 461 164 l 452 153 q 439 142 447 146 l 416 131 l 414 121 l 400 111 l 380 93 l 368 88 q 350 74 363 86 l 338 74 q 302 58 327 65 l 292 41 l 269 36 l 264 22 l 257 35 q 239 18 243 26 l 229 22 l 222 18 l 211 20 l 192 18 l 182 25 l 174 9 l 172 14 q 150 25 163 14 l 143 25 l 143 31 l 125 31 q 96 52 107 50 l 89 71 l 81 86 q 71 115 74 111 l 74 136 l 66 157 l 74 183 q 83 225 76 225 l 86 235 l 86 237 q 85 250 86 242 q 97 285 97 261 l 97 292 l 109 304 l 106 311 q 118 336 111 314 l 125 336 l 134 361 l 140 358 l 143 386 l 147 390 l 157 386 q 154 395 154 391 q 170 412 154 404 q 188 435 179 431 q 201 450 201 441 q 200 457 201 454 q 216 464 213 458 q 229 485 229 468 l 235 485 l 235 489 l 264 511 l 264 524 q 275 519 270 519 q 286 524 280 519 l 283 529 q 309 534 296 534 l 328 533 l 336 558 l 372 558 l 380 578 l 390 568 q 404 571 394 571 q 441 566 420 571 l 449 574 q 471 564 466 564 q 484 568 475 564 l 490 553 l 496 553 l 493 558 q 501 561 496 561 q 516 557 507 561 q 531 550 525 554 q 538 533 538 546 q 550 524 550 533 q 572 511 564 511 q 578 514 575 511 l 581 501 q 574 507 577 507 q 570 504 572 507 l 581 494 l 591 494 l 582 454 l 559 452 l 547 472 l 509 497 l 496 514 l 484 509 l 467 514 l 457 507 l 444 514 l 425 509 l 403 514 l 387 501 l 378 511 l 350 490 l 343 497 l 340 490 l 328 489 l 309 468 l 298 476 l 293 460 l 286 463 l 264 440 l 248 432 l 232 410 l 214 393 l 160 317 l 151 286 l 143 286 l 114 212 l 114 187 l 106 174 l 109 114 l 115 86 q 150 79 123 79 q 160 74 156 74 l 197 86 l 192 77 l 235 81 l 232 86 l 241 86 l 239 81 l 248 86 l 244 92 q 269 97 260 92 q 306 114 278 103 l 309 125 l 329 131 q 350 140 335 140 q 359 136 355 140 l 355 147 l 363 151 l 363 164 q 388 168 377 164 q 408 183 399 171 q 419 199 417 195 q 436 210 422 203 l 439 218 l 447 214 l 449 228 l 467 232 l 468 240 q 486 260 480 246 l 496 260 l 509 279 l 514 279 l 518 289 l 525 292 l 525 301 l 538 309 q 542 323 538 323 q 547 321 545 323 l 553 339 q 557 336 555 336 q 559 347 559 336 l 566 353 l 570 347 l 570 361 l 581 370 l 575 380 l 585 378 l 585 396 l 600 412 l 595 435 l 604 441 l 604 467 l 612 476 l 610 504 l 614 519 l 614 536 l 623 536 l 627 555 l 636 546 q 647 549 644 549 q 656 546 652 549 q 661 542 661 543 l 667 521 l 664 497 l 667 482 q 658 445 667 470 q 647 406 649 420 l 642 353 l 644 311 l 636 301 l 639 286 l 639 236 l 632 214 l 635 174 l 623 114 l 627 85 q 632 58 632 75 l 625 57 l 629 41 l 627 35 l 629 8 l 623 -20 l 627 -41 l 623 -71 l 632 -90 l 629 -103 l 632 -121 l 627 -135 l 635 -146 l 632 -174 l 639 -183 l 647 -236 l 654 -244 l 653 -262 l 660 -264 l 660 -290 l 671 -296 l 671 -313 q 705 -368 694 -333 l 713 -361 l 742 -375 l 758 -374 l 768 -374 q 785 -371 774 -371 q 808 -378 798 -371 l 808 -401 z "},"r":{"ha":518,"x_min":87,"x_max":545,"o":"m 545 543 l 541 526 l 500 521 l 473 501 l 456 498 l 433 485 l 411 475 q 385 457 395 460 l 385 450 l 364 440 l 350 418 l 335 418 l 328 396 l 312 386 q 297 371 302 380 l 283 346 q 265 309 268 338 l 258 311 l 256 302 l 245 296 l 236 272 q 221 240 221 251 l 208 235 l 208 205 q 201 191 204 201 l 204 186 l 191 180 l 195 170 q 174 119 193 156 l 180 102 l 167 79 q 170 58 170 66 l 167 36 l 173 12 q 179 3 174 9 l 189 -7 q 172 -31 180 -24 l 154 -24 l 157 -36 l 126 -31 l 126 -12 l 122 0 l 126 22 l 122 32 l 125 79 l 122 111 q 113 119 113 115 q 122 136 113 125 l 122 157 q 121 180 122 173 l 126 187 l 121 214 l 125 235 l 121 248 l 125 285 l 118 296 l 122 309 l 114 336 l 117 358 q 114 383 117 367 l 118 390 l 110 437 l 100 444 l 110 468 q 96 514 96 488 l 96 533 q 87 546 90 540 q 122 568 97 559 l 132 566 q 147 533 135 549 l 144 498 l 158 393 q 150 375 158 383 l 157 346 l 153 325 l 157 302 l 154 285 l 164 264 l 158 260 l 163 228 l 174 225 l 178 252 q 195 277 179 257 q 212 311 212 292 l 212 319 l 221 323 q 224 329 223 323 q 229 334 226 334 l 233 334 l 241 361 l 262 375 l 264 383 l 273 383 l 269 399 l 290 408 l 292 425 l 311 428 q 332 454 326 440 l 345 457 q 370 482 347 463 q 376 486 374 482 l 399 498 l 404 509 l 416 515 q 465 542 452 542 l 471 542 q 490 549 483 542 l 503 545 q 518 551 512 551 q 545 543 543 546 z "},"s":{"ha":604,"x_min":20,"x_max":536,"o":"m 536 107 l 527 96 q 509 54 524 92 l 489 40 l 490 32 l 472 32 l 454 12 l 431 12 l 415 4 q 400 -4 408 4 q 382 0 391 0 q 364 -4 374 0 l 364 -12 l 339 -9 l 319 -12 l 301 -9 l 298 -14 l 292 -9 l 279 -14 l 271 -14 q 250 -17 261 -14 l 236 -12 l 225 -20 l 220 -14 l 210 -20 q 180 -9 192 -9 q 168 -14 176 -9 q 144 -7 159 -9 l 114 -4 q 92 -7 100 -4 l 89 -1 l 77 -9 q 66 -4 73 -4 l 62 4 q 20 65 20 6 l 49 69 l 47 79 l 54 89 l 58 81 l 66 81 l 66 74 l 79 81 q 90 71 90 79 q 86 58 90 66 l 98 57 l 98 36 l 134 31 l 147 18 l 151 25 l 329 36 l 390 47 l 393 54 l 408 57 l 412 62 q 468 85 444 68 l 472 81 l 475 89 l 485 97 l 486 102 l 479 111 l 482 123 l 467 136 l 464 147 q 450 155 453 151 l 444 153 l 431 165 l 425 165 l 419 174 l 406 174 q 390 184 401 184 l 380 183 q 339 197 357 183 l 325 197 l 307 208 l 298 203 l 294 210 l 285 210 l 269 222 l 228 240 l 212 254 l 165 262 l 164 267 l 125 294 l 107 339 l 93 361 l 89 425 l 93 432 q 107 479 93 459 q 134 509 133 494 l 143 507 q 169 541 149 524 l 186 555 l 267 590 l 307 597 l 347 610 l 410 606 l 412 597 l 416 597 q 435 590 428 597 l 435 578 l 452 566 q 444 529 444 533 q 432 517 444 517 q 412 546 427 517 l 375 549 l 366 546 q 340 562 344 562 q 336 558 336 562 l 323 549 q 286 536 300 549 q 250 519 260 532 l 235 519 l 223 511 q 196 501 218 507 l 191 494 l 183 490 l 164 472 l 151 452 q 131 435 132 439 l 117 378 l 123 374 l 123 370 q 146 330 123 347 l 146 323 l 183 301 l 192 301 l 212 281 l 240 281 l 257 267 l 289 262 l 298 254 l 358 236 q 368 228 358 228 q 399 220 385 228 q 427 210 414 212 l 428 203 l 440 196 l 467 196 l 490 180 q 509 155 494 165 l 507 151 l 514 142 l 526 139 l 521 129 q 536 107 534 118 z "},"t":{"ha":484,"x_min":-12,"x_max":478,"o":"m 195 521 l 290 517 l 382 521 l 404 519 l 414 521 l 464 521 q 478 509 478 521 q 456 490 478 494 q 444 493 452 493 q 427 486 435 493 l 407 490 l 370 489 q 318 475 344 475 l 292 479 l 278 467 l 265 467 l 265 475 l 241 464 l 229 464 l 225 452 q 184 457 214 455 q 178 449 182 449 q 170 454 175 449 l 150 452 l 136 437 l 132 370 l 135 329 l 131 277 l 132 218 l 136 191 l 136 165 l 153 131 l 153 125 q 180 79 153 101 l 184 68 l 210 62 l 228 43 l 279 33 l 347 49 l 367 43 l 415 65 l 433 62 q 443 45 443 53 q 425 22 443 35 l 415 26 l 393 8 l 347 3 l 332 -7 l 315 3 q 267 -9 292 -9 l 239 -4 l 224 -4 l 174 25 l 150 58 l 134 77 l 109 143 l 97 205 l 103 231 l 92 244 l 97 260 l 92 285 l 106 296 l 100 309 l 103 325 l 97 343 l 100 370 l 97 383 l 103 387 l 103 437 q 92 456 99 456 q 83 450 87 456 l 68 457 l 46 452 l 24 468 l 12 468 q -4 486 -4 468 l -3 507 l -12 514 l -7 526 l 14 524 l 29 526 l 52 519 l 110 519 l 113 551 l 113 583 l 103 607 l 114 615 q 117 625 117 623 q 106 640 117 634 l 109 694 l 97 711 l 100 724 q 86 734 86 726 l 96 771 q 109 790 107 786 q 150 766 150 770 l 150 765 l 144 751 q 154 721 154 732 l 154 717 q 150 697 150 706 q 154 686 150 690 l 153 675 l 154 660 l 142 640 l 150 606 l 144 564 l 150 555 l 142 543 l 153 509 l 178 509 l 195 521 z "},"u":{"ha":791,"x_min":97,"x_max":754,"o":"m 717 66 q 739 68 726 68 q 754 57 754 68 q 739 36 754 47 l 729 31 l 722 23 q 699 8 720 20 l 676 1 q 631 -7 668 -7 q 610 -1 627 -7 q 589 8 593 4 l 543 49 l 533 92 l 519 104 l 519 111 q 510 147 519 132 l 511 180 q 517 210 517 205 q 509 240 517 225 l 513 302 l 497 294 l 488 279 l 475 271 q 461 254 468 267 l 449 253 q 433 225 433 239 q 408 201 413 216 q 387 169 402 186 q 363 150 371 153 q 350 142 355 147 l 310 93 l 306 93 l 273 54 l 248 40 l 236 22 q 179 -1 212 15 l 158 12 q 149 11 155 11 q 140 18 140 11 q 142 26 140 24 l 127 35 q 132 49 127 41 l 114 66 l 125 81 l 110 81 l 100 107 l 110 115 l 97 134 q 102 170 97 168 l 102 193 q 110 222 103 205 l 98 231 q 110 257 110 246 q 103 279 110 265 q 111 301 111 283 q 110 319 111 308 l 104 366 l 121 463 q 114 515 119 488 l 109 539 q 132 561 109 561 l 153 555 l 163 543 l 157 514 l 154 444 l 157 400 l 147 378 l 153 364 l 147 343 l 147 325 q 144 316 142 323 q 146 307 146 310 q 140 292 146 299 l 150 279 l 136 262 l 144 250 l 140 232 l 144 210 l 144 183 l 153 174 l 146 140 q 154 119 146 132 l 150 104 l 157 85 q 186 58 168 78 q 212 72 201 60 q 241 96 224 83 q 236 97 241 97 q 258 119 258 107 q 281 125 274 121 l 283 142 l 297 147 q 343 174 313 167 l 345 187 l 370 208 q 399 236 373 235 l 404 254 l 416 260 l 435 286 l 443 286 l 443 294 l 456 301 l 464 321 q 497 336 481 330 l 503 351 l 513 355 l 513 364 l 518 366 q 542 399 522 399 l 538 403 l 564 479 l 570 479 l 570 498 l 571 498 q 595 549 576 498 l 619 551 l 616 546 l 631 519 l 619 468 l 599 437 l 585 386 l 567 374 l 567 343 l 557 323 l 559 301 l 550 292 l 553 231 l 547 155 l 551 147 l 550 136 l 554 136 l 554 115 q 576 74 576 83 l 596 69 l 600 57 q 633 41 619 49 l 652 43 l 667 39 l 688 47 q 717 66 699 52 z "},"v":{"ha":660,"x_min":12,"x_max":660,"o":"m 660 664 l 653 650 l 654 629 l 640 621 l 633 592 q 621 574 632 586 l 618 555 l 603 555 q 610 530 610 535 q 587 514 610 519 l 587 504 l 575 457 l 564 435 l 555 435 q 564 418 564 427 l 546 400 l 514 317 l 485 267 l 485 244 q 475 231 485 239 q 465 216 465 222 q 472 205 465 212 q 441 196 460 196 l 447 180 q 432 151 433 159 q 418 132 418 140 q 419 123 418 126 l 408 123 l 408 109 l 390 97 l 380 79 l 353 49 l 317 -7 q 286 -22 306 -22 q 248 -4 258 -22 l 203 66 l 200 92 l 192 97 l 191 129 l 175 146 l 175 178 l 142 262 l 143 279 l 134 295 q 129 323 131 302 l 119 336 l 113 355 q 102 371 109 366 l 86 386 l 74 435 l 60 447 q 47 463 52 454 l 35 486 q 26 484 29 484 q 12 519 12 484 q 40 553 12 543 q 75 523 64 532 q 101 481 85 513 q 131 447 117 450 q 125 440 125 446 q 129 431 125 437 l 129 419 l 146 406 l 142 393 l 146 366 l 161 321 l 165 317 l 168 298 l 175 294 l 175 281 l 192 220 l 196 196 l 218 146 l 236 81 l 250 69 l 250 66 q 279 47 250 47 l 285 47 l 285 54 q 294 59 285 56 q 311 79 303 62 q 318 77 317 77 q 322 82 322 77 q 319 93 322 85 l 351 111 q 355 127 352 120 q 363 140 357 135 l 375 151 l 400 187 l 408 212 l 422 222 l 428 237 q 441 254 431 244 l 440 269 l 447 272 l 452 286 l 457 281 q 454 292 454 289 q 464 302 454 301 q 476 313 468 313 q 486 351 486 332 l 497 351 l 498 370 q 511 408 509 391 l 519 410 l 539 467 l 543 472 l 542 464 q 554 487 551 475 q 559 500 557 500 q 566 497 562 500 l 583 561 l 596 578 l 596 586 l 606 583 l 603 606 q 629 644 621 623 q 644 665 637 665 q 652 664 648 665 l 653 672 l 660 664 z "},"w":{"ha":911,"x_min":14,"x_max":889,"o":"m 889 575 l 885 555 l 886 542 l 869 472 l 851 450 l 844 419 l 831 399 l 808 343 l 783 296 l 743 231 l 736 210 l 714 170 l 692 115 l 650 32 q 635 -14 640 -7 q 606 0 617 -7 l 586 65 l 561 111 l 561 125 l 542 175 l 533 186 l 486 294 l 447 374 q 437 376 444 376 q 425 374 431 376 l 399 329 l 375 309 l 343 260 l 319 231 l 307 191 l 275 147 l 272 131 q 250 81 250 84 l 250 62 l 240 45 l 225 4 l 228 -1 q 220 0 225 0 q 200 -7 215 0 q 186 3 197 -1 l 186 9 l 175 25 l 168 62 l 157 86 l 157 104 l 155 114 l 136 178 l 129 225 l 119 236 l 121 250 l 107 289 l 107 302 l 93 343 l 77 368 l 79 396 l 77 410 l 62 450 l 60 468 q 49 492 58 476 q 40 518 40 508 q 41 529 40 525 l 32 533 l 14 578 l 32 583 q 38 596 33 595 l 57 600 l 65 587 l 79 587 l 85 564 l 92 558 l 89 543 l 93 529 l 89 514 l 104 486 l 102 467 l 119 400 l 117 383 l 125 336 l 143 289 l 153 225 l 165 210 l 165 180 q 178 123 177 140 l 192 111 l 197 93 l 210 93 l 275 210 q 286 235 286 210 q 302 256 302 245 q 311 285 302 270 q 319 302 319 293 q 339 296 331 296 q 335 313 335 304 q 346 323 335 323 l 350 322 q 352 323 351 322 q 352 326 353 325 q 350 329 350 328 q 358 339 350 334 l 355 351 l 355 358 q 361 364 357 364 q 364 358 364 364 q 378 366 373 366 q 383 364 382 366 l 380 383 l 390 396 l 386 415 l 393 412 l 396 422 l 408 428 l 403 435 l 408 440 l 410 447 l 425 447 q 407 488 407 467 q 415 517 407 500 l 437 519 q 463 489 450 507 l 467 459 q 479 435 468 454 l 476 419 l 486 386 l 486 368 l 511 323 l 511 311 l 521 302 l 543 243 l 546 218 l 561 197 l 603 98 l 628 93 l 672 186 l 689 200 l 699 231 l 717 240 l 717 264 q 746 301 746 283 l 746 323 l 753 323 l 753 330 l 764 339 l 787 386 q 808 431 789 404 l 806 444 l 825 472 l 842 517 q 825 596 825 569 q 838 621 825 616 l 851 615 q 869 607 852 609 l 872 593 l 889 575 z "},"x":{"ha":640,"x_min":-57,"x_max":618,"o":"m 618 -4 q 602 -14 610 -14 q 587 -9 595 -14 l 566 -20 l 551 -12 l 533 -7 l 507 15 q 492 21 501 20 l 468 26 l 435 58 l 393 115 l 355 157 l 353 168 l 346 175 l 319 220 l 313 235 l 301 248 q 272 285 287 281 q 248 277 265 279 l 236 254 q 218 220 216 223 l 200 208 l 183 178 q 160 158 165 162 q 152 141 155 153 q 147 125 149 129 l 123 115 q 109 74 122 87 l 74 41 l 74 36 l 36 -4 l 3 -57 l -7 -64 l -7 -79 l -19 -88 q -31 -101 -26 -93 l -41 -121 l -57 -109 l -45 -86 l -32 -85 l -22 -58 q -4 -45 -7 -51 l 14 -4 l 25 3 q 49 45 43 41 l 49 65 l 72 71 l 71 79 q 79 98 71 90 q 87 110 87 107 q 81 121 87 112 l 92 119 q 89 125 89 123 q 94 134 89 130 q 118 144 113 137 q 123 170 123 152 l 131 174 l 134 183 l 143 186 l 143 189 q 164 214 143 204 l 175 248 l 191 254 l 191 275 l 200 279 l 205 296 l 210 294 l 220 301 q 243 329 220 329 l 248 329 l 243 353 l 233 367 q 225 390 228 374 l 214 396 l 192 441 l 168 485 l 151 524 l 131 549 l 136 561 l 131 583 l 149 587 l 170 583 l 172 572 q 196 542 174 568 l 192 524 l 203 517 l 211 494 q 217 484 212 489 l 231 472 l 222 472 l 235 463 l 235 447 l 260 412 l 264 393 l 281 378 l 281 382 q 301 410 281 400 l 309 400 l 309 419 q 330 447 321 425 l 339 447 l 339 457 l 353 464 l 358 464 l 355 476 q 367 485 362 485 q 375 479 372 485 l 375 497 l 393 498 l 393 509 l 406 517 l 410 533 q 435 561 429 537 l 435 546 q 440 559 440 553 q 437 564 440 562 l 468 576 l 476 587 q 517 597 488 589 q 533 574 527 578 q 519 554 532 559 q 498 543 507 550 l 412 464 l 403 447 l 380 437 q 351 383 365 400 l 329 374 l 321 353 l 298 336 l 298 330 q 297 325 297 328 q 321 301 297 315 l 319 286 q 330 262 331 268 l 346 254 q 360 218 357 225 q 390 192 364 212 l 399 157 l 422 136 l 435 115 q 457 98 437 111 l 460 89 q 482 66 477 79 l 497 62 l 511 40 q 529 26 515 26 l 543 31 l 561 20 l 618 12 l 618 -4 z "},"y":{"ha":886,"x_min":79,"x_max":742,"o":"m 742 264 q 728 239 728 253 q 729 225 728 233 l 737 175 l 729 121 l 732 98 l 725 79 l 729 18 l 725 9 l 725 -40 l 722 -79 l 728 -93 l 725 -184 l 732 -201 l 725 -210 l 729 -235 l 722 -241 l 728 -262 l 722 -262 l 720 -273 l 720 -294 l 713 -311 l 715 -323 l 686 -375 l 684 -401 l 676 -400 l 664 -416 q 639 -452 646 -436 l 614 -467 q 574 -498 603 -498 q 575 -503 575 -500 q 570 -507 575 -507 l 564 -513 q 541 -529 544 -522 l 525 -529 l 521 -534 l 503 -530 l 475 -549 l 458 -546 l 414 -553 l 401 -551 l 395 -553 l 354 -546 l 343 -546 l 329 -533 l 322 -534 l 273 -518 l 239 -513 l 231 -498 l 208 -496 l 199 -472 l 186 -468 l 167 -441 l 147 -432 l 129 -406 q 117 -395 125 -400 l 96 -383 l 103 -366 l 90 -351 l 92 -343 q 82 -307 92 -329 q 79 -288 79 -296 q 85 -260 79 -277 l 90 -244 l 90 -240 l 100 -235 l 103 -228 l 109 -229 l 112 -213 q 144 -175 114 -203 l 164 -170 l 197 -140 l 236 -143 q 253 -129 245 -129 q 262 -140 262 -129 q 261 -147 262 -144 l 243 -155 l 231 -165 q 199 -178 225 -170 l 189 -197 l 170 -197 q 131 -245 155 -222 l 132 -272 q 121 -307 121 -289 l 114 -311 l 144 -383 l 172 -393 l 176 -410 l 220 -452 l 236 -456 q 254 -467 245 -460 l 273 -485 l 296 -485 l 313 -501 l 335 -498 l 345 -507 l 424 -504 l 435 -501 l 435 -504 q 440 -511 435 -511 q 444 -509 441 -511 q 479 -494 458 -494 l 486 -494 l 530 -476 l 530 -482 q 539 -473 539 -475 l 534 -473 q 543 -471 537 -471 q 550 -472 547 -471 q 562 -460 552 -460 l 567 -460 l 570 -452 q 579 -440 579 -452 l 581 -440 q 592 -430 588 -440 q 604 -419 596 -420 l 608 -422 q 629 -393 610 -405 q 646 -355 646 -378 l 653 -355 q 684 -285 674 -311 l 681 -281 l 684 -245 l 690 -241 l 690 -210 l 696 -200 l 684 -184 q 696 -171 696 -172 q 693 -160 696 -170 q 690 -139 690 -151 l 690 -134 l 693 -77 l 693 4 l 686 20 l 693 47 l 690 79 l 690 153 l 688 168 l 693 183 l 688 196 l 693 208 l 690 260 l 677 272 l 690 285 l 688 296 l 690 317 l 684 325 l 686 342 l 677 358 q 660 347 671 351 l 653 330 l 642 323 l 639 307 l 616 292 l 619 285 l 608 269 l 599 267 l 595 260 l 574 253 l 574 235 l 564 235 l 559 218 l 513 175 l 481 139 l 464 134 l 456 121 l 424 92 l 411 89 q 386 66 410 87 l 382 54 l 370 47 l 358 47 l 351 35 l 336 32 l 309 4 l 283 0 l 273 -9 q 245 -20 263 -13 l 241 -31 q 210 -35 235 -35 q 172 -22 180 -35 l 144 25 l 142 47 l 127 98 l 127 143 l 122 157 l 131 191 l 125 212 l 131 218 l 132 236 l 142 257 l 140 289 l 147 307 l 140 319 l 154 383 l 150 425 l 154 463 l 142 514 l 147 526 l 142 536 l 153 564 l 147 575 l 157 583 l 157 602 l 172 603 q 191 575 178 585 l 186 566 l 195 564 l 191 546 l 201 526 l 197 517 l 201 494 l 208 489 l 199 468 l 207 432 l 191 410 l 199 400 l 191 347 l 191 298 l 184 292 l 179 220 l 164 200 l 167 187 l 167 155 l 174 136 l 167 121 l 170 97 l 164 86 l 170 74 l 170 57 l 184 41 l 189 25 l 199 26 l 201 18 l 212 25 l 241 22 l 252 45 l 286 58 l 288 54 q 298 71 289 66 q 322 87 308 75 q 351 104 336 99 l 350 97 q 357 104 357 100 q 354 111 357 106 q 399 143 368 113 q 464 178 431 173 l 481 205 l 484 197 l 484 210 q 505 232 504 214 l 521 243 q 534 262 534 249 l 534 267 q 570 285 553 280 l 572 296 q 607 342 598 326 q 636 370 628 353 l 661 422 l 660 454 l 671 460 l 671 486 l 664 509 l 668 529 l 656 536 l 654 541 q 662 556 654 545 q 671 574 669 566 l 676 578 l 677 587 q 693 593 686 593 l 722 564 l 724 547 l 724 534 q 737 507 725 529 l 729 498 l 732 479 l 729 464 l 741 452 l 729 450 l 729 431 l 722 406 l 729 370 l 728 343 l 732 334 l 729 309 l 742 264 z "},"z":{"ha":743,"x_min":-25,"x_max":677,"o":"m 665 121 q 677 82 677 104 q 676 71 677 73 l 643 31 l 639 14 l 619 8 l 612 -5 l 591 -9 l 570 -9 l 510 -1 l 493 -9 l 471 -1 l 441 -7 l 431 3 q 382 -5 384 -5 l 357 0 l 309 3 l 278 0 l 261 5 q 236 9 244 9 q 191 0 218 9 l 164 9 q 83 -1 115 9 l 81 -17 l 68 -22 l 61 -32 l 49 -36 l 35 -31 l 31 -18 l 31 0 l 35 9 l 53 25 q 67 46 61 41 q 90 57 74 52 q 101 68 93 60 q 110 86 110 76 l 110 89 q 127 102 125 90 q 159 120 156 117 q 163 129 163 124 q 180 142 172 138 q 211 180 185 159 q 234 195 230 182 q 245 218 237 209 l 253 218 l 253 228 l 275 231 l 275 233 q 283 257 275 237 q 300 277 298 263 q 328 292 313 290 l 329 302 l 345 313 l 359 334 q 376 353 367 346 q 395 375 393 357 l 414 390 l 421 408 l 435 418 l 458 457 l 481 472 q 497 501 487 492 l 497 514 q 521 526 515 518 q 493 543 516 543 l 488 543 l 453 526 l 433 529 l 416 524 l 392 526 l 375 521 l 361 528 l 319 514 q 288 518 303 518 q 248 514 268 518 l 233 521 l 204 517 l 191 521 l 164 514 l 121 524 l 86 521 l 24 536 l 0 530 l -18 539 l -25 561 l -8 574 l 5 570 q 33 581 18 578 l 52 574 l 78 574 q 90 559 78 559 l 97 561 l 125 561 l 144 555 l 168 559 l 189 553 l 208 557 l 212 557 l 229 558 l 253 555 l 261 561 l 383 559 l 399 555 l 421 566 l 435 566 l 435 575 l 490 575 l 513 581 l 534 575 l 566 587 l 586 586 l 611 590 l 614 590 q 633 561 630 590 l 621 553 l 608 542 l 589 533 l 547 490 l 534 489 l 503 444 q 452 390 456 428 l 433 374 l 408 336 l 395 329 l 338 254 l 318 248 l 300 222 l 288 218 l 283 205 l 256 180 l 243 157 l 216 134 l 184 93 l 170 89 l 167 79 l 157 74 q 174 60 163 60 q 204 45 193 53 l 212 47 l 281 49 l 296 41 l 370 47 l 439 35 q 452 39 445 39 q 465 26 457 39 l 490 41 l 515 32 l 538 39 l 562 35 l 586 36 q 611 47 597 47 q 628 66 623 64 q 636 81 634 68 q 650 104 650 89 l 650 111 l 654 125 l 665 121 z "},"{":{"ha":555,"x_min":134,"x_max":509,"o":"m 509 892 l 501 859 l 484 850 l 460 857 l 441 852 l 422 863 l 415 854 q 370 842 391 852 l 366 823 l 352 813 q 349 809 350 811 l 338 786 l 339 762 l 329 737 l 330 696 l 319 654 l 322 614 l 315 610 l 313 574 l 319 532 l 313 517 l 315 501 l 306 490 l 317 476 q 294 435 307 450 l 301 422 q 260 399 275 404 l 271 386 l 285 383 q 301 351 301 364 l 301 326 l 296 300 l 309 279 l 292 269 l 294 258 l 288 231 l 300 200 l 296 186 l 294 165 q 286 142 293 154 l 292 127 q 297 104 296 119 l 300 65 l 296 49 l 309 17 l 304 -3 q 319 -40 304 -14 l 335 -40 l 339 -57 l 345 -57 l 354 -54 l 373 -68 q 424 -81 378 -72 l 435 -74 l 444 -81 l 450 -72 l 469 -75 l 484 -69 l 497 -90 q 473 -131 494 -105 l 464 -121 l 449 -126 l 414 -123 l 395 -118 l 380 -121 l 353 -111 l 343 -93 l 319 -93 l 271 -53 l 261 -12 l 265 3 l 261 22 l 248 31 l 262 56 l 258 78 q 245 104 256 89 l 253 134 l 245 174 l 253 227 l 243 243 l 253 253 l 256 283 l 249 302 l 258 325 q 227 371 246 351 l 227 376 l 210 371 l 204 379 l 199 370 q 139 380 180 370 l 134 400 l 149 408 q 180 415 155 412 l 186 406 q 225 415 203 415 l 236 431 l 243 431 l 239 443 q 265 460 259 450 l 262 473 l 269 496 l 264 518 l 278 546 l 275 562 l 281 582 l 275 616 l 283 625 l 281 656 l 292 667 l 283 673 l 292 700 l 286 730 l 296 747 l 298 769 q 307 791 300 781 l 297 802 l 318 812 l 314 836 l 330 840 l 336 852 l 347 862 q 363 886 353 867 q 414 897 380 892 l 447 903 l 468 897 l 486 911 l 498 907 l 509 892 z "},"|":{"ha":694,"x_min":317,"x_max":378,"o":"m 378 -328 l 317 -328 l 317 1061 l 378 1061 l 378 -328 z "},"}":{"ha":555,"x_min":57,"x_max":429,"o":"m 429 383 q 382 367 406 370 l 375 378 q 338 367 359 368 l 326 351 l 319 351 l 325 338 q 297 321 305 331 l 301 309 l 294 286 l 300 264 l 286 236 l 290 218 l 286 197 l 292 164 l 282 155 l 286 125 l 275 114 l 283 107 l 275 81 l 281 50 l 272 32 l 271 18 l 270 5 q 261 -12 269 0 l 271 -20 l 252 -32 l 256 -57 l 239 -60 l 232 -74 l 222 -83 q 208 -107 216 -87 q 154 -119 190 -113 l 122 -123 l 104 -118 l 86 -135 l 71 -129 l 62 -114 l 69 -81 l 86 -72 l 110 -79 l 127 -75 l 147 -83 l 154 -77 q 201 -62 180 -73 l 204 -45 l 216 -34 q 222 -24 220 -31 q 231 -7 225 -18 l 229 18 l 239 41 l 236 85 l 248 125 l 243 167 l 250 170 l 252 207 l 245 248 l 252 264 l 248 279 l 258 292 l 245 302 q 268 347 257 331 l 261 358 q 302 383 288 376 l 290 396 l 277 399 q 260 428 260 415 l 260 453 l 264 482 l 253 503 l 268 511 l 264 524 l 271 550 l 258 581 l 263 614 q 271 639 264 625 l 260 663 l 260 685 l 256 715 l 260 730 l 248 764 l 250 785 q 235 821 250 795 l 220 821 l 215 838 l 210 838 l 199 835 l 180 848 q 131 860 177 850 l 118 851 l 109 859 l 104 850 l 83 852 l 69 847 l 57 867 l 60 880 q 79 908 61 885 l 90 899 l 104 904 l 140 903 l 157 897 l 174 900 l 200 890 l 210 873 l 235 873 l 282 835 l 293 794 l 289 778 l 293 760 l 307 753 l 293 725 q 311 677 301 688 l 302 647 l 313 607 l 306 554 l 317 539 l 306 528 l 304 497 l 311 479 l 302 456 q 335 410 310 432 l 335 404 l 351 411 l 358 403 l 363 412 q 422 403 382 412 l 429 383 z "},"~":{"ha":1157,"x_min":121,"x_max":1038,"o":"m 1038 439 q 775 339 895 339 q 579 386 707 339 q 383 433 446 433 q 121 326 271 433 l 121 389 q 383 488 261 488 q 550 452 451 488 q 690 405 648 417 q 775 393 732 393 q 1038 501 885 393 l 1038 439 z "},"":{"ha":978,"x_min":-28,"x_max":933,"o":"m 933 343 q 924 329 933 333 l 901 336 l 876 317 l 847 321 q 808 309 829 309 q 787 301 792 309 q 755 309 770 309 q 737 298 741 309 q 747 286 740 292 l 743 272 l 747 225 l 765 199 l 768 174 l 799 129 l 794 109 l 815 89 l 847 35 q 876 -7 872 5 l 901 -20 l 911 -41 l 921 -49 l 903 -62 l 880 -45 l 867 -45 l 848 -31 l 835 -31 l 822 -7 l 808 0 q 772 52 792 33 l 772 65 l 760 77 l 758 98 l 737 121 l 708 191 l 699 203 l 694 237 q 676 269 693 243 l 676 298 l 660 298 l 642 286 l 614 292 l 595 279 l 587 286 l 572 277 l 568 286 q 554 282 565 286 q 532 278 544 278 l 514 279 l 490 279 l 467 264 l 441 269 l 407 267 l 407 260 l 395 267 l 378 257 l 366 267 l 343 267 l 321 257 l 302 277 l 293 269 l 273 277 q 210 205 250 267 l 187 200 q 127 114 132 115 l 115 107 l 77 57 l 69 57 l 36 3 l 0 -20 l -28 -12 l -22 0 l -22 20 l -12 32 l -17 41 l 8 45 l 25 54 q 53 89 47 64 q 86 121 81 96 q 131 183 119 140 l 150 191 l 195 260 l 195 279 q 180 300 185 287 l 207 323 l 207 334 l 239 330 l 257 342 l 261 336 l 279 361 q 273 367 273 362 q 293 383 273 370 l 298 375 q 313 415 300 392 l 309 418 l 325 419 l 330 437 q 347 452 347 439 l 347 468 q 380 521 380 496 l 380 524 l 399 526 l 403 546 l 412 549 l 427 578 l 436 571 l 429 586 q 452 612 450 588 l 461 607 l 461 635 l 471 635 l 471 654 q 486 668 473 657 q 503 699 499 680 l 518 714 l 509 736 q 545 761 528 761 l 547 761 l 555 774 l 565 760 q 577 751 568 755 l 600 739 l 603 704 q 621 676 612 696 l 632 672 l 635 642 l 646 600 l 664 568 l 676 524 l 679 494 l 699 468 l 693 457 l 708 440 l 708 419 l 711 400 q 705 386 711 395 q 754 336 726 336 l 781 342 l 812 342 q 838 338 827 338 q 865 346 855 338 q 878 354 875 354 q 903 342 882 354 l 933 343 m 669 378 q 647 408 661 401 l 654 428 l 636 437 l 631 490 l 614 517 l 611 539 l 602 558 l 602 566 l 597 566 l 595 595 q 587 610 595 600 l 578 625 q 567 635 575 629 q 541 650 558 642 l 525 642 l 515 625 l 482 578 l 474 562 q 441 526 471 555 l 436 504 l 407 489 q 366 428 397 436 l 353 386 l 325 375 l 325 361 l 321 343 q 355 329 345 336 l 372 330 l 400 323 q 412 321 408 321 q 432 323 418 321 q 437 325 433 325 q 448 322 439 325 q 464 319 456 319 l 482 323 l 536 328 l 581 334 q 635 328 623 328 q 667 342 667 328 q 654 366 667 351 l 669 378 m 498 903 l 494 899 l 497 883 l 490 879 l 490 869 q 464 844 482 867 q 439 840 451 844 q 425 836 427 836 q 420 842 422 836 q 412 848 418 848 l 410 848 q 404 855 410 855 l 401 855 l 393 860 l 395 867 l 390 872 l 393 880 l 380 900 q 386 922 384 916 q 403 939 387 928 q 425 958 418 949 l 436 954 q 465 942 457 951 q 490 926 472 932 l 498 903 m 728 886 l 719 864 l 703 855 q 683 840 693 842 q 654 831 672 838 q 629 853 644 842 q 613 866 614 864 q 610 893 612 868 l 622 908 l 619 917 l 625 922 l 622 929 q 630 936 630 931 q 636 935 633 935 q 639 937 639 935 l 639 940 l 643 940 q 650 946 648 940 q 656 953 652 953 q 693 944 665 946 q 719 920 709 922 l 719 909 l 726 905 l 724 890 l 728 886 z "},"":{"ha":978,"x_min":-28,"x_max":933,"o":"m 933 343 q 924 329 933 333 l 901 336 l 876 317 l 847 321 q 808 309 829 309 q 787 301 792 309 q 755 309 770 309 q 737 298 741 309 q 747 286 740 292 l 743 272 l 747 225 l 765 199 l 768 174 l 799 129 l 794 109 l 815 89 l 847 35 q 876 -7 872 5 l 901 -20 l 911 -41 l 921 -49 l 903 -62 l 880 -45 l 867 -45 l 848 -31 l 835 -31 l 822 -7 l 808 0 q 772 52 792 33 l 772 65 l 760 77 l 758 98 l 737 121 l 708 191 l 699 203 l 694 237 q 676 269 693 243 l 676 298 l 660 298 l 642 286 l 614 292 l 595 279 l 587 286 l 572 277 l 568 286 q 554 282 565 286 q 532 278 544 278 l 514 279 l 490 279 l 467 264 l 441 269 l 407 267 l 407 260 l 395 267 l 378 257 l 366 267 l 343 267 l 321 257 l 302 277 l 293 269 l 273 277 q 210 205 250 267 l 187 200 q 127 114 132 115 l 115 107 l 77 57 l 69 57 l 36 3 l 0 -20 l -28 -12 l -22 0 l -22 20 l -12 32 l -17 41 l 8 45 l 25 54 q 53 89 47 64 q 86 121 81 96 q 131 183 119 140 l 150 191 l 195 260 l 195 279 q 180 300 185 287 l 207 323 l 207 334 l 239 330 l 257 342 l 261 336 l 279 361 q 273 367 273 362 q 293 383 273 370 l 298 375 q 313 415 300 392 l 309 418 l 325 419 l 330 437 q 347 452 347 439 l 347 468 q 380 521 380 496 l 380 524 l 399 526 l 403 546 l 412 549 l 427 578 l 436 571 l 429 586 q 452 612 450 588 l 461 607 l 461 635 l 471 635 l 471 654 q 486 668 473 657 q 503 699 499 680 l 518 714 l 509 736 q 545 761 528 761 l 547 761 l 555 774 l 565 760 q 577 751 568 755 l 600 739 l 603 704 q 621 676 612 696 l 632 672 l 635 642 l 646 600 l 664 568 l 676 524 l 679 494 l 699 468 l 693 457 l 708 440 l 708 419 l 711 400 q 705 386 711 395 q 754 336 726 336 l 781 342 l 812 342 q 838 338 827 338 q 865 346 855 338 q 878 354 875 354 q 903 342 882 354 l 933 343 m 669 378 q 647 408 661 401 l 654 428 l 636 437 l 631 490 l 614 517 l 611 539 l 602 558 l 602 566 l 597 566 l 595 595 q 587 610 595 600 l 578 625 q 567 635 575 629 q 541 650 558 642 l 525 642 l 515 625 l 482 578 l 474 562 q 441 526 471 555 l 436 504 l 407 489 q 366 428 397 436 l 353 386 l 325 375 l 325 361 l 321 343 q 355 329 345 336 l 372 330 l 400 323 q 412 321 408 321 q 432 323 418 321 q 437 325 433 325 q 448 322 439 325 q 464 319 456 319 l 482 323 l 536 328 l 581 334 q 635 328 623 328 q 667 342 667 328 q 654 366 667 351 l 669 378 m 670 936 q 678 899 675 910 q 681 884 681 888 q 631 819 681 857 l 616 818 q 604 798 608 800 q 585 794 600 796 q 563 789 569 792 q 556 786 557 786 q 545 798 551 786 l 531 798 q 513 790 523 790 q 481 802 507 790 q 465 836 481 823 q 460 848 460 844 l 462 863 q 456 875 462 867 l 457 895 q 462 899 462 895 q 450 917 462 903 l 457 930 q 475 949 460 936 q 482 973 475 973 l 492 973 q 506 985 494 985 l 510 985 q 543 1008 529 1008 l 559 1006 q 575 1002 567 1006 l 581 996 q 593 1001 587 1001 q 605 993 595 1001 q 631 981 616 985 q 670 936 641 966 m 648 886 l 648 901 l 637 908 q 629 941 629 929 q 610 957 623 945 q 584 969 597 969 q 545 953 553 969 l 536 951 l 535 941 l 520 936 l 505 917 l 500 886 l 503 860 l 498 847 q 523 823 510 842 l 548 827 l 557 823 l 581 825 l 599 838 l 608 836 q 631 850 622 836 q 642 868 640 865 l 638 878 l 648 886 z "},"":{"ha":844,"x_min":78,"x_max":840,"o":"m 840 244 q 817 225 819 233 l 821 208 q 816 198 821 205 q 804 191 811 191 l 786 191 l 775 161 l 729 131 q 703 97 716 111 q 659 78 682 97 q 624 53 635 60 q 601 43 612 46 q 571 30 589 39 q 545 20 553 20 l 534 20 q 467 -12 507 20 l 446 -8 q 401 -18 418 -18 q 392 -17 395 -18 q 395 -22 395 -20 q 390 -34 395 -25 q 385 -52 385 -42 q 386 -62 385 -58 l 378 -72 l 380 -82 q 387 -104 380 -98 q 408 -110 393 -110 q 419 -104 414 -104 q 436 -119 429 -104 l 457 -121 l 464 -132 l 481 -135 l 510 -189 l 501 -222 l 504 -254 l 481 -273 q 461 -283 481 -275 l 450 -298 l 440 -298 q 408 -304 422 -298 q 393 -313 402 -313 l 338 -304 l 307 -294 q 301 -275 306 -285 l 322 -271 q 336 -283 325 -288 l 351 -278 q 380 -286 359 -284 q 396 -282 389 -282 q 407 -283 403 -282 l 411 -277 l 424 -277 l 432 -271 q 457 -258 442 -271 q 469 -218 460 -233 l 467 -191 l 464 -191 q 460 -187 460 -191 l 464 -176 q 433 -151 464 -157 l 390 -143 l 370 -151 l 355 -146 l 332 -174 q 319 -167 323 -167 q 309 -174 313 -167 l 300 -158 l 304 -136 l 319 -114 q 329 -97 321 -106 q 340 -92 336 -97 q 345 -85 345 -87 l 343 -66 l 357 -43 l 353 -21 q 335 -12 339 -21 l 297 -14 l 278 -7 l 265 -12 l 237 0 l 225 9 q 193 22 220 14 l 186 40 q 150 50 153 49 q 145 66 147 50 q 134 87 143 82 q 121 100 125 93 q 112 121 116 108 q 101 144 107 134 q 88 171 92 157 q 83 196 83 184 l 83 200 l 86 243 q 78 272 78 258 l 86 296 l 86 319 l 94 323 l 97 346 l 114 410 l 126 440 l 132 441 l 135 463 q 144 484 142 465 q 160 522 146 503 q 174 549 174 540 q 170 566 174 555 l 186 571 q 212 600 199 591 l 220 629 l 237 640 l 243 663 q 284 689 265 670 q 310 708 302 709 l 319 717 q 347 729 322 721 l 351 726 l 367 742 l 376 730 l 390 728 q 435 736 411 736 l 463 731 q 473 726 465 730 l 516 710 l 614 648 q 633 619 620 629 l 642 593 q 654 550 654 562 l 653 519 q 652 497 652 514 l 652 496 q 643 477 652 491 q 629 457 633 464 l 604 452 q 574 517 574 471 l 578 543 l 574 574 l 575 599 l 568 613 q 561 628 562 628 q 550 637 560 627 q 532 651 540 646 q 514 658 524 655 q 504 663 504 661 l 504 664 l 490 676 l 461 676 l 441 692 q 421 684 421 692 l 408 692 l 395 682 l 376 685 l 363 675 l 340 676 l 325 672 l 302 640 l 265 603 l 236 558 l 224 553 l 212 517 l 193 501 l 193 482 l 170 441 l 158 396 l 149 396 l 154 370 l 140 343 l 144 334 l 136 334 l 136 313 l 131 309 l 132 254 l 126 214 q 142 178 142 190 l 154 168 l 154 151 l 164 136 l 158 121 l 184 93 l 186 79 l 229 62 l 225 45 l 282 40 l 300 22 l 329 32 l 345 14 l 376 25 q 395 35 388 35 q 399 31 399 35 l 419 32 l 431 22 l 453 31 l 460 31 q 489 41 481 31 q 518 52 498 52 q 538 49 524 52 q 567 65 541 64 q 602 85 577 77 q 642 98 612 85 l 652 115 q 690 132 659 117 l 705 151 l 729 161 l 803 239 l 828 253 l 840 244 z "},"":{"ha":832,"x_min":114,"x_max":791,"o":"m 791 714 q 785 699 789 704 l 770 699 l 760 692 l 741 699 l 718 697 q 699 702 702 697 q 689 707 696 707 q 671 699 684 707 q 653 704 662 704 q 626 696 644 704 q 599 689 607 689 q 580 690 592 689 q 561 692 568 692 q 550 684 552 692 q 528 692 539 692 q 488 675 508 692 l 473 682 l 461 675 l 429 685 l 407 672 l 382 672 q 347 664 359 667 q 313 650 334 661 l 300 659 l 275 639 l 250 640 l 232 607 l 239 581 q 225 545 225 577 l 227 533 l 225 504 l 229 498 l 220 490 l 225 482 q 215 444 215 460 q 252 414 215 414 q 269 417 257 414 q 293 417 281 420 q 315 414 305 414 l 336 422 l 358 415 l 372 419 l 386 418 l 407 422 l 419 419 l 422 419 q 447 428 431 419 q 476 423 459 422 q 500 427 492 425 l 518 431 l 549 425 q 557 433 553 425 q 599 427 591 427 l 614 428 l 661 425 l 686 431 q 703 439 688 439 l 734 435 l 747 437 l 765 431 l 783 435 l 779 418 q 743 408 755 408 q 729 411 740 408 q 708 415 718 414 l 672 397 l 642 400 l 624 393 l 611 396 l 589 383 l 574 387 l 518 386 q 500 378 509 386 l 481 383 l 471 374 l 453 379 l 443 370 l 416 382 l 397 370 l 375 375 q 364 376 372 376 q 336 371 354 376 l 319 366 l 269 361 l 258 367 q 216 355 251 361 l 205 329 l 218 257 l 211 248 l 220 225 l 218 200 l 223 193 q 231 153 225 191 l 243 139 l 236 115 l 250 119 l 275 81 q 367 40 328 40 l 392 36 q 421 41 399 36 l 427 49 l 439 49 q 458 49 453 49 q 488 65 463 50 q 510 71 507 65 l 525 75 q 541 82 533 77 l 559 97 q 581 119 568 109 l 599 121 l 633 151 q 684 196 675 163 l 693 191 l 697 212 l 715 214 l 718 235 l 722 235 q 741 218 735 235 l 693 157 l 676 153 q 643 110 652 115 l 608 86 l 586 65 l 576 66 l 559 49 l 496 22 l 481 3 l 458 9 l 452 -1 l 446 0 l 435 -9 l 397 -1 l 351 -22 l 318 -9 l 261 20 q 217 59 237 33 q 178 144 198 85 q 158 208 158 203 l 163 228 l 153 254 l 163 267 l 150 342 q 129 368 132 365 q 126 382 126 371 q 138 413 126 407 q 150 419 150 418 l 150 428 q 163 440 150 437 l 167 460 l 163 468 l 163 507 l 158 524 l 174 566 q 184 603 180 591 l 167 625 l 136 623 l 134 623 q 120 628 126 623 q 114 642 114 634 q 132 675 114 654 q 142 682 139 677 q 170 692 166 692 q 179 685 174 692 q 191 694 183 694 q 211 707 211 694 q 207 717 211 711 l 253 714 l 261 699 q 306 714 283 714 l 315 713 l 345 720 q 372 729 355 720 l 372 720 q 407 730 385 730 l 431 729 l 435 729 l 567 742 l 597 729 l 607 746 q 618 736 610 736 q 631 739 620 736 l 646 730 l 656 739 l 681 729 l 697 733 l 705 726 l 750 730 l 757 726 q 791 714 790 719 m 618 1048 l 625 1046 q 652 1030 654 1038 l 642 991 q 606 972 613 991 l 602 975 l 551 925 l 543 928 l 524 901 l 513 899 l 514 886 l 494 879 l 494 868 l 482 864 q 464 829 467 836 l 452 823 l 452 812 q 418 785 443 810 l 397 804 l 412 817 l 420 842 l 448 857 l 464 889 l 477 892 l 485 918 l 490 913 l 490 921 l 498 924 l 505 935 q 571 1011 571 996 l 571 1013 q 583 1023 574 1023 l 603 1046 l 618 1048 z "},"":{"ha":1051,"x_min":153,"x_max":940,"o":"m 940 586 l 922 558 l 925 536 l 932 539 q 922 507 932 530 l 914 489 l 914 418 l 900 386 l 903 366 l 890 302 l 896 286 l 885 236 l 888 214 l 878 178 l 888 143 l 865 109 l 871 89 l 859 65 l 865 52 l 871 -14 l 880 -35 q 865 -52 870 -41 l 852 -49 l 846 20 l 836 22 q 834 47 835 35 q 833 72 834 60 l 833 99 q 829 121 833 114 l 821 139 l 794 143 l 779 161 l 772 153 l 760 168 l 737 161 l 710 183 l 696 180 l 668 186 l 652 203 l 642 200 l 557 254 l 547 267 l 518 279 l 500 302 l 484 311 l 461 334 l 399 361 l 354 418 l 335 419 l 325 435 q 281 472 306 443 l 288 472 q 265 504 275 484 l 256 507 l 253 507 q 234 498 238 507 q 224 457 229 488 l 211 386 l 224 343 l 204 272 q 212 225 212 229 l 212 220 q 203 193 212 203 q 195 178 195 182 q 212 168 195 174 l 204 139 l 204 104 l 197 66 l 204 52 l 197 41 q 179 -24 195 0 l 170 -24 q 153 3 153 -24 l 153 8 l 170 62 l 163 85 l 172 114 l 163 125 l 174 147 l 158 168 q 161 195 161 184 q 158 225 161 205 l 164 222 l 170 236 l 158 257 l 170 289 l 163 330 l 172 375 l 164 406 l 174 472 l 172 524 l 179 571 l 172 586 l 174 653 l 189 657 q 171 689 171 675 q 179 704 171 697 l 204 699 l 211 708 q 224 686 224 698 q 216 667 224 678 l 236 667 l 239 635 l 256 621 l 258 600 l 281 586 l 288 557 q 302 533 292 541 l 349 500 l 349 497 q 363 472 349 486 l 395 450 l 429 410 l 538 319 l 550 319 q 569 297 565 307 q 576 286 573 287 l 621 272 l 656 243 l 676 236 l 715 214 l 753 203 q 811 168 787 168 l 832 174 l 836 174 l 839 212 l 859 254 l 848 264 l 852 329 l 868 353 l 866 368 q 852 396 865 375 l 868 450 l 861 501 l 875 600 l 859 618 l 878 675 l 871 682 l 880 694 l 878 704 l 899 714 l 903 704 l 922 708 q 918 682 918 694 q 925 658 918 669 q 932 644 932 648 l 922 618 l 940 586 m 742 921 q 736 889 736 906 l 720 872 q 678 857 697 867 l 671 844 q 616 832 635 829 l 575 839 q 553 852 566 852 q 545 851 547 852 q 553 872 551 865 l 535 876 l 535 886 l 525 896 l 528 901 q 478 908 498 908 l 433 882 q 416 867 429 872 q 403 857 403 861 q 408 850 403 853 q 378 817 398 817 q 364 819 375 817 q 354 847 354 835 q 359 861 354 854 q 371 873 363 867 q 386 890 379 878 q 396 905 393 903 l 414 915 q 425 930 416 928 q 477 950 458 933 l 500 953 q 532 936 519 953 l 550 932 q 585 904 566 914 l 586 892 q 608 873 599 887 l 618 872 q 632 882 629 872 q 659 889 657 882 l 677 890 q 685 918 678 903 q 671 924 682 924 l 671 936 q 709 968 699 968 q 742 921 719 968 z "},"":{"ha":968,"x_min":78,"x_max":913,"o":"m 913 374 l 900 343 l 896 301 l 884 289 l 869 244 q 865 231 867 235 q 857 224 863 227 l 842 218 l 760 153 l 741 143 q 713 121 732 139 l 713 129 l 656 85 l 631 74 l 571 41 q 546 47 558 47 q 531 41 536 47 q 521 32 526 34 l 509 35 l 486 14 l 475 20 l 469 12 l 446 12 l 433 0 l 392 3 l 325 -9 q 313 -8 321 -8 l 292 -11 l 268 -7 l 262 -1 l 204 8 l 176 22 l 164 22 l 164 49 l 144 41 l 135 55 q 121 66 129 62 l 100 77 q 87 147 89 107 l 81 157 l 78 212 l 97 272 l 94 301 l 107 313 l 97 336 l 121 355 l 121 375 l 129 393 l 129 408 l 139 425 l 135 431 l 142 435 l 171 501 l 225 587 q 243 602 237 591 q 272 629 248 612 l 269 642 l 286 642 l 282 650 q 325 675 298 666 l 335 686 l 334 686 q 360 690 334 687 l 424 699 l 464 693 l 494 694 l 530 694 q 550 692 545 692 q 579 704 569 692 q 595 697 586 697 q 602 699 599 697 q 615 685 602 685 q 646 676 621 679 l 656 667 l 676 664 l 703 664 l 741 644 l 732 644 l 758 626 q 771 607 762 623 l 791 597 l 802 581 l 825 571 l 871 494 q 888 456 876 487 l 906 406 q 913 383 913 389 l 913 374 m 868 410 l 856 441 l 857 452 q 854 467 857 458 q 825 490 850 475 l 815 517 l 807 521 l 803 536 l 764 578 l 729 607 l 718 603 l 668 635 q 639 642 661 639 q 606 653 617 646 q 602 652 606 652 q 581 654 599 652 l 574 650 l 553 657 l 539 650 q 514 656 521 656 q 502 653 510 656 q 490 650 494 650 q 481 653 484 650 q 458 636 467 646 q 431 618 450 626 l 411 623 l 392 610 l 370 612 l 361 609 q 354 604 357 607 q 346 597 351 601 q 333 588 340 593 q 318 576 326 583 q 299 564 309 570 q 281 536 294 561 l 282 517 l 257 506 q 240 489 253 504 q 215 452 230 466 l 215 435 q 196 418 199 428 l 183 378 l 160 363 q 145 264 155 278 q 132 240 136 251 q 126 215 128 229 q 117 178 125 202 l 125 161 l 129 136 l 142 119 q 146 109 144 115 l 149 93 q 214 51 175 63 q 260 40 254 39 l 304 52 l 314 41 l 336 41 l 336 32 l 358 32 l 364 49 l 386 52 l 441 45 q 458 58 449 58 l 464 57 q 509 77 494 77 l 514 77 l 542 94 q 571 98 547 97 l 589 114 q 646 121 639 115 q 660 132 654 126 q 686 143 665 138 l 696 170 l 700 168 l 703 178 q 729 196 719 182 l 742 192 l 749 205 l 771 222 l 808 264 l 831 272 l 842 296 l 860 309 l 856 334 l 865 355 l 860 396 l 868 410 m 453 903 l 449 899 l 452 883 l 445 879 l 445 869 q 418 844 437 867 q 393 840 406 844 q 379 836 381 836 q 375 842 377 836 q 367 848 372 848 l 364 848 q 359 855 364 855 l 355 855 l 347 860 l 350 867 l 345 872 l 347 880 l 335 900 q 340 922 338 916 q 357 939 342 928 q 379 958 373 949 l 391 954 q 419 942 412 951 q 445 926 427 932 l 453 903 m 682 886 l 673 864 l 657 855 q 637 840 648 842 q 608 831 627 838 q 584 853 599 842 q 568 866 568 864 q 564 893 567 868 l 576 908 l 574 917 l 579 922 l 576 929 q 585 936 585 931 q 591 935 587 935 q 593 937 593 935 l 593 940 l 597 940 q 604 946 602 940 q 611 953 606 953 q 648 944 620 946 q 673 920 663 922 l 673 909 l 681 905 l 678 890 l 682 886 z "}}}
